<?xml version="1.0" standalone="no"?>
<!DOCTYPE svg PUBLIC "-//W3C//DTD SVG 20010904//EN"
 "http://www.w3.org/TR/2001/REC-SVG-20010904/DTD/svg10.dtd">
<svg version="1.0" xmlns="http://www.w3.org/2000/svg"
 width="678.000000pt" height="452.000000pt" viewBox="0 0 678.000000 452.000000"
 preserveAspectRatio="xMidYMid meet">

<g transform="translate(0.000000,452.000000) scale(0.100000,-0.100000)"
fill="#000000" stroke="none">
<path d="M0 2260 l0 -2260 987 0 987 0 -22 20 c-13 13 -35 20 -59 20 -25 0
-33 3 -24 9 7 5 9 11 4 14 -6 4 -19 0 -29 -8 -22 -17 -54 -20 -54 -5 0 6 -26
10 -59 10 -57 0 -209 42 -222 61 -3 5 -27 16 -55 23 -81 24 -124 40 -124 48 0
5 -9 8 -20 8 -11 0 -20 5 -20 10 0 6 -8 10 -18 10 -18 0 -52 29 -52 44 0 4 -7
15 -16 23 -10 10 -14 27 -12 45 3 15 1 28 -4 28 -4 0 -8 12 -8 28 l0 27 18
-23 c13 -17 20 -20 29 -11 7 7 17 8 29 1 26 -13 347 -122 361 -122 6 0 14 8
18 19 5 16 9 15 42 -15 25 -23 43 -32 57 -28 20 5 94 -20 106 -35 8 -10 49
-31 61 -31 6 0 17 -6 24 -13 21 -22 155 9 155 35 0 11 5 16 10 13 6 -3 10 -1
10 4 0 17 18 13 39 -8 24 -24 31 -18 31 25 0 18 4 35 9 39 15 9 30 -27 37 -89
7 -54 6 -56 -17 -56 -21 -1 -19 -3 11 -16 28 -13 60 -15 159 -11 101 4 131 2
158 -11 18 -9 33 -19 33 -24 0 -4 7 -8 15 -8 8 0 15 -5 15 -11 0 -7 -8 -9 -22
-4 -63 19 -66 18 -61 -9 l5 -26 299 0 c330 0 348 3 390 59 l23 32 10 -23 c5
-13 8 -33 7 -45 l-2 -23 281 0 282 0 -6 27 c-4 16 -18 37 -31 48 -14 12 -25
26 -25 31 0 15 -145 164 -159 164 -6 0 -8 6 -5 14 3 8 -7 18 -25 26 -42 17
-78 53 -73 70 3 8 16 24 30 36 18 15 25 30 26 61 0 28 6 43 16 46 86 26 306
109 320 122 10 9 21 34 25 55 6 38 7 38 58 42 29 2 68 0 87 -6 19 -5 40 -10
45 -10 6 -1 14 -11 20 -24 5 -12 14 -22 20 -22 5 -1 24 -19 40 -40 17 -21 33
-39 37 -40 4 0 22 -16 41 -35 19 -19 39 -35 44 -35 5 0 20 -9 32 -19 12 -11
32 -26 43 -33 24 -16 22 -1 26 -340 l2 -138 229 0 229 0 10 28 c6 15 13 35 16
45 7 21 32 22 40 2 3 -8 3 -29 -1 -45 l-5 -30 225 0 225 0 5 32 c6 31 15 107
22 173 4 47 35 149 46 156 6 3 7 17 4 30 -10 42 22 171 47 191 23 17 118 21
134 6 10 -11 21 -350 13 -453 -1 -22 -2 -61 -1 -87 l2 -48 318 0 317 0 19 100
c10 55 21 100 26 100 11 0 70 121 70 143 0 9 4 17 9 17 5 0 14 15 21 33 7 17
28 48 45 67 28 30 85 150 85 177 0 5 9 27 20 50 28 59 56 73 145 73 l75 0 0
1880 0 1880 -3390 0 -3390 0 0 -2260z m740 2199 c19 -29 40 -88 40 -114 0 -29
-56 -44 -122 -34 -29 5 -70 10 -90 11 -48 2 -69 14 -48 28 13 8 13 10 -2 10
-15 0 -16 7 -11 53 3 28 10 57 14 63 6 7 44 10 106 9 89 -2 99 -4 113 -26z
m1560 -259 c63 -10 132 -23 153 -28 50 -13 174 -87 191 -115 18 -28 48 -148
40 -156 -4 -3 -9 0 -11 6 -3 10 -10 10 -25 2 -11 -6 -17 -13 -14 -16 8 -8 -21
-33 -38 -33 -23 0 -20 -21 4 -27 11 -3 23 -16 26 -29 6 -23 34 -35 34 -14 0 6
6 10 14 10 9 0 15 -20 20 -61 7 -71 7 -130 -1 -111 -8 19 -53 39 -108 47 -28
4 -57 11 -66 16 -8 4 -35 10 -60 13 -65 8 -90 14 -103 24 -23 19 -172 64 -221
67 -68 4 -167 -17 -192 -41 -11 -10 -29 -26 -41 -33 -12 -8 -24 -21 -27 -29
-7 -19 19 -59 45 -67 11 -3 20 -12 20 -19 0 -15 -30 -17 -46 -5 -15 12 -28 -5
-50 -68 -10 -29 -22 -53 -26 -53 -5 0 -8 -6 -8 -13 0 -8 -9 -22 -21 -33 -12
-10 -28 -36 -36 -57 -9 -21 -23 -43 -33 -50 -9 -6 -29 -29 -43 -50 l-26 -38 4
38 c3 21 2 30 -1 20 -12 -38 -24 -2 -24 74 0 43 -3 79 -6 79 -3 0 -19 -9 -35
-21 -20 -14 -38 -19 -53 -15 -23 6 -23 4 -18 -39 3 -30 1 -45 -7 -45 -7 0 -8
-6 -3 -17 47 -96 54 -114 49 -119 -4 -4 -12 5 -18 20 -7 14 -17 26 -22 26 -6
0 -6 -5 0 -12 5 -7 15 -30 22 -51 11 -33 11 -41 -3 -56 -9 -10 -16 -23 -16
-29 0 -7 -6 -12 -14 -12 -11 0 -13 -10 -9 -42 l5 -43 -26 37 c-26 37 -35 88
-16 88 6 0 10 9 10 20 0 11 -4 20 -10 20 -5 0 -10 -9 -10 -20 0 -18 -10 -25
-32 -21 -4 0 -1 -17 8 -39 13 -31 14 -49 7 -78 -5 -21 -7 -47 -3 -57 10 -28
-9 -36 -43 -18 -16 8 -51 21 -78 29 -27 8 -49 16 -49 18 0 1 22 27 49 56 28
30 56 66 62 80 7 14 18 32 24 40 7 8 19 38 29 65 10 28 20 57 24 65 8 22 33
131 35 155 0 11 -2 31 -7 45 -5 16 -4 20 2 12 12 -17 24 -15 36 5 6 11 4 19
-8 25 -9 5 -16 14 -16 20 0 6 8 4 18 -5 10 -10 23 -17 29 -17 5 0 18 -9 27
-19 16 -18 16 -19 0 -17 -11 0 -20 -9 -25 -27 -10 -39 14 -47 48 -16 23 22 25
29 19 80 -5 47 -2 59 14 74 11 10 20 33 22 59 3 38 5 41 31 38 19 -2 27 1 28
12 3 29 4 34 12 42 13 13 8 36 -7 31 -10 -4 -14 0 -13 14 1 21 12 25 22 9 3
-5 11 -10 17 -10 6 0 5 6 -3 16 -11 14 -10 18 5 30 12 8 17 21 13 34 -3 11 -1
18 3 15 5 -3 11 -1 14 4 4 5 2 12 -4 16 -14 9 14 35 37 35 10 0 24 9 31 20 7
11 19 20 28 20 8 0 13 -4 10 -8 -2 -4 4 -9 15 -9 16 -2 17 1 9 17 -8 16 -6 22
15 36 18 12 25 25 25 48 0 17 7 44 15 60 8 15 15 39 15 51 0 16 8 26 28 33 42
16 185 12 312 -8z m-569 -338 c-7 -2 -18 1 -23 6 -8 8 -4 9 13 5 13 -4 18 -8
10 -11z m976 -54 c-3 -8 -6 -5 -6 6 -1 11 2 17 5 13 3 -3 4 -12 1 -19z m-1112
-71 c32 -25 11 -30 -28 -7 -24 14 -44 19 -64 15 l-28 -6 23 20 c21 19 26 19
50 7 15 -8 36 -21 47 -29z m403 -201 c45 -33 82 -48 125 -50 11 -1 22 -7 25
-15 3 -8 0 -11 -6 -8 -5 4 -15 0 -22 -7 -8 -11 -28 -14 -74 -11 -77 5 -118 19
-110 38 3 8 -2 17 -10 20 -9 4 -16 16 -16 28 0 15 4 19 16 15 12 -4 15 -2 10
9 -9 24 10 18 62 -19z m416 -34 c9 -26 34 -75 57 -110 31 -48 39 -69 35 -88
-7 -25 -26 -24 -26 2 0 8 -10 14 -24 14 -14 0 -27 4 -31 9 -11 18 -110 44
-161 42 -53 -1 -84 15 -84 44 0 17 38 24 67 12 17 -8 27 -3 52 24 17 19 33 43
37 54 20 62 57 61 78 -3z m286 14 c0 -2 -8 -10 -17 -17 -16 -13 -17 -12 -4 4
13 16 21 21 21 13z m-105 -26 c-3 -5 -11 -10 -16 -10 -6 0 -7 5 -4 10 3 6 11
10 16 10 6 0 7 -4 4 -10z m75 -147 c-11 -56 -27 -114 -36 -129 l-15 -29 6 34
c6 29 5 33 -9 28 -9 -4 -16 -2 -16 3 0 6 -5 10 -11 10 -17 0 -68 63 -82 103
-6 17 -3 18 31 12 43 -7 94 8 91 27 -3 28 2 38 21 38 11 0 20 5 20 12 0 8 3 9
10 2 7 -7 4 -43 -10 -111z m2291 -34 c28 -40 17 -50 -56 -53 -16 -1 -36 -5
-44 -10 -14 -9 -31 8 -31 31 0 7 -6 10 -14 7 -9 -3 -16 2 -18 13 -3 14 6 21
37 29 74 21 101 17 126 -17z m-3191 7 c0 -2 -9 -6 -20 -9 -11 -3 -20 -1 -20 4
0 5 9 9 20 9 11 0 20 -2 20 -4z m-153 -38 c-3 -8 -6 -5 -6 6 -1 11 2 17 5 13
3 -3 4 -12 1 -19z m500 -44 c-3 -3 -12 -4 -19 -1 -8 3 -5 6 6 6 11 1 17 -2 13
-5z m56 -11 c-7 -2 -19 -2 -25 0 -7 3 -2 5 12 5 14 0 19 -2 13 -5z m302 -24
c8 -35 4 -42 -17 -34 -10 4 -13 16 -10 35 6 39 19 38 27 -1z m2579 -36 c3 -6
1 -26 -4 -44 -5 -17 -7 -37 -3 -43 3 -6 3 -8 -1 -4 -4 3 -24 -5 -43 -18 -20
-13 -50 -24 -67 -24 -17 0 -38 -5 -46 -10 -16 -10 -50 14 -50 36 0 7 -8 18
-17 24 -15 9 -13 10 10 5 19 -4 27 -1 27 8 0 7 16 21 35 30 19 9 35 21 35 26
0 5 11 12 25 15 13 3 29 15 35 26 10 20 12 20 35 3 13 -10 26 -23 29 -30z
m-2594 -23 c0 -5 -7 -10 -16 -10 -8 0 -12 5 -9 10 3 6 10 10 16 10 5 0 9 -4 9
-10z m576 -34 c18 -18 18 -26 -1 -26 -9 0 -12 -6 -9 -15 4 -8 10 -13 15 -10 8
6 29 -26 29 -44 0 -6 -11 -11 -23 -11 -13 0 -32 -9 -42 -20 -41 -45 -95 -9
-95 62 0 27 4 38 15 38 8 0 15 5 15 10 0 26 74 38 96 16z m-770 -11 c4 -10 13
-13 25 -10 11 4 35 1 54 -5 27 -9 32 -14 23 -24 -13 -13 -40 -10 -108 14 -43
16 -44 16 -35 29 9 16 35 13 41 -4z m-98 -22 c7 -7 21 -13 30 -13 9 -1 42 -9
72 -20 30 -11 71 -20 90 -20 26 0 31 -3 20 -10 -8 -5 -11 -10 -6 -10 5 0 3 -7
-4 -15 -8 -9 -23 -14 -39 -11 -38 6 -38 7 -16 16 19 8 19 9 -3 9 -13 1 -36 8
-51 16 -16 8 -31 12 -34 9 -9 -9 -81 33 -94 55 -11 18 -11 19 5 14 9 -4 23
-13 30 -20z m1078 -120 c43 -42 48 -51 48 -93 1 -61 -15 -80 -68 -80 -48 1
-66 12 -92 60 -20 39 -27 140 -8 133 6 -2 14 3 17 11 12 30 54 18 103 -31z
m-2004 -13 l33 -20 -37 0 -38 0 0 -46 c0 -27 -4 -43 -10 -39 -5 3 -10 2 -10
-3 0 -5 -12 -7 -27 -4 -16 3 -22 7 -15 9 6 3 12 14 12 26 0 39 12 68 25 63 7
-2 15 4 18 15 6 24 9 24 49 -1z m4221 -116 c20 -4 37 -12 37 -19 0 -7 8 -15
18 -19 26 -8 54 -28 85 -58 15 -16 30 -28 33 -28 10 0 34 -28 34 -39 0 -6 4
-11 9 -11 15 0 21 -42 9 -64 -20 -37 -58 -66 -89 -66 -16 0 -29 -4 -29 -10 0
-5 -6 -7 -12 -5 -7 3 -25 -6 -40 -20 -15 -14 -30 -25 -34 -25 -3 0 -24 -18
-46 -41 -35 -36 -41 -49 -49 -107 -5 -37 -14 -71 -20 -77 -19 -19 -208 -17
-329 4 -104 17 -121 18 -170 5 -61 -16 -98 -18 -65 -4 15 7 16 9 4 9 -9 1 -22
8 -29 16 -11 13 -9 24 8 63 11 26 25 61 32 78 6 17 29 46 51 64 23 18 45 44
50 57 5 13 19 27 33 32 13 5 32 20 42 33 11 13 35 30 54 37 74 29 90 36 90 43
0 5 7 8 15 8 21 0 87 38 107 61 9 10 19 19 23 19 3 0 16 12 28 26 12 14 38 29
57 34 46 11 49 11 93 4z m-657 -31 c3 -10 10 -26 15 -35 13 -25 11 -66 -4 -96
-8 -15 -25 -49 -38 -77 -13 -27 -37 -61 -54 -75 -16 -14 -40 -37 -53 -51 -17
-19 -31 -24 -51 -21 -27 4 -29 6 -35 75 -5 57 -2 85 14 135 19 59 58 111 86
112 7 0 14 9 17 19 4 18 23 25 80 30 10 0 20 -7 23 -16z m-3501 -64 c45 -21
89 -39 99 -39 23 0 94 -57 183 -146 95 -97 108 -138 99 -314 -10 -172 -22
-261 -38 -271 -8 -5 -8 -9 -2 -9 6 0 9 -10 7 -24 -9 -45 -28 -17 -29 40 0 37
-5 58 -15 65 -10 6 -10 9 -1 9 7 0 12 13 12 30 0 17 -4 30 -10 30 -5 0 -10 9
-10 19 0 11 -5 21 -12 23 -12 4 -8 19 14 51 11 15 10 21 -7 33 -11 8 -30 24
-43 34 -12 11 -27 20 -33 20 -6 0 -8 9 -4 20 12 37 -2 57 -43 58 -20 1 -49 7
-63 13 -34 14 -75 8 -71 -10 2 -10 -4 -12 -25 -7 -65 16 -82 17 -100 7 -17
-10 -16 -10 4 -11 12 0 24 -4 27 -9 6 -9 -40 -21 -81 -21 -13 0 -46 -9 -73
-21 -48 -21 -49 -21 -30 -41 18 -19 17 -20 -12 -49 -17 -16 -37 -29 -44 -29
-7 0 -18 -9 -24 -20 -6 -11 -15 -18 -19 -15 -5 2 -14 -2 -20 -9 -10 -11 -8
-16 8 -21 32 -10 26 -22 -26 -52 -70 -39 -160 -110 -225 -175 -32 -31 -58 -56
-58 -55 0 1 6 31 14 67 13 64 44 142 59 148 4 2 7 10 7 17 0 8 11 22 25 33 13
11 21 22 18 26 -3 3 0 6 8 6 8 0 20 -5 27 -12 9 -9 12 -9 12 0 0 7 -6 12 -12
12 -7 0 -2 10 10 23 19 18 24 20 32 7 5 -8 13 -11 17 -6 4 5 2 11 -4 13 -7 3
-13 11 -13 19 0 19 -8 18 -58 -11 -63 -36 -131 -94 -148 -127 -8 -16 -19 -26
-23 -23 -5 2 -14 -1 -20 -9 -17 -21 -51 -127 -44 -138 3 -6 0 -8 -8 -6 -14 5
-59 -35 -59 -52 0 -4 6 -11 13 -13 8 -4 8 -6 0 -6 -15 -1 -44 57 -32 65 5 3 6
10 3 16 -11 18 -24 -7 -32 -63 -11 -87 -3 -421 10 -413 5 3 3 -7 -2 -21 -6
-15 -10 -54 -10 -87 0 -79 -14 -66 -16 15 -2 34 -8 130 -14 214 -18 232 -7
317 70 533 52 148 135 317 197 401 110 151 128 172 182 207 188 122 300 137
456 61z m5031 -28 c9 -12 26 -21 41 -21 21 0 23 -2 13 -15 -10 -12 -9 -16 4
-21 15 -6 15 -8 -3 -25 -11 -11 -25 -19 -31 -19 -6 0 -22 -7 -35 -16 -14 -9
-34 -14 -45 -11 -12 3 -20 0 -20 -8 0 -8 -11 -12 -32 -10 -48 3 -61 43 -29 86
18 25 21 33 10 40 -11 6 -10 11 3 26 24 27 104 23 124 -6z m-3646 -23 c14 -13
27 -23 30 -22 13 3 40 -22 40 -37 0 -26 -63 -98 -85 -98 -32 -1 -75 52 -75 92
0 48 9 67 31 67 10 0 19 5 19 10 0 16 14 12 40 -12z m3830 -86 c0 -5 -9 -8
-20 -7 -29 2 -33 10 -5 13 14 1 25 -2 25 -6z m-1900 -209 c0 -13 -6 -23 -14
-23 -7 0 -16 -9 -19 -20 -3 -11 -10 -20 -16 -20 -6 0 -11 9 -11 20 0 11 7 20
15 20 8 0 15 9 15 19 0 11 3 27 6 36 5 13 8 14 15 3 5 -7 9 -23 9 -35z m-2836
21 c3 -8 2 -12 -4 -9 -6 3 -10 10 -10 16 0 14 7 11 14 -7z m1096 -66 c12 -16
28 -28 35 -28 8 0 20 -10 26 -22 32 -59 119 -113 119 -73 0 9 9 15 25 15 14 0
28 -7 31 -15 4 -8 18 -15 33 -15 20 -1 30 -9 43 -37 11 -24 14 -39 7 -43 -11
-7 -2 -40 11 -40 4 0 10 -9 13 -21 4 -13 12 -19 24 -17 39 6 83 -24 123 -85
46 -68 60 -116 53 -180 -5 -46 10 -86 62 -163 13 -20 23 -40 20 -44 -3 -4 1
-10 9 -13 7 -3 18 -26 25 -51 6 -25 15 -46 20 -46 6 0 13 -9 16 -20 3 -11 12
-26 18 -32 23 -25 67 -94 67 -106 0 -13 20 -53 31 -62 3 -3 9 -21 13 -41 4
-21 13 -42 21 -49 8 -7 15 -25 15 -40 0 -16 4 -30 9 -32 5 -1 11 -37 12 -78 2
-56 -1 -81 -13 -100 -25 -40 -32 -70 -15 -70 13 0 33 -29 25 -35 -12 -10 -61
-30 -146 -60 l-100 -36 -41 21 c-22 12 -46 23 -53 24 -7 1 -17 4 -23 7 -13 8
-145 3 -167 -6 -9 -3 -19 -17 -22 -30 -5 -20 -10 -22 -53 -18 -66 7 -155 60
-147 87 5 16 3 18 -12 11 -11 -4 -29 -10 -41 -12 -13 -3 -23 -8 -23 -12 0 -4
-25 -18 -55 -30 -39 -16 -64 -21 -86 -16 -47 11 -19 29 76 49 44 9 93 23 109
31 37 19 48 19 90 -1 39 -19 69 -13 60 11 -4 10 -13 13 -25 10 -11 -4 -19 -2
-19 3 0 20 29 32 101 42 84 12 95 19 80 49 -7 12 -9 21 -5 21 3 0 1 7 -6 15
-9 10 -9 15 -1 15 6 0 11 7 11 15 0 8 6 15 13 15 6 1 -1 8 -17 17 -33 17 -34
13 28 58 17 13 18 17 5 47 -8 18 -13 37 -11 41 1 4 -4 20 -12 35 -8 15 -19 63
-26 107 -18 117 -23 130 -51 133 -36 4 -201 42 -224 52 -11 5 -40 11 -65 14
-25 3 -74 13 -110 21 -36 8 -96 21 -135 29 -111 23 -214 53 -241 71 -14 9 -38
15 -54 13 l-28 -3 25 -65 c40 -101 56 -131 81 -147 18 -13 22 -24 22 -73 0
-39 -5 -62 -15 -70 -8 -7 -15 -19 -15 -26 0 -17 -30 -19 -31 -1 0 6 -5 2 -11
-9 -7 -16 -18 -21 -42 -20 -39 3 -73 20 -57 30 6 4 11 20 11 36 0 15 4 30 9
32 5 2 12 20 16 40 7 36 6 37 -28 43 -47 9 -69 1 -96 -35 -20 -28 -21 -38 -15
-100 5 -49 11 -70 20 -70 8 0 14 -5 14 -11 0 -8 14 -10 40 -6 22 3 42 1 45 -3
3 -5 14 -7 25 -5 11 2 20 -2 20 -8 0 -8 3 -8 9 1 6 10 10 7 15 -11 3 -14 15
-29 26 -32 11 -3 25 -15 30 -26 6 -10 17 -19 25 -19 8 0 15 -4 15 -9 0 -5 8
-17 18 -27 14 -15 17 -34 15 -117 -2 -70 2 -112 14 -145 9 -26 17 -79 17 -118
1 -53 4 -70 14 -67 18 7 15 -10 -10 -57 -38 -71 -61 -81 -208 -89 -71 -4 -132
-10 -135 -13 -4 -3 -1 -24 5 -47 7 -28 8 -47 1 -59 -10 -16 -10 -16 -11 0 0
28 -29 37 -62 20 -45 -22 -142 -13 -188 18 -42 28 -88 43 -114 36 -17 -4 -40
2 -70 19 -25 14 -54 25 -66 25 -12 0 -27 6 -34 13 -11 10 -4 13 35 15 34 1 49
-2 49 -11 0 -9 16 -12 59 -9 35 2 62 -1 66 -7 3 -6 14 -11 23 -11 13 0 14 2 4
9 -18 11 80 61 107 54 25 -6 18 -23 -10 -23 -18 0 -68 -45 -69 -62 0 -15 98
-8 114 7 8 8 19 15 25 15 6 0 19 17 30 38 19 35 20 36 21 11 0 -15 7 -29 15
-33 8 -3 15 -1 15 4 0 6 -5 10 -11 10 -8 0 -8 4 0 14 8 10 9 16 1 21 -13 8
-13 55 0 55 15 0 12 70 -2 71 -7 1 -32 1 -55 -1 -52 -2 -58 17 -13 43 25 15
30 25 30 54 0 34 -1 35 -14 17 -17 -23 -97 -25 -136 -4 -25 14 -24 14 24 21
58 9 96 41 96 80 0 21 -7 31 -27 41 -30 14 -44 48 -20 48 18 0 117 91 117 108
0 8 -14 3 -40 -13 -22 -14 -44 -25 -49 -25 -13 0 -61 59 -61 76 0 7 11 16 24
20 13 3 30 18 37 32 8 15 20 33 27 40 6 7 12 19 12 25 -1 12 -20 -8 -59 -61
l-20 -27 -1 28 c0 15 5 27 13 27 9 0 9 2 -1 8 -7 5 -10 16 -6 25 4 12 1 17
-10 17 -21 0 -20 16 1 29 14 7 15 12 5 24 -7 8 -15 41 -17 73 -3 32 -10 61
-16 65 -7 4 -7 9 -2 12 11 7 9 122 -1 148 -4 9 -6 20 -5 25 1 5 0 12 -1 17 -1
4 -4 19 -5 35 -9 86 -26 91 -23 6 2 -56 0 -69 -12 -69 -8 0 -14 7 -12 16 1 11
-7 19 -25 24 -19 4 -23 9 -14 15 8 4 10 13 6 20 -6 9 -9 9 -16 -1 -12 -21 -22
-3 -10 19 32 60 39 309 13 440 -15 78 -16 92 -4 87 10 -4 12 0 8 11 -3 8 -6
25 -6 35 0 11 -4 17 -10 14 -5 -3 -10 1 -10 9 0 25 34 23 61 -4 45 -44 72
-110 100 -245 23 -115 27 -127 37 -104 6 15 24 33 40 40 18 7 34 25 41 44 9
26 20 34 64 48 30 9 85 17 123 17 38 0 86 4 107 9 46 11 87 46 87 75 1 38 37
103 68 122 17 9 33 26 35 36 3 10 13 21 24 25 10 3 32 21 49 39 l31 32 76 -16
c59 -13 80 -23 97 -44z m-1019 -22 c5 3 9 1 9 -5 0 -9 -31 -31 -44 -31 -3 0
-6 10 -6 23 0 12 -7 31 -15 41 -27 36 -15 37 16 1 17 -19 35 -32 40 -29z m104
1 c-8 -4 -15 -16 -16 -25 0 -13 -3 -12 -11 5 -6 12 -8 29 -5 38 6 13 10 13 27
3 16 -10 17 -14 5 -21z m-838 -33 c-3 -3 -12 -4 -19 -1 -8 3 -5 6 6 6 11 1 17
-2 13 -5z m-107 -164 c0 -13 -7 -20 -20 -20 -22 0 -23 1 -14 24 9 23 34 20 34
-4z m3814 -161 c-5 -9 1 -10 20 -5 16 4 26 2 26 -4 0 -6 -4 -9 -9 -5 -5 3 -12
1 -16 -5 -3 -5 -2 -10 3 -10 13 0 23 -73 12 -84 -12 -12 -13 -79 -3 -90 4 -4
8 -14 8 -22 0 -7 2 -13 5 -13 3 0 24 -7 47 -16 35 -14 66 -16 178 -12 131 5
137 4 160 -18 29 -26 31 -35 10 -35 -8 0 -15 5 -15 10 0 19 -138 12 -182 -10
-23 -11 -45 -20 -49 -20 -4 0 -9 9 -12 20 -6 22 -41 27 -67 10 -11 -7 -6 -10
19 -10 26 0 32 -3 24 -11 -7 -7 -64 -13 -145 -15 -73 -1 -142 -6 -152 -10 -12
-5 -21 -3 -24 4 -2 6 -9 9 -16 6 -8 -3 -16 2 -19 10 -9 23 -24 20 -31 -6 -6
-22 -7 -22 -20 -5 -13 17 -12 23 5 53 10 19 19 45 19 59 0 13 11 32 25 43 14
11 24 25 23 31 -2 6 17 21 42 35 27 14 46 32 48 44 2 11 12 28 23 38 10 9 19
24 19 33 0 14 2 14 10 1 8 -13 10 -12 10 3 0 9 7 17 16 17 9 0 12 -5 8 -11z
m-3267 -101 c-3 -8 -6 -5 -6 6 -1 11 2 17 5 13 3 -3 4 -12 1 -19z m-652 -18
c-16 -17 -82 -69 -147 -116 -64 -46 -131 -99 -148 -117 -21 -22 -30 -27 -30
-16 0 21 59 85 86 93 12 4 33 17 48 31 35 32 202 152 215 154 3 1 -8 -13 -24
-29z m-370 10 c3 -5 1 -10 -4 -10 -6 0 -11 5 -11 10 0 6 2 10 4 10 3 0 8 -4
11 -10z m152 -68 c-31 -31 -57 -53 -57 -49 0 13 102 118 109 112 3 -3 -21 -31
-52 -63z m-240 36 c-3 -8 -6 -5 -6 6 -1 11 2 17 5 13 3 -3 4 -12 1 -19z m477
-103 c-10 -8 -23 -15 -28 -15 -6 0 -1 7 10 15 10 8 23 15 28 15 6 0 1 -7 -10
-15z m-59 -41 c-11 -9 -31 -21 -45 -28 -53 -24 -168 -108 -173 -127 -3 -10
-20 -26 -39 -34 -18 -8 -27 -14 -19 -15 8 0 19 -7 26 -16 6 -9 32 -18 59 -21
33 -4 46 -10 42 -19 -3 -7 3 -14 12 -16 9 -2 -25 -7 -77 -11 -52 -5 -103 -13
-113 -18 -17 -9 -19 -8 -14 8 3 10 10 42 16 71 11 60 16 72 32 72 6 0 18 8 27
18 9 9 24 18 34 20 9 2 66 32 125 67 100 61 152 84 107 49z m575 -5 c0 -6 -4
-7 -10 -4 -5 3 -10 11 -10 16 0 6 5 7 10 4 6 -3 10 -11 10 -16z m16 -110 c3
-30 9 -81 15 -114 11 -74 11 -75 0 -75 -14 0 -24 49 -26 125 -1 39 -5 86 -9
105 -6 27 -5 32 4 24 6 -6 14 -36 16 -65z m2829 -25 c-5 -67 -15 -67 -15 0 0
33 4 55 9 51 6 -3 8 -26 6 -51z m325 17 c0 -6 -4 -13 -10 -16 -5 -3 -10 1 -10
9 0 9 5 16 10 16 6 0 10 -4 10 -9z m-3903 -47 c-3 -3 -12 -4 -19 -1 -8 3 -5 6
6 6 11 1 17 -2 13 -5z m270 -30 c-3 -3 -12 -4 -19 -1 -8 3 -5 6 6 6 11 1 17
-2 13 -5z m113 -14 c102 -20 260 -66 320 -94 35 -16 57 -22 61 -15 3 6 8 -3
11 -20 2 -17 1 -31 -4 -31 -4 0 -8 4 -8 8 0 5 -19 16 -42 26 -24 10 -56 24
-73 31 -49 21 -225 73 -292 86 -35 6 -63 15 -63 20 0 5 6 7 13 5 6 -2 41 -10
77 -16z m4456 2 c36 -30 42 -52 33 -132 -4 -41 -8 -86 -9 -100 -2 -31 -81
-100 -115 -100 -33 0 -45 27 -45 105 0 36 -5 87 -12 113 -9 35 -9 47 0 50 7 2
12 10 12 17 0 22 59 65 88 65 15 -1 36 -9 48 -18z m-4751 -72 c3 -5 1 -10 -4
-10 -6 0 -11 5 -11 10 0 6 2 10 4 10 3 0 8 -4 11 -10z m135 -10 c0 -5 -4 -10
-9 -10 -6 0 -13 5 -16 10 -3 6 1 10 9 10 9 0 16 -4 16 -10z m110 -6 c0 -11
-28 -33 -34 -27 -13 13 -5 33 14 33 11 0 20 -3 20 -6z m148 -33 c31 -22 98
-51 104 -45 2 2 28 4 56 5 45 2 57 -2 82 -26 23 -22 30 -25 30 -12 0 8 5 19
10 22 6 4 10 -15 10 -49 l0 -55 -48 28 c-26 15 -86 40 -132 55 -85 27 -119 40
-152 57 -10 5 -27 9 -38 9 -11 0 -20 7 -20 15 0 22 66 19 98 -4z m-597 -126
c-11 -91 -42 -178 -55 -156 -4 5 -2 12 4 16 6 4 7 11 4 17 -24 39 -7 202 25
240 16 18 16 18 25 -2 6 -13 5 -56 -3 -115z m-167 -47 c3 -29 5 -69 5 -88 l-2
-35 -7 40 c-19 100 -22 135 -13 135 6 0 13 -24 17 -52z m18 -173 c3 -14 1 -25
-3 -25 -5 0 -9 11 -9 25 0 14 2 25 4 25 2 0 6 -11 8 -25z m5 -77 c-3 -7 -5 -2
-5 12 0 14 2 19 5 13 2 -7 2 -19 0 -25z m3073 -258 c0 -36 -48 -74 -86 -69 -4
0 -10 -3 -13 -8 -8 -11 -38 -29 -93 -55 -26 -13 -46 -28 -44 -34 3 -6 -7 -17
-20 -23 -35 -16 -40 -14 -20 8 9 10 14 25 11 34 -5 11 2 17 22 21 15 4 55 20
88 36 32 16 63 26 67 24 4 -3 22 15 40 41 35 49 48 56 48 25z m-2110 -21 c0
-6 -4 -7 -10 -4 -5 3 -10 11 -10 16 0 6 5 7 10 4 6 -3 10 -11 10 -16z m1271 8
c-6 -8 -8 -17 -4 -21 4 -4 0 -4 -10 0 -11 4 -19 0 -23 -10 -3 -9 -11 -13 -16
-10 -6 4 3 17 18 30 32 25 53 32 35 11z m86 -53 c-3 -3 -12 -4 -19 -1 -8 3 -5
6 6 6 11 1 17 -2 13 -5z m770 -30 c-3 -3 -12 -4 -19 -1 -8 3 -5 6 6 6 11 1 17
-2 13 -5z m-1900 -60 c-3 -3 -12 -4 -19 -1 -8 3 -5 6 6 6 11 1 17 -2 13 -5z
m1443 -60 c0 -2 -7 -4 -15 -4 -8 0 -15 4 -15 10 0 5 7 7 15 4 8 -4 15 -8 15
-10z m307 -6 c23 -26 35 -74 19 -76 -6 -1 -24 -4 -41 -7 l-30 -5 27 11 c35 13
41 33 18 54 -17 15 -21 16 -41 2 -24 -18 -50 -12 -42 9 8 21 -13 17 -35 -6
-20 -22 -99 -53 -113 -44 -5 3 -9 1 -9 -5 0 -5 -9 -13 -20 -16 -11 -4 -18 -10
-15 -15 5 -7 -13 -24 -76 -73 -16 -11 -39 -17 -70 -16 -25 1 -51 -1 -58 -5 -6
-4 -35 -12 -64 -17 -28 -5 -71 -13 -94 -18 -26 -5 -43 -4 -43 2 0 5 -7 7 -15
3 -8 -3 -15 -1 -15 4 0 6 -7 10 -15 10 -8 0 -15 -4 -15 -10 0 -5 -5 -10 -11
-10 -21 0 4 21 54 45 55 27 111 39 251 55 73 8 100 16 155 47 193 109 256 126
298 81z m-10 -234 c-3 -3 -12 -4 -19 -1 -8 3 -5 6 6 6 11 1 17 -2 13 -5z"/>
<path d="M2008 4193 c7 -3 16 -2 19 1 4 3 -2 6 -13 5 -11 0 -14 -3 -6 -6z"/>
<path d="M2143 3996 c-27 -12 -33 -21 -33 -46 0 -25 4 -30 24 -30 13 0 26 -6
28 -12 6 -16 253 -22 277 -8 10 6 11 10 4 10 -7 0 -13 6 -13 13 0 8 -19 20
-42 27 -24 7 -56 22 -72 33 -38 27 -128 33 -173 13z"/>
<path d="M1930 3900 c0 -5 7 -10 15 -10 8 0 15 5 15 10 0 6 -7 10 -15 10 -8 0
-15 -4 -15 -10z"/>
<path d="M1623 3571 c-8 -12 -9 -29 -3 -47 8 -28 8 -29 10 -4 1 14 3 35 6 48
5 27 2 28 -13 3z"/>
<path d="M1672 3540 c0 -14 2 -19 5 -12 2 6 2 18 0 25 -3 6 -5 1 -5 -13z"/>
<path d="M1671 3494 c0 -11 3 -14 6 -6 3 7 2 16 -1 19 -3 4 -6 -2 -5 -13z"/>
<path d="M1490 3156 c0 -18 10 -25 26 -19 20 7 17 20 -6 26 -12 3 -20 0 -20
-7z"/>
<path d="M1060 2585 c-14 -8 -20 -14 -15 -14 6 0 21 6 35 14 14 8 21 14 15 14
-5 0 -21 -6 -35 -14z"/>
<path d="M950 2540 c-72 -38 -60 -38 21 0 35 16 57 29 49 29 -8 0 -40 -13 -70
-29z"/>
<path d="M778 2423 c-70 -68 -137 -153 -120 -153 5 0 24 21 42 48 19 26 63 75
99 110 36 34 62 62 57 62 -4 0 -39 -30 -78 -67z"/>
<path d="M1550 2300 c0 -11 6 -20 14 -20 9 0 12 7 9 20 -3 11 -9 20 -14 20 -5
0 -9 -9 -9 -20z"/>
<path d="M1040 2240 c0 -5 5 -10 10 -10 6 0 10 5 10 10 0 6 -4 10 -10 10 -5 0
-10 -4 -10 -10z"/>
<path d="M980 2220 c0 -5 5 -10 10 -10 6 0 10 5 10 10 0 6 -4 10 -10 10 -5 0
-10 -4 -10 -10z"/>
<path d="M616 2203 c-6 -14 -5 -15 5 -6 7 7 10 15 7 18 -3 3 -9 -2 -12 -12z"/>
<path d="M607 2103 c-4 -3 -7 -11 -7 -17 0 -6 5 -5 12 2 6 6 9 14 7 17 -3 3
-9 2 -12 -2z"/>
<path d="M849 2073 c-13 -17 -13 -17 6 -3 11 8 22 16 24 17 2 2 0 3 -6 3 -6 0
-17 -8 -24 -17z"/>
<path d="M570 2055 c-6 -8 -10 -19 -8 -26 2 -6 9 0 16 15 13 29 10 33 -8 11z"/>
<path d="M791 2039 c-13 -11 -21 -22 -18 -25 6 -7 56 27 57 39 0 12 -14 7 -39
-14z"/>
<path d="M1880 2240 c0 -8 5 -22 10 -30 9 -13 10 -13 10 0 0 8 -5 22 -10 30
-9 13 -10 13 -10 0z"/>
<path d="M2973 2176 c-18 -12 -33 -26 -33 -31 0 -6 -9 -27 -20 -48 -11 -20
-20 -45 -20 -56 0 -23 -19 -31 -70 -31 -21 0 -43 -6 -50 -15 -7 -8 -28 -15
-46 -15 -22 0 -34 -5 -34 -14 0 -19 -86 -103 -137 -133 -24 -14 -43 -30 -43
-37 0 -7 18 -32 40 -56 l40 -43 111 -8 c126 -9 229 -27 229 -40 0 -5 8 -9 18
-9 10 0 22 -4 27 -9 26 -25 190 -34 245 -14 8 3 23 6 34 7 16 1 19 10 20 88 1
55 -3 89 -10 92 -6 2 -21 37 -33 76 -16 48 -29 74 -41 77 -12 3 -16 11 -13 24
3 10 2 34 -1 53 -6 29 -14 37 -57 55 -40 18 -51 27 -56 52 -3 17 -13 33 -22
36 -9 2 -23 8 -31 12 -9 5 -27 0 -47 -13z"/>
<path d="M2225 1808 c-22 -6 -45 -17 -52 -24 -7 -7 -17 -14 -22 -16 -5 -1 -12
-32 -16 -68 -7 -61 -6 -64 10 -50 15 13 19 12 36 -9 11 -14 19 -18 19 -10 0
12 2 12 9 1 6 -10 10 -8 14 9 5 19 9 21 19 11 14 -14 54 -16 62 -3 3 4 -1 17
-9 27 -17 23 -19 51 -4 56 6 2 12 22 13 43 1 46 -11 51 -79 33z"/>
<path d="M1910 1751 c0 -6 5 -13 10 -16 6 -3 10 1 10 9 0 9 -4 16 -10 16 -5 0
-10 -4 -10 -9z"/>
<path d="M5035 1650 c-3 -5 -1 -10 4 -10 6 0 11 5 11 10 0 6 -2 10 -4 10 -3 0
-8 -4 -11 -10z"/>
<path d="M2498 63 c7 -3 16 -2 19 1 4 3 -2 6 -13 5 -11 0 -14 -3 -6 -6z"/>
</g>
</svg>
