<?xml version="1.0" standalone="no"?>
<!DOCTYPE svg PUBLIC "-//W3C//DTD SVG 20010904//EN"
 "http://www.w3.org/TR/2001/REC-SVG-20010904/DTD/svg10.dtd">
<svg version="1.0" xmlns="http://www.w3.org/2000/svg"
 width="678.000000pt" height="452.000000pt" viewBox="0 0 678.000000 452.000000"
 preserveAspectRatio="xMidYMid meet">
<metadata>
Created by potrace 1.15, written by Peter Selinger 2001-2017
</metadata>
<g transform="translate(0.000000,452.000000) scale(0.100000,-0.100000)"
fill="#000000" stroke="none">
<path d="M4495 4463 c-11 -3 -29 -12 -40 -19 -11 -8 -30 -14 -43 -14 -16 0
-22 -5 -20 -17 2 -15 -3 -18 -29 -15 -18 1 -33 -2 -33 -8 0 -5 -16 -12 -35
-16 -19 -3 -38 -10 -41 -15 -3 -5 -10 -6 -16 -3 -6 4 -8 2 -4 -4 3 -6 -2 -13
-12 -16 -10 -3 -26 -19 -35 -36 -10 -16 -24 -30 -30 -30 -7 0 -26 -15 -44 -32
-17 -18 -38 -38 -46 -44 -18 -15 -15 -171 4 -201 12 -20 14 -19 35 27 12 26
37 59 55 72 42 31 126 78 140 78 6 0 25 6 42 14 38 17 169 36 286 42 108 5
272 -6 265 -17 -3 -5 -16 -9 -30 -9 -31 0 -31 -20 1 -58 14 -17 30 -44 36 -61
10 -29 29 -43 29 -21 0 6 -5 10 -11 10 -5 0 -7 5 -3 11 5 8 9 8 14 -1 4 -7 19
-13 34 -13 14 -1 26 -8 26 -15 0 -7 4 -10 10 -7 5 3 19 1 31 -6 15 -8 19 -8
15 0 -4 6 -4 11 -1 11 10 0 35 -27 29 -32 -3 -3 9 -8 26 -11 16 -4 30 -13 30
-21 0 -7 14 -29 31 -47 23 -24 27 -34 17 -40 -9 -6 -10 -9 -1 -9 7 0 20 -25
29 -55 19 -60 38 -74 30 -22 -3 17 -8 56 -11 85 -7 63 -57 229 -88 289 -24 49
-83 115 -143 161 -89 68 -400 150 -425 111 -6 -10 -9 -11 -9 -1 0 12 -27 14
-65 5z"/>
<path d="M6305 3933 c-11 -3 -24 -9 -29 -14 -6 -5 -51 -9 -101 -9 -114 0 -129
-11 -120 -86 3 -27 7 -71 9 -98 5 -62 16 -73 55 -56 39 16 121 5 121 -16 0 -8
4 -14 8 -14 5 0 14 -11 20 -25 9 -19 19 -25 42 -25 46 0 60 32 71 162 4 62 11
125 15 140 5 24 2 29 -21 38 -27 10 -37 11 -70 3z"/>
<path d="M4558 3765 c-59 -22 -120 -61 -171 -110 -26 -24 -47 -47 -47 -50 0
-2 20 -10 44 -16 25 -6 59 -24 76 -39 43 -38 143 -52 233 -31 42 10 117 63 98
69 -9 3 -9 7 1 19 11 14 10 15 -11 8 -15 -4 -21 -4 -17 3 3 6 24 13 46 17 26
4 41 13 45 26 8 23 -1 39 -21 39 -8 0 -14 8 -14 19 0 29 -21 40 -96 51 -89 13
-121 12 -166 -5z"/>
<path d="M5216 3711 c-12 -13 -15 -27 -11 -41 6 -19 5 -21 -13 -11 -12 6 -23
11 -26 11 -12 0 -6 -43 10 -76 9 -19 14 -43 11 -54 -6 -25 2 -26 19 -2 12 16
13 16 26 -1 13 -17 15 -17 27 -3 13 16 11 67 -4 114 -6 17 -4 21 7 17 21 -8
38 -49 39 -93 l1 -37 10 40 c11 45 4 121 -13 141 -17 20 -63 17 -83 -5z"/>
<path d="M4164 3651 c-42 -11 -50 -17 -68 -53 -21 -41 -21 -42 12 -24 31 17
94 38 99 33 1 -2 -8 -10 -22 -17 -27 -14 -33 -30 -12 -30 8 0 7 -4 -3 -10 -8
-5 -11 -10 -6 -10 5 0 -3 -11 -17 -24 -32 -30 -26 -56 12 -56 15 0 38 -5 52
-12 25 -12 25 -12 6 -31 -25 -25 -16 -31 27 -17 41 13 116 91 116 120 0 35
-29 68 -65 74 -26 5 -35 12 -35 27 0 12 -10 23 -26 29 -28 11 -26 11 -70 1z"/>
<path d="M1561 3548 c-26 -12 -73 -22 -120 -24 -42 -3 -95 -10 -118 -16 -38
-9 -44 -15 -60 -57 -9 -25 -21 -49 -25 -52 -11 -8 -29 -155 -21 -176 16 -44
89 -133 109 -133 7 0 19 -6 26 -12 18 -17 79 -38 111 -38 35 0 73 37 82 80 7
36 40 80 60 80 16 0 95 69 95 84 0 31 99 132 139 141 89 19 52 104 -58 135
-60 17 -171 11 -220 -12z"/>
<path d="M593 3546 c-68 -25 -126 -110 -158 -232 -21 -80 -19 -90 16 -148 37
-59 55 -75 87 -76 13 0 22 -6 22 -15 0 -8 5 -15 10 -15 18 0 60 32 60 45 0 28
77 86 89 67 6 -11 81 51 81 67 0 5 7 14 14 21 8 6 20 28 27 48 6 20 19 44 28
52 21 20 67 40 91 40 27 0 60 30 60 55 0 27 -27 65 -46 65 -8 0 -14 4 -14 8 0
29 -298 43 -367 18z"/>
<path d="M4618 3406 c5 -47 -7 -53 -120 -55 -54 -1 -92 -28 -81 -58 5 -12 2
-15 -10 -10 -11 4 -17 1 -17 -8 0 -12 -8 -14 -40 -9 -44 7 -57 -10 -15 -20 18
-5 25 -13 25 -30 0 -35 63 -45 122 -18 24 10 56 22 71 26 16 4 48 25 73 48
l44 41 40 -18 c45 -20 47 -24 23 -54 -14 -17 -33 -23 -88 -27 -111 -8 -159
-22 -180 -50 -11 -14 -20 -32 -21 -39 -2 -15 54 -27 62 -13 3 4 20 8 39 8 18
0 35 5 37 12 3 7 12 9 22 5 13 -5 15 -13 10 -29 -6 -21 -6 -21 17 -7 13 9 36
19 51 22 14 4 33 10 41 13 12 4 14 0 10 -14 -2 -11 0 -23 6 -26 6 -4 11 1 11
11 0 10 9 36 19 57 11 21 17 44 14 52 -3 8 0 14 6 14 12 0 15 -42 4 -54 -4 -4
-9 -17 -10 -31 -7 -47 -30 -100 -46 -103 -11 -2 -17 3 -17 14 0 14 -3 15 -12
6 -7 -7 -18 -12 -26 -12 -27 0 -100 -42 -112 -65 -7 -13 -21 -26 -31 -28 -25
-7 -24 -33 2 -40 14 -4 19 -12 17 -24 -2 -11 7 -26 26 -40 16 -13 26 -23 22
-23 -5 0 -3 -7 4 -15 11 -13 10 -18 -5 -29 -13 -9 -15 -15 -7 -20 7 -4 17 -4
23 0 6 3 23 -7 38 -23 15 -16 34 -34 42 -39 9 -5 28 -28 43 -52 15 -24 33 -45
41 -49 8 -3 15 -11 15 -19 0 -8 4 -14 10 -14 8 0 40 -51 40 -65 0 -3 -7 -5
-15 -5 -19 0 -19 -4 0 -40 9 -17 15 -33 15 -37 1 -18 76 -7 100 14 14 12 40
36 58 52 17 16 32 27 32 24 0 -3 9 5 19 18 37 46 30 12 -18 -87 -26 -54 -57
-128 -69 -164 -53 -166 -55 -181 -56 -340 l-1 -155 43 -86 c24 -48 52 -95 63
-104 23 -22 28 -55 4 -35 -24 20 -19 -13 5 -35 19 -17 29 -76 13 -74 -20 3
-24 -2 -14 -15 9 -11 8 -17 -9 -29 -13 -9 -18 -20 -14 -31 4 -10 1 -16 -9 -16
-24 0 -32 -22 -14 -35 15 -11 15 -14 -4 -31 -11 -10 -18 -26 -16 -36 4 -14 -1
-18 -21 -19 -15 -1 -33 -1 -39 0 -19 3 -16 -32 5 -50 9 -8 29 -14 44 -12 15 1
30 -2 33 -8 4 -5 25 -9 48 -9 54 0 37 -19 -24 -27 -24 -3 -46 -9 -49 -14 -3
-4 -23 -9 -45 -11 -26 -2 -50 -12 -67 -28 -28 -27 -42 -67 -20 -62 6 1 12 -2
12 -8 0 -5 -4 -10 -10 -10 -15 0 -12 -32 5 -54 8 -11 15 -27 15 -37 0 -18 36
-33 46 -18 6 11 34 12 34 2 -1 -25 -23 -37 -76 -40 -68 -4 -78 -10 -68 -48 l7
-27 75 6 c104 9 262 57 314 95 26 20 59 33 90 37 78 11 83 18 65 100 -19 85
-24 135 -13 152 4 7 30 12 68 12 70 0 194 28 288 65 89 35 252 75 325 79 33 2
80 12 105 22 l44 18 -29 8 c-60 16 -446 -47 -558 -91 -12 -5 -53 -19 -92 -31
-77 -25 -166 -67 -177 -84 -11 -17 -18 12 -21 99 -2 44 -14 125 -26 180 -12
55 -27 124 -33 153 -7 31 -14 48 -19 41 -4 -8 -10 3 -14 27 -4 21 -22 93 -40
159 -48 172 -83 538 -57 599 7 17 15 51 18 75 3 25 14 57 25 72 10 15 19 32
19 38 0 6 4 11 9 11 6 0 18 13 27 29 10 17 21 28 25 25 14 -8 39 8 39 26 0 20
41 35 51 19 3 -6 10 -4 18 5 9 11 9 15 -1 19 -7 2 -1 8 14 12 23 6 25 10 16
25 -9 14 -8 21 5 34 8 9 19 25 22 36 3 11 13 20 21 20 21 0 17 18 -7 25 -20 7
-59 -20 -95 -64 -10 -12 -13 -11 -23 7 -6 11 -11 34 -11 51 0 16 -4 31 -8 33
-4 2 -19 18 -32 37 -22 32 -30 69 -32 154 -1 22 -6 27 -27 28 -67 3 -121 -9
-121 -27 0 -24 -33 -12 -47 16 -7 14 -13 39 -13 55 -1 61 -43 148 -90 187 -30
25 -38 27 -94 21 -54 -5 -69 -2 -114 21 -28 14 -55 26 -60 26 -4 0 -6 -15 -4
-34z"/>
<path d="M6261 3203 c-7 -21 -15 -83 -17 -138 -4 -129 -8 -145 -38 -145 -14 0
-27 9 -34 23 -8 17 -11 0 -11 -83 0 -67 3 -98 9 -85 5 11 9 31 9 43 1 37 25
20 33 -24 4 -21 7 -61 7 -87 2 -99 36 -175 88 -191 47 -15 62 46 63 246 1 140
-7 188 -40 259 -9 19 -9 40 -3 75 6 27 8 70 6 97 -5 43 -7 47 -32 47 -21 0
-29 -7 -40 -37z"/>
<path d="M713 3023 c-7 -2 -13 -11 -13 -19 0 -8 -4 -14 -8 -14 -16 0 -32 -50
-26 -82 12 -81 28 -139 41 -149 7 -6 13 -19 13 -29 0 -9 9 -25 20 -35 11 -10
20 -14 20 -8 0 12 87 73 105 73 8 0 15 5 15 10 0 6 17 18 38 28 72 33 91 72
45 89 -10 3 -25 13 -34 22 -26 26 -59 51 -65 51 -3 0 -18 9 -33 19 -15 11 -34
21 -42 23 -8 2 -16 6 -19 9 -8 10 -44 18 -57 12z"/>
<path d="M1659 2931 c-46 -29 -59 -48 -59 -89 0 -36 4 -43 38 -63 20 -12 74
-32 119 -44 l81 -21 5 25 c3 14 10 43 15 64 6 22 6 37 1 37 -5 0 -12 7 -16 16
-8 23 -52 64 -66 64 -7 0 -17 4 -22 9 -18 17 -70 18 -96 2z"/>
<path d="M3970 2835 c-25 -27 -26 -27 -117 -20 l-93 6 0 -50 c0 -46 3 -52 29
-66 16 -8 35 -20 43 -27 12 -12 93 -38 128 -42 8 0 22 16 32 37 10 20 22 37
26 37 4 0 16 13 25 30 25 42 14 100 -18 100 -13 0 -25 5 -27 11 -2 5 -15 -2
-28 -16z"/>
<path d="M5740 2769 c81 -32 217 -109 246 -139 162 -166 297 -424 381 -730 8
-30 16 -56 18 -58 3 -3 42 12 148 56 43 18 64 50 69 106 3 37 2 39 -42 52 -25
8 -80 17 -122 21 -55 4 -78 10 -79 19 -4 43 -17 58 -36 43 -12 -11 -14 -10
-12 2 1 7 -5 32 -14 53 -10 22 -20 51 -24 65 -14 58 -95 210 -145 272 -29 37
-76 83 -103 104 -28 21 -52 41 -55 45 -3 3 -22 14 -43 24 -22 10 -35 22 -31
28 5 7 2 8 -5 3 -8 -4 -21 1 -32 14 -11 12 -25 21 -32 21 -7 0 -6 -4 3 -10 13
-8 13 -10 -2 -10 -9 0 -23 7 -32 15 -8 8 -30 15 -48 14 -32 0 -32 -1 -8 -10z"/>
<path d="M3908 2538 c-21 -20 -58 -35 -120 -48 -31 -6 -68 -20 -81 -31 -14
-10 -32 -19 -39 -19 -8 0 -24 -10 -36 -23 l-21 -23 27 -31 c47 -53 63 -57 127
-26 31 14 62 34 68 45 7 10 17 18 23 18 6 0 19 9 29 20 10 11 26 20 35 20 10
0 25 11 34 24 12 20 13 31 5 55 -12 33 -29 39 -51 19z"/>
<path d="M115 2405 c-5 -2 -23 -6 -38 -10 -26 -5 -28 -9 -22 -33 11 -41 6
-113 -10 -129 -29 -28 -45 -114 -45 -232 1 -117 7 -140 41 -153 34 -13 31 -60
-12 -238 -22 -89 -28 -185 -22 -340 1 -25 -1 -82 -3 -128 -5 -78 8 -142 28
-142 11 0 145 -137 152 -155 9 -25 36 -18 36 9 0 14 4 28 10 31 5 3 10 31 10
62 0 54 10 84 58 181 9 17 21 32 26 32 5 0 14 8 21 17 11 15 15 15 29 4 9 -7
13 -17 10 -22 -3 -5 6 -21 20 -36 15 -16 28 -45 32 -72 6 -38 4 -47 -15 -62
-11 -9 -21 -21 -21 -26 0 -6 -18 -29 -40 -53 -22 -24 -40 -48 -40 -53 0 -5
-11 -19 -25 -31 -17 -15 -23 -27 -19 -44 4 -12 10 -22 15 -22 5 0 9 -13 9 -28
0 -16 3 -31 6 -35 4 -3 8 -24 9 -46 2 -29 12 -50 34 -73 17 -18 31 -38 31 -43
0 -6 10 -18 23 -27 22 -17 49 -65 98 -175 13 -29 27 -53 30 -53 4 0 9 -8 13
-17 3 -10 19 -40 35 -68 38 -65 71 -131 71 -144 0 -6 5 -11 10 -11 6 0 10 -9
10 -20 0 -19 7 -20 185 -20 l185 0 0 71 c0 76 -13 114 -36 105 -7 -3 -18 3
-23 13 -7 13 -18 17 -36 14 -19 -4 -25 -1 -25 13 0 13 -16 26 -52 42 -78 34
-81 36 -103 73 -21 36 -27 131 -12 202 6 30 5 37 -8 37 -9 0 -18 7 -21 15 -4
8 -15 15 -25 15 -10 0 -19 4 -19 9 0 5 -9 12 -19 16 -10 3 -21 17 -24 31 -3
20 1 27 18 34 13 5 26 14 30 19 9 16 107 13 130 -4 10 -9 19 -28 20 -43 0 -20
6 -28 23 -30 12 -2 22 -8 22 -13 0 -5 6 -9 14 -9 33 0 65 -41 76 -98 6 -31 15
-65 20 -74 6 -10 10 -25 10 -33 0 -8 4 -15 10 -15 14 0 42 104 49 179 4 43 11
66 21 71 8 4 30 15 48 25 26 13 46 16 83 11 l50 -7 16 38 c9 21 16 48 15 61
-2 30 15 62 33 62 7 0 15 4 17 8 2 5 19 7 39 5 29 -4 38 -10 47 -37 20 -53 15
-101 -13 -134 -28 -33 -29 -42 -15 -86 5 -17 16 -65 25 -106 8 -41 23 -118 34
-170 11 -52 22 -126 26 -165 3 -38 8 -87 11 -107 l6 -38 139 0 c76 0 139 4
139 9 0 36 32 303 40 332 13 46 53 68 80 44 19 -17 20 -22 71 -242 l34 -143
150 0 150 0 -1 208 c0 114 2 221 4 238 5 40 61 101 127 139 61 35 188 165 215
221 l20 40 -33 75 c-17 41 -34 76 -37 79 -3 3 -20 46 -39 95 -18 50 -39 104
-46 120 -7 17 -19 59 -25 94 -13 71 -38 100 -127 147 -7 3 -29 -10 -49 -30
-20 -20 -42 -36 -48 -37 -6 0 -24 -3 -41 -5 -38 -7 -30 -7 -160 11 -150 21
-485 5 -585 -27 -19 -6 -43 -11 -55 -12 -16 -1 -21 -9 -23 -45 -3 -42 27 -149
49 -177 6 -7 0 -31 -17 -63 -21 -44 -28 -67 -33 -112 -1 -10 -50 -8 -99 3 -32
8 -44 16 -48 34 -4 14 -17 33 -30 43 -13 10 -24 23 -24 28 0 4 -14 19 -31 33
-17 14 -36 30 -43 35 -21 18 -86 45 -86 35 0 -21 -40 1 -78 43 -9 9 -20 17
-24 17 -13 0 -108 71 -108 81 0 5 -6 9 -14 9 -8 0 -16 6 -19 13 -2 7 -23 22
-46 32 -32 16 -44 28 -53 58 -6 20 -14 37 -18 37 -5 0 -11 11 -14 24 -3 14
-15 27 -26 31 -11 3 -27 22 -36 41 -10 20 -24 34 -34 34 -20 0 -60 44 -60 66
0 8 -16 20 -35 28 -19 8 -35 20 -35 25 0 6 -9 11 -20 11 -11 0 -20 7 -20 15 0
8 -4 15 -10 15 -16 0 -12 17 17 76 24 49 29 54 60 54 38 0 39 2 17 35 -18 27
-58 34 -67 11 -5 -13 -61 -46 -78 -46 -5 0 -4 12 1 26 13 33 13 65 1 45 -9
-14 -86 -32 -96 -23 -3 3 -5 34 -5 68 0 35 -4 65 -9 68 -11 7 -62 103 -59 113
0 5 -1 15 -5 23 -10 27 -19 94 -20 153 -1 54 -5 61 -32 52z"/>
<path d="M640 2252 c0 -7 -11 -14 -25 -18 -14 -3 -25 -10 -25 -16 0 -5 -4 -7
-9 -3 -5 3 -12 1 -16 -5 -3 -5 -16 -10 -27 -10 -20 0 -20 -1 -3 -20 9 -10 22
-18 28 -17 7 1 13 -7 15 -19 1 -11 16 -28 32 -38 17 -9 30 -23 30 -30 0 -18
46 -40 83 -41 16 0 32 -6 34 -12 3 -9 -6 -13 -25 -13 -40 0 -46 -11 -19 -34
39 -34 50 -66 57 -164 6 -81 9 -96 31 -116 13 -13 32 -32 41 -42 9 -11 23 -24
30 -30 22 -19 62 -67 95 -115 45 -64 60 -76 78 -58 12 11 13 22 5 49 -6 19
-10 49 -10 67 0 37 -21 123 -30 123 -3 0 -6 -12 -7 -27 -2 -71 -4 -83 -13 -83
-5 0 -10 13 -10 29 0 17 -4 33 -10 36 -5 3 -10 1 -10 -5 0 -6 -5 -8 -10 -5 -6
4 -18 1 -26 -6 -12 -9 -18 -9 -27 0 -9 9 -9 14 3 21 8 5 11 12 6 17 -4 4 -12
-1 -18 -11 -10 -17 -12 -16 -24 14 -8 17 -11 42 -8 55 3 14 -1 34 -12 51 -10
15 -20 36 -21 46 -2 11 -10 29 -18 41 -10 14 -13 33 -9 58 6 34 4 37 -13 33
-13 -4 -19 0 -20 14 -1 12 6 22 18 25 23 6 26 47 4 47 -19 0 -19 4 1 42 12 23
13 32 4 38 -7 4 -15 29 -17 55 -6 52 -28 69 -49 40 -12 -16 -16 -17 -26 -4
-25 28 -58 52 -58 41z"/>
<path d="M2047 2174 c-15 -23 -27 -54 -27 -68 0 -35 30 -94 71 -137 56 -60
161 -193 173 -219 12 -27 25 -40 42 -40 18 0 27 130 14 202 -6 35 -21 79 -33
98 -13 19 -28 44 -35 55 -6 11 -31 50 -54 88 -42 66 -44 67 -84 65 -35 -3 -44
-8 -67 -44z"/>
<path d="M1360 2113 c0 -17 4 -33 10 -35 5 -1 12 -27 16 -57 3 -29 14 -62 22
-72 16 -18 17 -18 40 9 13 15 31 39 40 54 9 16 31 33 49 39 62 20 48 30 -33
23 l-78 -7 -33 39 -33 39 0 -32z"/>
<path d="M6086 2053 c29 -58 50 -125 70 -230 5 -27 34 -57 45 -46 24 25 17
179 -9 205 -7 7 -7 -2 -1 -28 4 -22 8 -68 7 -104 l-1 -65 -7 72 c-5 40 -16 96
-26 124 -18 48 -85 139 -104 139 -4 0 7 -30 26 -67z"/>
<path d="M3720 1971 c-19 -10 -36 -26 -38 -35 -2 -9 -15 -29 -28 -44 -14 -14
-28 -39 -31 -54 -3 -16 -10 -31 -14 -34 -5 -3 -9 -36 -9 -74 0 -82 13 -95 85
-84 69 10 77 20 78 97 0 37 3 67 6 67 4 0 13 15 20 33 8 17 21 38 28 45 26 27
27 61 2 82 -30 24 -55 25 -99 1z"/>
<path d="M3916 1914 c-3 -8 -10 -12 -16 -9 -5 3 -10 1 -10 -5 0 -6 7 -13 15
-16 8 -4 15 -12 15 -20 0 -7 9 -18 20 -24 11 -6 20 -17 20 -25 0 -8 8 -15 18
-15 23 0 42 -19 42 -42 0 -30 42 -39 100 -22 38 11 50 19 50 34 0 11 -4 20 -9
20 -16 0 -111 80 -111 94 0 7 -8 20 -18 29 -25 23 -107 23 -116 1z"/>
<path d="M5747 1866 c-16 -12 -15 -15 9 -40 15 -14 32 -26 38 -26 6 0 17 -9
23 -19 19 -30 93 -77 228 -146 84 -42 121 -56 115 -44 -6 9 -22 27 -37 38 -16
11 -34 25 -40 31 -7 6 -34 25 -60 42 -27 18 -94 65 -150 105 -56 40 -104 73
-105 73 -2 0 -11 -7 -21 -14z"/>
<path d="M5629 1792 c7 -12 16 -22 21 -22 5 0 7 -6 4 -13 -4 -11 112 -107 131
-107 4 0 27 -13 52 -30 24 -16 50 -30 57 -30 7 0 46 -13 86 -30 40 -16 82 -30
93 -30 21 0 21 0 1 18 -20 19 -136 92 -145 92 -3 0 -37 20 -75 45 -37 25 -73
45 -80 45 -7 0 -14 7 -17 14 -3 8 -22 18 -41 22 -21 3 -36 12 -36 20 0 8 -6
14 -14 14 -8 0 -22 3 -31 7 -15 5 -16 3 -6 -15z"/>
<path d="M6391 1611 c0 -61 -3 -116 -7 -123 -4 -6 -8 -195 -8 -418 -1 -328 -4
-410 -15 -423 -7 -9 -10 -24 -7 -33 5 -12 2 -15 -12 -12 -18 5 -20 -6 -26
-206 -8 -216 -10 -252 -22 -344 l-7 -52 247 0 246 0 0 563 0 563 -55 93 c-30
52 -58 105 -61 120 -12 52 -16 61 -28 61 -7 0 -22 17 -33 37 l-22 38 -10 -25
c-6 -16 -10 -19 -10 -8 -1 9 -4 18 -8 20 -5 2 -21 28 -37 58 -44 84 -108 190
-117 195 -4 3 -8 -44 -8 -104z"/>
<path d="M4105 1488 c-117 -9 -265 -36 -265 -49 0 -4 -24 -10 -52 -14 -65 -9
-135 -41 -149 -67 -6 -11 -8 -22 -5 -25 3 -3 1 -14 -5 -24 -17 -32 1 -87 47
-149 24 -32 44 -63 44 -69 0 -6 3 -11 8 -11 14 0 32 -54 32 -95 0 -24 11 -64
25 -93 14 -29 25 -57 25 -63 0 -15 76 -46 134 -55 40 -5 59 -16 106 -59 80
-74 97 -82 110 -53 10 25 35 158 51 277 6 43 21 96 38 130 38 76 43 112 25
163 -10 28 -15 77 -15 141 1 73 -3 102 -13 113 -8 8 -18 13 -23 12 -4 -1 -57
-5 -118 -10z"/>
<path d="M5998 1108 c-16 -5 -28 -14 -28 -19 0 -5 -6 -9 -13 -9 -8 0 -20 -12
-28 -27 -8 -16 -19 -34 -26 -40 -6 -7 -14 -31 -18 -53 -4 -22 -10 -40 -14 -40
-12 0 -31 -48 -31 -76 0 -14 -8 -36 -17 -51 -19 -28 -30 -193 -14 -193 6 0 6
-13 0 -32 -5 -18 -8 -70 -7 -116 2 -47 -1 -86 -7 -90 -15 -10 -35 -49 -35 -67
0 -8 -5 -15 -11 -15 -12 0 -63 -52 -87 -88 -13 -21 -105 -72 -129 -72 -5 0
-40 -16 -79 -35 -38 -19 -74 -35 -80 -35 -7 0 -15 -7 -18 -16 -3 -9 -15 -14
-28 -12 -11 2 -23 -3 -25 -9 -4 -10 96 -13 474 -13 l480 0 -4 32 c-2 18 -10
78 -18 133 -14 97 -29 256 -40 420 -3 44 -8 114 -10 155 -3 41 -9 84 -14 95
-13 30 -43 136 -47 164 -8 59 -17 97 -26 109 -12 14 -62 15 -100 0z"/>
<path d="M5241 844 c-25 -7 -48 -11 -53 -8 -5 3 -19 -1 -31 -9 -12 -7 -47 -22
-77 -32 -30 -10 -60 -21 -65 -26 -6 -4 -46 -17 -90 -29 -122 -32 -145 -40
-145 -54 0 -26 207 1 310 41 8 4 18 5 23 5 4 -1 7 3 7 8 0 6 13 10 28 10 16 0
39 9 52 20 13 11 26 20 29 20 3 0 18 11 32 24 25 23 26 23 49 6 l24 -18 -43
-51 c-24 -28 -48 -52 -54 -52 -56 -6 -73 -11 -100 -32 -36 -27 -89 -46 -129
-45 -47 1 -139 -13 -181 -28 -23 -8 -55 -12 -72 -9 -26 4 -27 4 -7 -5 12 -5
22 -13 22 -18 0 -20 59 -32 150 -31 52 1 111 0 130 0 45 -2 141 28 160 49 8 9
36 27 62 38 66 31 120 103 113 152 -13 81 -16 90 -36 90 -10 0 -19 -4 -19 -10
0 -12 -37 -13 -42 -1 -1 5 -23 3 -47 -5z"/>
<path d="M3416 731 c-4 -5 -28 -12 -54 -16 -68 -9 -79 -17 -64 -49 6 -14 17
-26 24 -26 7 0 24 -9 38 -20 14 -11 32 -20 41 -20 9 0 28 -9 42 -20 14 -11 38
-20 54 -20 38 0 73 -10 73 -21 0 -5 -7 -9 -15 -9 -8 0 -15 -7 -15 -15 0 -8 4
-15 9 -15 5 0 12 -9 16 -19 4 -13 27 -28 63 -41 58 -22 233 -80 240 -80 3 0 2
16 -1 36 -10 61 -58 97 -72 55 -7 -25 -29 -29 -80 -18 -43 9 -68 25 -60 37 3
5 -8 17 -25 26 -59 35 -28 64 32 30 27 -15 36 -26 32 -38 -7 -23 1 -23 40 1
l31 20 84 -42 c47 -23 89 -51 95 -62 6 -11 16 -23 21 -27 6 -4 2 -8 -7 -8 -25
0 -22 -19 5 -31 17 -7 13 -8 -18 -3 -22 3 -45 10 -51 14 -5 5 -19 7 -30 4 -10
-3 -57 9 -104 25 -47 16 -229 79 -405 139 -176 61 -341 119 -367 129 -46 17
-66 15 -54 -6 4 -5 48 -24 99 -40 252 -83 396 -140 313 -124 -29 6 -30 4 -14
-32 14 -30 20 -31 42 -6 10 11 31 23 46 26 36 8 135 -25 202 -69 29 -18 68
-41 85 -50 37 -19 164 -43 238 -46 46 -1 159 -38 196 -64 40 -28 81 -67 75
-73 -3 -3 -11 -1 -18 4 -7 6 -47 8 -88 6 -117 -7 -190 0 -190 17 0 13 -96 40
-144 40 -36 0 -52 6 -79 30 -19 17 -42 30 -50 30 -9 0 -17 10 -19 21 -2 16
-15 25 -46 35 -24 7 -49 19 -55 27 -7 8 -21 18 -32 21 -16 5 -23 0 -32 -24 -6
-17 -8 -30 -4 -30 5 0 25 -16 45 -36 42 -41 28 -40 -58 3 -38 19 -48 21 -43 9
4 -10 1 -16 -8 -16 -28 0 -8 -62 25 -80 30 -16 34 -7 15 32 -14 28 -14 30 0
13 48 -62 89 -104 97 -99 5 3 7 0 6 -8 -2 -7 3 -12 10 -10 8 1 11 -2 6 -9 -4
-6 11 -28 36 -50 23 -21 39 -43 35 -49 -3 -5 1 -10 9 -10 8 0 18 5 21 10 4 6
11 8 16 5 19 -13 8 35 -16 63 -14 17 -25 39 -25 51 0 25 3 26 35 5 28 -18 31
-13 13 19 -8 15 3 10 38 -18 27 -22 66 -49 87 -59 20 -11 37 -23 37 -28 0 -15
-30 -8 -49 11 -28 28 -57 42 -75 35 -9 -3 -16 -9 -16 -13 0 -12 108 -84 146
-97 57 -20 277 -19 294 1 9 11 9 19 2 28 -9 10 0 20 41 42 29 15 63 31 77 36
23 7 23 7 -7 8 -18 1 -33 5 -33 10 0 13 60 7 68 -6 13 -20 95 -34 182 -31 l85
3 -3 35 c-2 19 4 58 12 85 13 41 14 59 4 102 l-12 51 -46 5 c-61 6 -154 33
-158 46 -2 6 -12 11 -23 11 -11 0 -41 22 -67 49 -42 44 -53 50 -102 56 -57 7
-140 -15 -140 -37 0 -7 -15 -8 -39 -4 -29 4 -40 2 -44 -8 -6 -15 -43 -11 -53
6 -4 6 2 8 15 3 26 -8 28 10 4 24 -17 10 -17 12 2 26 11 8 25 19 32 25 7 5 18
10 25 10 8 0 6 5 -4 11 -27 15 -22 28 18 45 47 20 32 37 -30 36 -40 -1 -49 3
-68 29 -21 29 -26 30 -68 24 -25 -4 -57 -13 -71 -21 -37 -19 -111 -44 -130
-44 -10 0 -31 16 -48 35 -25 29 -34 34 -50 26 -12 -7 -30 -7 -52 -1 -41 12
-37 12 -43 1z"/>
<path d="M5381 594 c-34 -94 -68 -250 -57 -261 8 -8 105 22 128 39 13 10 18
36 22 112 4 91 3 103 -20 147 -13 27 -28 49 -33 49 -5 0 -22 -39 -40 -86z"/>
<path d="M5115 420 c-16 -4 -57 -20 -90 -35 -33 -16 -72 -27 -87 -26 -16 1
-28 -3 -28 -9 0 -7 -8 -9 -20 -5 -11 4 -34 -1 -52 -9 -17 -9 -39 -16 -50 -16
-10 0 -18 -4 -18 -10 0 -5 5 -10 11 -10 6 0 18 -7 26 -16 11 -11 27 -14 49
-11 23 4 31 2 28 -7 -3 -8 7 -10 36 -8 22 2 40 8 40 12 0 5 9 6 20 3 12 -3 28
1 38 9 9 9 31 20 47 25 22 8 29 16 28 31 -2 17 6 24 37 33 22 7 37 15 35 20
-3 4 0 11 6 15 8 4 7 9 -2 15 -16 10 -13 10 -54 -1z"/>
</g>
</svg>
