<?xml version="1.0" encoding="utf-8"?>
<!-- Generator: Adobe Illustrator 18.1.1, SVG Export Plug-In . SVG Version: 6.00 Build 0)  -->
<svg version="1.1" id="Layer_1" xmlns="http://www.w3.org/2000/svg" xmlns:xlink="http://www.w3.org/1999/xlink" x="0px" y="0px"
	 viewBox="0 -67 500 567" enable-background="new 0 -67 500 567" xml:space="preserve">
	<style>
			#arrow{
    animation-name: animateLogo;
    animation-duration: 2.5s;
    animation-iteration-count: infinite;
    animation-direction: alternate;
        transition: ease-in-out;
}
@keyframes animateLogo{
    from{
        transform: translateX(0px) translateY(0px);
        opacity: 0;
    }
    to{
        transform: translateX(0px) TranslateY(213px);
        opacity: 1;
    }
}
	</style>
<path id="container" fill="#98D0EF" d="M500,250C500,112,388,0,250,0S0,112,0,250s112,250,250,250S500,388,500,250z M25,250
	C25,126,126,25,250,25s225,101,225,225S374,475,250,475S25,374,25,250z"/>
<path id="arrow" fill="#98D0EF" d="M261.5,176.5l70-70c5-5,5-12.5,0-17.5S319,84,314,89l-49,49V-49c0-7-5.5-12.5-12.5-12.5
	S240-56,240-49v187l-49-49c-5-5-12.5-5-17.5,0s-5,12.5,0,17.5l70,70c2.5,2.5,5.5,3.5,9,3.5C255.5,180,259,179,261.5,176.5z"/>
</svg>
