<?xml version="1.0" encoding="utf-8"?>
<!-- Generator: Adobe Illustrator 18.1.1, SVG Export Plug-In . SVG Version: 6.00 Build 0)  -->
<svg version="1.1" id="_x38_fc77738-ee79-4216-bfe1-e1f5c470859a"
	 xmlns="http://www.w3.org/2000/svg" xmlns:xlink="http://www.w3.org/1999/xlink" x="0px" y="0px" viewBox="202 5.5 1015.6 783.5"
	 enable-background="new 202 5.5 1015.6 783.5" xml:space="preserve">
<title>online shopping</title>
<path opacity="0.1" fill="#6C63FF" enable-background="new    " d="M839.1,131.8c-42.3,26.7-97.1,25-145.2,11.1
	c-48.1-13.9-92.2-38.7-139-56.3c-39.3-14.8-80.4-24.4-122.1-28.8c-59.7-6.2-126.3,1.3-167.9,44.6c-46.3,48.1-42.8,135,7.3,179.2
	c25.5,22.5,58.8,33.5,87.9,51.1s56,46.7,53.5,80.6c-2.3,31.4-29,55.4-56.5,70.5c-21.3,11.7-47.6,24.4-50.2,48.6
	c-2.5,23.4,19.6,41.7,40.7,52.1c68.8,34,153.6,33.7,222.1-0.9c24.4-12.3,46.9-28.7,72.6-38.3c67.3-25.2,141.5,0.2,212.8,9.5
	c60.5,7.8,122,3.8,181-11.9c35.3-9.4,70.7-23.8,95.5-50.7c17.9-19.3,29-43.8,39.5-68c11.2-25.8,21.9-51.8,32.2-77.9
	c6.2-15.7,12.3-31.7,13.8-48.5c2.9-30.4-9.3-60.5-25.9-86.2c-39.4-61-105.7-103.9-177.5-114.8C942,85.9,866,107.2,810.3,153.8"/>
<ellipse id="desktopShadow2" opacity="0.1" fill="#6C63FF" enable-background="new    " cx="337.7" cy="762.5" rx="135.7" ry="26.5"/>
<ellipse id="desktopShadow" opacity="0.1" fill="#6C63FF" enable-background="new    " cx="741" cy="707" rx="284.5" ry="26.5"/>
<g id="Girl">
	
		<linearGradient id="SVGID_1_" gradientUnits="userSpaceOnUse" x1="439.2054" y1="-27.3454" x2="439.2054" y2="431.6063" gradientTransform="matrix(1 0 0 -1 -92.22 738.71)">
		<stop  offset="0" style="stop-color:#808080;stop-opacity:0.25"/>
		<stop  offset="0.54" style="stop-color:#808080;stop-opacity:0.12"/>
		<stop  offset="1" style="stop-color:#808080;stop-opacity:0.1"/>
	</linearGradient>
	<path fill="url(#SVGID_1_)" d="M450.8,402.2L450.8,402.2l0-0.1l0,0l-0.5-0.4l0.1,0.1c-0.8-0.5-1.8-0.2-2.4,0.5l-0.2,0.3l0,0
		l-12.1,17.5l-2.1,3.1c-6.4-1.9-16.8,6.2-22.1,10.9c-0.3,0.3-0.6,0.6-0.9,0.8c-0.4-0.9-0.7-1.5-0.7-1.5c-0.3,2.9-10.4,7.1-12.7,8.7
		c-1.1,0.6-2.3,1.1-3.5,1.2c0.3-10.9-8.1-22.3-8.1-22.3l-20.5-26.1c-0.8-4.7,0-9.6,2.1-13.9c0.2-0.3,0.3-0.7,0.5-1h0.1
		c-0.8,2.2-1.2,4.5-1.3,6.8c0,1.8,1.7,10.4,4,10c0.5,0,0.9-0.2,1.2-0.6c1.8-2.1,2-5.8,1.9-9.1c0,1-0.1,2-0.3,3
		c0.1-2.8-0.2-5.8-0.2-7.9c0-0.8,0-1.7,0.1-2.5h0.3c0,0.3,0,0.7,0,1c0-0.4,0-0.7,0-1h0.3c4.6-0.8,8.9-2.8,12.5-5.8
		c1.8-0.1,3.5-0.9,4.7-2.2c0.4,1.5,0.1,3.1-0.9,4.3c2.8-0.1,5.1-2.3,6.1-4.8c0.9-2.6,1.2-5.3,0.8-8c-0.4-2.7-0.6-5.4-0.6-8.1
		c0.2-1.5,0.3-2.9,0.2-4.4c0-0.5-0.1-0.9-0.2-1.3h0.1c0.5,0,1-0.2,1.4-0.6c1.1-0.9,1.5-2.6,1.8-3.9c0.8-3,1.1-6.2,1.1-9.3
		c-0.1,1-0.2,1.9-0.3,2.9c0.3-3.6-0.3-7.1-2.6-9.7c-1.6-1.8-3.9-2.8-6.1-3.9c-0.8-0.3-1.5-0.8-2-1.4c-0.4-0.8-0.6-1.6-0.6-2.5
		c-0.8-5.3-5.7-8.9-10.6-11c-6.3-2.8-14-3.9-20.1-0.7c-3,1.6-5.3,4.1-8,6.1c-3.4,2.6-7.3,4.4-10.9,6.6s-7,5.1-8.8,8.9
		c-2.7,6-0.7,12.8-0.3,19.3c0.5,10.3-3.7,21-12,27c-1,0.6-1.9,1.4-2.7,2.3c-0.8,0.9-0.8,2.2-0.2,3.3c0.4,0.6,1.1,0.9,1.6,1.4
		c0.9,1.1,0.8,2.7,0.4,4.1c-1.2,4.5-3.6,8.6-7,11.9c0.2,1.1,1.5,1.5,2.5,1.6c2.8,0.4,5.7,0.6,8.5,0.6h1.2c-0.1,0.3-0.3,0.7-0.4,1
		c-1.6,4.1-3.6,10.4-2.9,14.2c1,6.1,4.2,33.8,2.6,38.6s2.5,40.1,2.5,40.1s0.5,2.7,1.5,6.8c-2.5,5.8-5.3,12.3-6.7,14.9
		c-2.8,5.2-1.4,31.7,8.4,43.5c0,0,4,5.7,3,7.8s0.2,5.7,0.2,5.7l1.5,34.3c0,3.5-0.3,7-0.7,10.5c-4.2,5.2-10.6,12.7-13.6,13.9
		c-4.7,1.9-39.7,44.3-39.7,44.3s0.3,0.5,0.8,1.3l-1,1.1l-6.7,7.8l-0.5,0.6c-1.3-0.2-9.6-1.8-16.3-2.2h-0.7v-0.1
		c-2.3-0.3-4.7-0.2-7,0.2c-0.4,0.1-0.8,0.3-1.2,0.6c-2.3,2.8-3.5,46.4-3.5,46.4s2.4,21.8,10,23.1c0.4,0.1,0.8,0.2,1.2,0.2h0.3
		c5.4-0.4,7.9-3.5,9-5.6c0.3-0.6,0.6-1.3,0.8-2c0,0-0.9-3.9,1.5-9.3c2.4-5.4,6.8-14.8,6.8-14.8s8-8.4,6.6-12.5
		c0.2-0.3,0.5-0.7,0.8-1.1c3-4.3,9.1-12.7,14-18.4c0.3-0.4,0.6-0.7,1-1.1c1.8,0.8,3.7,1.3,5.6,1.6c0,0,7.5-2.9,10.3-9.5
		c1.2-2.8,5.9-7.8,10.8-12.5l-0.2,1.3l-0.2,41.7c1.6,1.1,3.3,2.1,5.1,2.8v1c0,5.9-0.3,11.9-1.1,17.8l-0.1,0.9
		c-0.6-0.4-1.2-0.6-1.5-0.3c-1.5,1.6-2.5,11.5-2.6,16.1c0,0.2,0,0.3,0,0.5c-0.3,4.6-2.9,11.2,5,11.6c5.9,0.3,31.2,0.6,44.8,0.8
		c7.3,0.1,14.4-2.4,20-7.1c4.3-3.7,6.9-8.1,1-11.3c-0.4-0.2-0.7-0.4-1.2-0.6l-13-2l-22.2-11.3c0,0-0.1-6.9-2.8-5.7
		c-0.8,0.2-1.6,0.5-2.3,0.9c-0.1-0.3-0.3-0.5-0.4-0.8c-1.8-3.6-2.7-7.5-2.7-11.6c0-0.4,0-0.7,0.1-1.1c0.7-0.6,1.3-1.2,1.8-1.9
		c0,0-0.2-15.6,1.6-18.5s7.2-32.7,7.2-32.7s0.2-5.5,3.7-8.8s2.3-12.8,2.3-12.8s4.9-2.6,6.5-11.1s6.6-27,6.6-27s10.5-27.4,9.8-44.7
		s1-26.3,1-26.3l2.2-40.2v-0.6c0.9,0.7,1.5,1.2,1.5,1.2s0-0.2,0-0.4c0.3,0.3,0.5,0.4,0.5,0.4s1.1-18.3,0.7-25.5
		c6.1-2.1,15.4-5.5,16-7.2c0.8-2.6,11.3-10.8,11.3-10.8c-0.2,0-0.4-0.1-0.6-0.2c0.3-0.1,0.7-0.3,1-0.5c6.9-3.7,19.7-14.4,17.5-21
		l14-20.1C452,405.2,451.9,403.4,450.8,402.2z"/>
	<path fill="#ECB4B6" d="M418.2,450.8c-1,0.6-2.2,1.1-3.4,1.3c-4.4,0.1-8-11.7-8-11.7s1.2-1.3,3.2-3c5.9-5.2,18.1-14.8,23.9-9.5
		C440.5,433.9,425.8,446.7,418.2,450.8z"/>
	<path fill="#ECB4B6" d="M351.8,732.9l-16.1,17.4c0,0-14.9,0.2-12-8.1c0.6-1.8,1-3.6,1.2-5.5c0.7-5.8,1.1-11.7,1-17.6
		c0-3.9-0.1-6.6-0.1-6.6s23.5-10.3,21.1,0.4c-0.3,1.3-0.5,2.7-0.5,4.1c0,4,0.9,7.9,2.7,11.5C349.9,730.1,350.8,731.5,351.8,732.9z"
		/>
	<path opacity="0.1" enable-background="new    " d="M351.8,732.9l-16.1,17.4c0,0-14.9,0.2-12-8.1c0.6-1.8,1-3.6,1.2-5.5
		c2.1,1.7,5.2,6.5,5.2,6.5s10.3,3,13.1-6c1.6-5,4.1-7.5,6-8.7C349.9,730.1,350.8,731.5,351.8,732.9z"/>
	<path fill="#C17174" d="M389.2,759.1c-5.5,4.7-12.5,7.1-19.6,7c-13.3-0.2-38.1-0.6-43.9-0.8c-7.7-0.3-5.2-6.9-4.9-11.5
		c0-0.2,0-0.3,0-0.5c0.1-4.5,1-14.4,2.5-16s6.8,6.9,6.8,6.9s10.3,3,13.1-6s8.6-9.9,8.6-9.9c2.6-1.1,2.7,5.7,2.7,5.7l21.8,11.2
		l12.8,2c0.4,0.2,0.8,0.4,1.1,0.6C396,751.1,393.4,755.5,389.2,759.1z"/>
	<circle opacity="0.25" fill="#FFFFFF" enable-background="new    " cx="349" cy="740.9" r="0.9"/>
	<circle opacity="0.25" fill="#FFFFFF" enable-background="new    " cx="357.8" cy="745.2" r="0.9"/>
	<circle opacity="0.25" fill="#FFFFFF" enable-background="new    " cx="362.3" cy="747.3" r="0.9"/>
	<circle opacity="0.25" fill="#FFFFFF" enable-background="new    " cx="371.8" cy="750.9" r="0.9"/>
	<circle opacity="0.25" fill="#FFFFFF" enable-background="new    " cx="367" cy="749.3" r="0.9"/>
	<path fill="#C17174" d="M389.2,759.1c-5.5,4.7-12.5,7.1-19.6,7c-13.3-0.2-38.1-0.6-43.9-0.8c-7.7-0.3-5.2-6.9-4.9-11.5l48.5,3
		c0,0,19.9-3,21-8.9C396,751.1,393.4,755.5,389.2,759.1z"/>
	<path opacity="0.25" fill="#FFFFFF" enable-background="new    " d="M389.2,759.1c-5.5,4.7-12.5,7.1-19.6,7
		c-13.3-0.2-38.1-0.6-43.9-0.8c-7.7-0.3-5.2-6.9-4.9-11.5l48.5,3c0,0,19.9-3,21-8.9C396,751.1,393.4,755.5,389.2,759.1z"/>
	<path fill="#ECB4B6" d="M299,689.2c-1.8,1.5-3.4,3.1-4.9,4.9c-4.8,5.6-10.8,14-13.7,18.2c-1.1,1.6-1.8,2.7-1.8,2.7l-6.4-1
		c0,0-6.9-10.6-6.9-10.9c0.1-0.3,5.5-11.7,5.5-11.7l2.1-2.5l6.6-7.7l3-3.5C282.5,677.8,304.8,685,299,689.2z"/>
	<path opacity="0.1" enable-background="new    " d="M280.4,712.2c-1.1,1.6-1.8,2.7-1.8,2.7l-6.4-1c0,0-6.9-10.6-6.9-10.9
		c0.1-0.3,5.5-11.7,5.5-11.7l2.1-2.5l0.7,0.1h1.6c-5.8,6,0.4,19.2,0.4,19.2S278.3,708.5,280.4,712.2z"/>
	<path fill="#C17174" d="M273.2,725.7c0,0-4.3,9.3-6.6,14.6s-1.5,9.2-1.5,9.2c-0.2,0.7-0.4,1.4-0.7,2c-1.7,3.3-5.1,5.5-8.8,5.6h-0.4
		c-7.8-0.2-10.3-22.9-10.3-22.9s1.2-43.2,3.4-46c0.3-0.3,0.7-0.5,1.1-0.6c2.3-0.4,4.6-0.5,6.9-0.2c7.1,0.5,16.2,2.3,16.2,2.3h1.6
		c-5.8,6,0.4,19.2,0.4,19.2s2.8,0.3,4.9,4.1S273.2,725.7,273.2,725.7z"/>
	<circle opacity="0.25" fill="#FFFFFF" enable-background="new    " cx="263.8" cy="712.8" r="0.9"/>
	<circle opacity="0.25" fill="#FFFFFF" enable-background="new    " cx="263.3" cy="720.3" r="0.9"/>
	<path fill="#C17174" d="M263.8,751.2c-1.7,3.3-5.1,5.5-8.8,5.6h-0.4c-7.8-0.2-10.3-22.9-10.3-22.9s1.2-43.2,3.4-46
		c0.3-0.3,0.7-0.5,1.1-0.6c2.3-0.4,4.6-0.5,6.9-0.2c-0.1,7.8-0.5,32.3,0,34.8C256.2,724.3,260.7,744.7,263.8,751.2z"/>
	<path opacity="0.25" fill="#FFFFFF" enable-background="new    " d="M263.8,751.2c-1.7,3.3-5.1,5.5-8.8,5.6h-0.4
		c-7.8-0.2-10.3-22.9-10.3-22.9s1.2-43.2,3.4-46c0.3-0.3,0.7-0.5,1.1-0.6c2.3-0.4,4.6-0.5,6.9-0.2c-0.1,7.8-0.5,32.3,0,34.8
		C256.2,724.3,260.7,744.7,263.8,751.2z"/>
	<path fill="#C17174" d="M254.6,756.8c-7.8-0.2-10.3-22.9-10.3-22.9s1.2-43.2,3.4-46c0.3-0.3,0.7-0.5,1.1-0.6
		c1.6,2.4,3.1,7.8,1.8,19.7c-2.4,22.5,0.5,23.9,0.5,23.9S254.8,750.1,254.6,756.8z"/>
	<path opacity="0.1" enable-background="new    " d="M254.6,756.8c-7.8-0.2-10.3-22.9-10.3-22.9s1.2-43.2,3.4-46
		c0.3-0.3,0.7-0.5,1.1-0.6c1.6,2.4,3.1,7.8,1.8,19.7c-2.4,22.5,0.5,23.9,0.5,23.9S254.8,750.1,254.6,756.8z"/>
	<path opacity="0.1" enable-background="new    " d="M418.2,450.8c-1,0.6-2.2,1.1-3.4,1.3c-4.4,0.1-8-11.7-8-11.7s1.2-1.3,3.2-3
		C411.5,440.5,415.5,449.2,418.2,450.8z"/>
	<path fill="#FF748E" d="M390.2,446.5c0,0,3.6,0.3,5.9-1.3s12.2-5.8,12.5-8.6c0,0,5.9,14.4,9.3,14.9c0,0-10.3,8.1-11.1,10.7
		s-20.8,8.9-20.8,8.9L390.2,446.5z"/>
	<path opacity="0.1" enable-background="new    " d="M390.2,446.5c0,0,3.6,0.3,5.9-1.3s12.2-5.8,12.5-8.6c0,0,5.9,14.4,9.3,14.9
		c0,0-10.3,8.1-11.1,10.7s-20.8,8.9-20.8,8.9L390.2,446.5z"/>
	<path opacity="0.1" enable-background="new    " d="M299,689.2c-1.8,1.5-3.4,3.1-4.9,4.9c-7.8-3.3-12.8-9.9-14.7-12.8l3-3.5
		C282.5,677.8,304.8,685,299,689.2z"/>
	<path fill="#5E5A6B" d="M335.7,616.2c0,0-12.6,16.8-17.2,18.7s-38.9,43.9-38.9,43.9s7.4,13.5,20.9,15.8c0,0,7.4-2.9,10.1-9.4
		s24.4-24.9,24.4-24.9L335.7,616.2z"/>
	<path opacity="0.1" enable-background="new    " d="M335.7,616.2c0,0-12.6,16.8-17.2,18.7s-38.9,43.9-38.9,43.9s7.4,13.5,20.9,15.8
		c0,0,7.4-2.9,10.1-9.4s24.4-24.9,24.4-24.9L335.7,616.2z"/>
	<path opacity="0.1" enable-background="new    " d="M297.6,672.5c3.8,0.4,7.6,0.4,11.5,0C315.8,671.8,310.7,676,297.6,672.5z"/>
	<path opacity="0.1" enable-background="new    " d="M294.5,676.9c0,0,9,5.1,12.5,2.6C310.4,676.9,303.6,681.9,294.5,676.9z"/>
	<path opacity="0.1" enable-background="new    " d="M347,713c-0.3,1.3-0.5,2.7-0.5,4.1c-7,6.3-15.3,4.4-20.5,2.1
		c0-3.9-0.1-6.6-0.1-6.6S349.4,702.2,347,713z"/>
	<path fill="#5E5A6B" d="M388.7,489.3l-0.3,4.7l-2.1,39.9c0,0-1.7,8.9-1,26.1s-9.6,44.3-9.6,44.3s-5,18.3-6.5,26.8s-6.3,11-6.3,11
		s1.2,9.4-2.2,12.7s-3.6,8.7-3.6,8.7s-5.3,29.5-7,32.4s-1.5,18.3-1.5,18.3c-11.1,13.2-27.4,1.2-27.4,1.2l0.2-41.3
		c0,0,4.6-38.1,8.1-43.4s3.4-19.9,3.4-19.9l-1.5-34c0,0-1.2-3.6-0.2-5.7s-2.9-7.7-2.9-7.7c-9.6-11.7-11-37.9-8.2-43
		s11.1-25.7,11.1-25.7l11.5-6.7l20.7,0.6L388.7,489.3z"/>
	<path opacity="0.1" enable-background="new    " d="M339.9,691.4c0,0,2.7,9.4,4.9,10.4S339.9,691.4,339.9,691.4z"/>
	<path opacity="0.1" enable-background="new    " d="M343.6,660.1c0,0,7,5.5,10,5.5S343.6,660.1,343.6,660.1z"/>
	<path fill="#ECB4B6" d="M385.9,428v11.3l-7.5-3.2l-7.5-3.2l-16.2-16c0,0-12.8-8.3-19.7-15.9c-3.9-4.3-5.9-8.4-2.4-10.6
		c1.7-1.1,3.2-2.4,4.5-3.9c3.4-4.1,6.4-8.5,8.9-13.2c0.1-0.2,0.2-0.4,0.3-0.6c3.3-6.1,5.5-11.4,5.5-11.4s9.4,3,15.4,7.3
		c0.5,0.3,1,0.7,1.4,1c3.4,2.8,5,6,1.9,9.2c-0.8,0.8-1.5,1.7-2.2,2.6l0,0c-0.5,0.7-1,1.4-1.4,2.2c-0.2,0.3-0.4,0.7-0.5,1
		c-2.1,4.3-2.8,9.1-2.1,13.7L385.9,428z"/>
	<path fill="#464353" d="M384.5,347.2c0.4,0.7,0.9,1.3,1.3,2c0.6,1.5,0.8,3.2,0.6,4.8c-0.2,2.6,0,5.1,0.5,7.7
		c0.5,2.3,1.5,4.4,1.6,6.8c0.1,3.3-1.6,6.3-3.2,9.1c1.8-0.1,3.5-0.8,4.7-2.2c0.4,1.5,0.1,3.1-0.9,4.2c2.7-0.1,5-2.3,6-4.7
		c0.9-2.6,1.2-5.3,0.8-8c-0.4-2.7-0.6-5.4-0.6-8c0.2-1.5,0.3-2.9,0.2-4.4c-0.3-2.9-2-5.4-3.8-7.8l-3.5-4.8c-0.2-0.4-0.6-0.7-1-0.9
		C384,339.5,383.6,345.6,384.5,347.2z"/>
	<path opacity="0.1" enable-background="new    " d="M370.8,378.8c-0.8,0.8-1.5,1.7-2.2,2.6l0,0c-0.5,0.7-1,1.4-1.4,2.2
		c-0.2,0.3-0.4,0.7-0.5,1c-8-0.4-15.4-4.5-20.2-10.9c-0.1-0.1-0.2-0.3-0.3-0.5c0.1-0.2,0.2-0.4,0.3-0.6c3.3-6.1,5.5-11.4,5.5-11.4
		s9.4,3,15.4,7.3c0.5,0.3,1,0.7,1.4,1C372.2,372.4,373.9,375.6,370.8,378.8z"/>
	<path fill="#ECB4B6" d="M395.2,356.7c0,13-9.3,24.2-22.1,26.6c-1.6,0.3-3.3,0.4-4.9,0.4H368c-0.3,0-0.6,0-0.9,0
		c-14.9-0.6-26.5-13.1-26-28c0.6-14.9,13.1-26.5,28-26C383.7,330.3,395.1,342.2,395.2,356.7L395.2,356.7z"/>
	<path opacity="0.1" enable-background="new    " d="M371.7,423.4c0,0,13.6,7.7,10.1,1.2l-17.8-26.2l0,0l20.1,25.9
		c0,0,12.9,17.7,5.8,29.8c0,0-1,10.1,0.2,12.5s-0.3,28-0.3,28s-4.8-4.5-7.4-3.6s-20.7,2.4-20.7,2.4L371.7,423.4z"/>
	<path opacity="0.1" enable-background="new    " d="M388.7,489.3l-0.3,4.7c-1.6-1.2-3.9-2.5-5.4-2c-2.6,0.9-20.7,2.4-20.7,2.4
		l0.8-5.9L388.7,489.3z"/>
	<path fill="#464353" d="M372.2,423.4c0,0,13.6,7.7,10.1,1.2l-17.8-26.2l0,0l20.1,25.9c0,0,12.9,17.7,5.8,29.8c0,0-1,10.1,0.2,12.5
		s-0.3,28-0.3,28s-4.8-4.5-7.4-3.6s-20.8,2.4-20.8,2.4L372.2,423.4z"/>
	<path opacity="0.1" enable-background="new    " d="M379.5,436.6c-0.8,8.3-4.2,18.1-4.2,18.1s-2.4,24.4-5.5,31.6
		s-1.7,17.2-3.4,35.5c-0.6,6.6-2.8,11.2-5.6,14.2c-4.7,5-11.5,6.1-16.8,5.8l-1.3-0.1c-8.6-0.8-16.8-42.2-16.8-42.2s-3.9-35.2-2.4-40
		c1.5-4.8-1.5-32.2-2.6-38.2c-0.7-3.8,1.3-10,2.8-14.1c0.9-2.3,1.6-4,1.6-4s2.9-9.3,7.7-14.1c1.3-1.4,3.2-2.1,5.1-2.1
		c2.3,0.1,4.4,0.8,6.3,2c0.1,0,0.2,0.1,0.2,0.1c0,0,31.2,31.9,34.1,39.3C379.7,430.5,379.8,433.4,379.5,436.6z"/>
	<path fill="#FF748E" d="M378.5,436.1c-0.8,8.2-4.2,18-4.2,18s-2.4,24.4-5.5,31.6s-1.7,17.2-3.4,35.5c-0.6,6.6-2.8,11.1-5.6,14.2
		c-4.7,5-11.5,6.1-16.8,5.8l-1.3-0.1c-8.6-0.9-16.8-42.2-16.8-42.2s-3.9-35.2-2.4-40c1.5-4.8-1.5-32.2-2.6-38.3
		c-0.7-3.8,1.3-10,2.8-14.1c0.9-2.3,1.6-4,1.6-4s2.9-9.3,7.7-14.1c1.3-1.4,3.2-2.1,5.1-2.1c2.3,0.1,4.5,0.8,6.4,2l0.2,0.1
		c0,0,31.2,31.9,34.1,39.3C378.7,429.9,378.8,432.9,378.5,436.1z"/>
	<path opacity="0.1" enable-background="new    " d="M343.5,561.6c0,0-7.1,6.3-9.5,6S343.5,561.6,343.5,561.6z"/>
	<path opacity="0.1" enable-background="new    " d="M345.4,567.7c0,0-7.5,3.5-9.7,4C333.4,572.2,342.5,566.8,345.4,567.7z"/>
	<path opacity="0.1" enable-background="new    " d="M374.2,473c0,0,11.1,0.1,12.7,3.6S377.8,471.6,374.2,473z"/>
	<path opacity="0.1" enable-background="new    " d="M372.7,479c0,0,8.5,1.8,11.1,3.9S372.7,479,372.7,479z"/>
	<path opacity="0.1" enable-background="new    " d="M358.4,458.1c0,0-1,34.9-4.8,39.4S358.4,458.1,358.4,458.1z"/>
	<path opacity="0.1" enable-background="new    " d="M348.9,556.6c0,0-7.1,30.7,7.1,32.6c14.2,1.9,9.8-35,9.8-35L348.9,556.6z"/>
	<path fill="#ECB4B6" d="M348.4,556.1c0,0-7.1,30.7,7.2,32.7c14.2,1.9,9.8-35,9.8-35L348.4,556.1z"/>
	<path opacity="0.1" enable-background="new    " d="M395,353.7c-0.4-0.6-0.7-1.2-1-1.9c-1.9-3.9-6.8-2-10.3-0.1l-1.9,2.5
		c-0.9,1-1.6,2.1-2.2,3.4c-0.4,1-0.7,2-0.9,3c-0.5,1.7-1.2,3.4-1.9,5.1c-2.2,5.7-3.4,11.6-3.8,17.6c-1.6,0.3-3.3,0.4-4.9,0.4H368
		v-0.1c0.2-0.7,0.3-1.4,0.5-2.1l0,0c0.7-3.9,0.8-7.9,0.3-11.8c0-0.1,0-0.2,0-0.3c-0.1-0.9-0.3-1.8-0.4-2.6c-0.3,0.6-0.6,1.2-1,1.8
		c-2.1,4-4.4,8-8.5,9.8c-1.6,0.6-3.4,1-5.1,1.2c-2.2,0.1-4.3,0.5-6.4,1.1c-0.7,0.2-1.4,0.6-1.9,1.1c-0.6,0.8-0.9,1.8-0.9,2.8
		c-0.2,1.3-0.6,2.6-1,3.9c-1.8,4.7-4.7,9-8.4,12.5l-0.9,0.9c-1.6,1.6-3.5,2.9-5.6,3.9c-1.9,0.6-3.9,0.9-5.9,0.9c0.9-2.3,1.6-4,1.6-4
		s2.9-9.3,7.7-14.1c1.3-1.4,3.2-2.1,5.1-2.1c3.6-4.2,6.7-8.9,9.3-13.8c-8.8-12-6.3-28.9,5.7-37.8c12-8.8,28.9-6.3,37.8,5.7
		C392.7,344.5,394.5,349,395,353.7L395,353.7z"/>
	<path fill="#464353" d="M396.7,332.6c-1.6-1.8-3.9-2.8-6-3.9c-0.8-0.3-1.4-0.8-2-1.4c-0.4-0.8-0.6-1.6-0.6-2.5
		c-0.8-5.2-5.6-8.8-10.4-11c-6.2-2.7-13.7-3.9-19.7-0.7c-2.9,1.6-5.2,4-7.8,6.1c-3.3,2.5-7.1,4.3-10.7,6.5s-6.9,5-8.6,8.9
		c-2.6,5.9-0.6,12.7-0.3,19.1c0.5,10.2-3.6,20.8-11.8,26.8c-1,0.6-1.9,1.4-2.6,2.3c-0.7,0.9-0.8,2.2-0.2,3.2
		c0.4,0.6,1.1,0.9,1.5,1.4c0.9,1.1,0.8,2.7,0.4,4.1c-1.2,4.5-3.6,8.5-6.9,11.7c0.1,1.1,1.4,1.5,2.5,1.6c2.8,0.4,5.6,0.6,8.4,0.6
		c4.4,0.4,8.8-1.4,11.7-4.7c5-4.7,9.2-10.6,10.4-17.3c0.1-1,0.4-2,0.9-2.8c0.5-0.5,1.2-0.9,1.9-1.1c3.7-1.3,8-0.6,11.6-2.2
		c4.7-2,7-7,9.5-11.6c0.1,0.9,0.2,1.8,0.4,2.6c0.7,4.7,0.5,9.5-0.7,14.1c-0.7,2.6-1.6,5.2-1.6,7.9c0,2,2.1,12.5,4.8,9.3
		s1.7-10,1.7-13.9c0-7.3,1.3-14.5,3.9-21.3c0.6-1.7,1.4-3.4,1.9-5.1c0.2-1,0.5-2,0.9-3c0.6-1.2,1.3-2.3,2.2-3.4l1.9-2.5
		c3.6-1.9,8.4-3.8,10.3,0.1c0.7,1.5,1.1,3.2,3,1.7c1.1-0.9,1.5-2.6,1.8-3.9C399.5,343.2,400.5,336.8,396.7,332.6z"/>
	<path opacity="0.1" enable-background="new    " d="M360.5,427c-0.7-18.5-26.6-22.3-32.6-4.8c0,0.1-0.1,0.2-0.1,0.4
		c-3.9,11.8-2.2,41.8-2.2,41.8s0.5,20.1,2.4,26.8c1.9,6.7,7.2,25.9,7.2,29s4.9,14.9,7,15.8s3.1,7.5,3.6,8.7s2,16.8,2,16.8
		s19.4-1.2,19.7-4.3s-4.3-18.2-4.3-18.2s-3.4-6.2-3.9-11.1s-3.1-7.2-2.6-10.7s-1.6-5.1-1.6-7.4c0-2.2-1.5-8.2-1.5-8.2
		s-3.3-2.6-2.7-5.7c0.5-3.1-4.6-9.3-3.3-11.5s1.7-7.7,1.7-7.7s1.7-24.7,2.9-31.4s8.2-17.5,8.2-17.5S360.5,427.6,360.5,427z"/>
	<path opacity="0.1" enable-background="new    " d="M359.7,535.4c-4.7,5-11.5,6.1-16.8,5.8c-0.6-2.3-1.5-5.2-2.8-5.8
		c-2.1-0.9-7-12.7-7-15.8s-5.3-22.3-7.2-29s-2.4-26.8-2.4-26.8s-1.7-30,2.2-41.8c0-0.1,0.1-0.2,0.1-0.4c6-17.5,31.9-13.6,32.6,4.8
		c0,0.5,0,0.9,0,0.9s-7,10.8-8.2,17.5c-1.2,6.7-2.9,31.4-2.9,31.4s-0.4,5.5-1.7,7.7s3.8,8.4,3.3,11.5s2.7,5.7,2.7,5.7s1.5,6,1.5,8.2
		s2.1,3.9,1.6,7.4s2.2,5.7,2.7,10.6C357.7,530.1,358.5,532.9,359.7,535.4z"/>
	<path fill="#FF748E" d="M359.5,426.5c-0.7-18.5-26.6-22.3-32.6-4.8l-0.1,0.4c-4,11.8-2.2,41.8-2.2,41.8s0.5,20.1,2.4,26.8
		c1.9,6.7,7.2,25.9,7.2,29s4.9,14.9,7,15.8s3.1,7.5,3.6,8.8s2,16.8,2,16.8s19.4-1.2,19.7-4.3s-4.3-18.2-4.3-18.2s-3.4-6.2-3.9-11.2
		s-3.2-7.2-2.7-10.6c0.5-3.4-1.5-5.2-1.5-7.4s-1.5-8.2-1.5-8.2s-3.3-2.6-2.7-5.7s-4.6-9.3-3.3-11.5c1.4-2.2,1.7-7.7,1.7-7.7
		s1.7-24.7,2.9-31.4c1.2-6.7,8.2-17.5,8.2-17.5S359.5,427.1,359.5,426.5z"/>
	<path opacity="0.1" enable-background="new    " d="M327.7,474c0.5-0.5,10.3-11.3,13.4-7.5S327.7,474,327.7,474z"/>
	<path opacity="0.1" enable-background="new    " d="M328.6,482.4c0.4-0.4,9.8-0.8,12.1-6S328.6,482.4,328.6,482.4z"/>
	<g opacity="0.1">
		<path d="M317.9,387.5c0.2,0.3,0.4,0.6,0.5,0.9c0.4-1.2,0.2-2.5-0.5-3.5c-0.5-0.5-1.1-0.8-1.5-1.4c0,0,0-0.1-0.1-0.1
			c-0.5,0.8-0.4,1.9,0.1,2.7C316.8,386.7,317.4,387,317.9,387.5z"/>
		<path d="M331,354.2c0-1,0-2,0-2.9c-0.2-3.5-0.8-7.1-1-10.6c-0.2,4.3,0.8,8.8,1,13.2C331,354,330.9,354.1,331,354.2z"/>
		<path d="M371,397.2c-2.4,2.8-4.3-5.2-4.7-8.4c-0.1,0.6-0.1,1.1-0.1,1.7c0.1,2,2.1,12.5,4.8,9.3c1.8-2.1,2-5.7,1.9-9.1
			C372.8,393.2,372.4,395.6,371,397.2z"/>
		<path d="M368.5,368.4c0.2,1.3,0.3,2.7,0.4,4.1c0.1-2.2,0-4.4-0.4-6.6c-0.1-0.9-0.3-1.8-0.4-2.6c-2.5,4.6-4.8,9.6-9.4,11.6
			c-3.6,1.6-7.9,1-11.6,2.2c-0.7,0.2-1.4,0.6-1.9,1.1c-0.6,0.8-0.9,1.8-0.9,2.8c-1.1,6.8-5.4,12.6-10.4,17.3
			c-2.9,3.3-7.3,5.1-11.7,4.7c-2.8,0-5.6-0.2-8.4-0.6c-0.4-0.1-0.9-0.2-1.3-0.3c-0.4,0.4-0.8,0.9-1.2,1.3c0.1,1.1,1.4,1.5,2.5,1.6
			c2.8,0.4,5.6,0.6,8.4,0.6c4.4,0.4,8.8-1.4,11.7-4.7c5-4.7,9.2-10.6,10.4-17.3c0.1-1,0.4-2,0.9-2.8c0.5-0.5,1.2-0.9,1.9-1.1
			c3.7-1.3,8-0.6,11.6-2.2c4.7-2,7-7,9.4-11.6C368.3,366.6,368.4,367.5,368.5,368.4z"/>
		<path d="M398.6,346.1c-0.3,1.3-0.7,3-1.8,3.9c-1.9,1.5-2.3-0.2-3-1.7c-1.9-3.9-6.8-2-10.3-0.1l-1.9,2.5c-0.9,1-1.6,2.1-2.2,3.4
			c-0.4,1-0.7,2-0.9,3c-0.5,1.7-1.2,3.4-1.9,5.1c-2.6,6.8-3.9,14-3.9,21.2c0,0.3,0,0.7,0,1.1c0.2-6.8,1.5-13.4,3.9-19.7
			c0.6-1.7,1.4-3.4,1.9-5.1c0.2-1,0.5-2,0.9-3c0.6-1.2,1.3-2.3,2.2-3.4l1.9-2.5c3.6-1.9,8.4-3.8,10.3,0.1c0.7,1.5,1.1,3.2,3,1.7
			c1.1-0.9,1.5-2.6,1.8-3.9c0.8-3,1.1-6.1,1-9.2C399.4,341.6,399.1,343.9,398.6,346.1z"/>
	</g>
	<path fill="#9F9EFF" d="M448.5,405.5l0.4,0.3l0,0l-26.2,38.1l0,0l-0.4-0.3c-0.8-0.5-1-1.6-0.4-2.4l24.3-35.2
		C446.6,405.1,447.7,404.9,448.5,405.5L448.5,405.5z"/>
	<path fill="#464353" d="M445.4,410.6L445.4,410.6c0.2,0.1,0.2,0.2,0.1,0.3l-1.9,2.8c-0.1,0.1-0.2,0.1-0.2,0l-0.1-0.1
		c-0.1-0.1-0.1-0.2,0-0.2l1.9-2.8C445.3,410.6,445.4,410.6,445.4,410.6z"/>
	<path fill="#464353" d="M422,443.4l0.5,0.4c-1-0.6-1.2-2-0.6-2.9c0,0,0,0,0-0.1l23.8-34.5c0.7-1,2-1.2,2.9-0.6c0,0,0,0,0,0
		l-0.5-0.4c1.5,1.1,1.9,3.2,0.9,4.7l-22.4,32.5C425.6,444.1,423.5,444.5,422,443.4z"/>
</g>
<g id="Desktop">
	
		<linearGradient id="SVGID_2_" gradientUnits="userSpaceOnUse" x1="737.54" y1="86.0099" x2="737.54" y2="791.47" gradientTransform="matrix(1 0 0 -1 0 796.9399)">
		<stop  offset="0" style="stop-color:#808080;stop-opacity:0.25"/>
		<stop  offset="0.54" style="stop-color:#808080;stop-opacity:0.12"/>
		<stop  offset="1" style="stop-color:#808080;stop-opacity:0.1"/>
	</linearGradient>
	<polygon fill="url(#SVGID_2_)" points="483.8,5.5 483.8,32.8 483.8,710.9 991.2,710.9 991.2,32.8 991.2,5.5 	"/>
	<rect x="488.3" y="11.7" fill="#F6F7F9" width="498.5" height="26.9"/>
	<g opacity="0.2">
		<rect x="488.3" y="11.7" fill="#6C63FF" width="498.5" height="26.9"/>
	</g>
	<rect x="488.3" y="38.5" fill="#F6F7F9" width="498.5" height="666.2"/>
	<circle fill="#F6F7F9" cx="501.4" cy="25.1" r="4.6"/>
	<circle fill="#F6F7F9" cx="513.8" cy="25.1" r="4.6"/>
	<circle fill="#F6F7F9" cx="526.1" cy="25.1" r="4.6"/>
	<g opacity="0.2">
		<rect x="577.3" y="79.6" fill="#6C63FF" width="320.5" height="12.6"/>
	</g>
	<rect x="855.2" y="79.6" fill="#6C63FF" width="42.6" height="12.6"/>
	<g opacity="0.2">
		<rect x="531.3" y="336.1" opacity="0.2" fill="#6C63FF" enable-background="new    " width="201.7" height="144.5"/>
	</g>
	<g opacity="0.2">
		<rect x="531.3" y="148.7" opacity="0.2" fill="#6C63FF" enable-background="new    " width="201.7" height="144.5"/>
	</g>
	<g opacity="0.2">
		<rect x="531.3" y="521.1" opacity="0.2" fill="#6C63FF" enable-background="new    " width="201.7" height="144.5"/>
	</g>
	<g opacity="0.2">
		<rect x="742" y="336.1" opacity="0.2" fill="#6C63FF" enable-background="new    " width="201.7" height="144.5"/>
	</g>
	<g opacity="0.2">
		<rect x="742" y="148.7" opacity="0.2" fill="#6C63FF" enable-background="new    " width="201.7" height="144.5"/>
	</g>
	<g opacity="0.2">
		<rect x="742" y="521.1" opacity="0.2" fill="#6C63FF" enable-background="new    " width="201.7" height="144.5"/>
	</g>
	<path fill="#6C63FF" d="M793.6,176.6c0,0-1.8-4.6,10.5-3.4c12.3,1.1,47.8,5.1,63.1,1.6c15.3-3.4,24.4-4.6,23.5,0
		s-26.5,14.8-26.5,14.8l-33.2,3.4l-24.4-3.9l-13.1-7.8L793.6,176.6z"/>
	<path opacity="0.1" enable-background="new    " d="M890.8,174.8c-0.9,4.6-26.5,14.8-26.5,14.8l-33.2,3.4l-24.5-3.9l-13.1-7.8
		l0.1-4.8c-0.3-0.8,0-1.7,0.7-2.2c1.1-1,3.8-1.8,9.8-1.2c12.3,1.1,47.8,5.1,63.1,1.6c12.5-2.8,20.9-4.1,23-2
		C890.8,173.3,891,174.1,890.8,174.8z"/>
	<path fill="#6C63FF" d="M910.5,244c-21.3,4.1-41.4,13-58.8,26c-0.9-2.3-2.5-4.3-4.7-5.6c-1.5-0.9-3.1-1.6-4.8-2
		c-1.5-0.4-3,0.5-4.3,1.9c-1.6,1.7-2.9,3.6-3.9,5.7c-23.3-16-58.7-26.2-58.7-26.2v-3.2c0-0.6,0.1-1.4,0.2-2.3s0.3-1.6,0.5-2.5
		c3-15.3,14.9-50.1,14.9-50.1h3.7h9.7l26,5.4l29.3-1.8l29.5-6.1l3.8-0.8c6.4,5,13.6,40,16.4,54.9c0.4,1.9,0.6,3.5,0.8,4.6
		C910.3,243.2,910.5,244,910.5,244z"/>
	<path fill="#6C63FF" d="M780.2,237.4c0.8-14.6,12.4-46.4,14.4-51.7h-3.7c0,0-12.6,37-15.1,51.4c0,0,0,0.1,0,0.1
		c-0.1,0.4-0.1,0.8-0.2,1.1c-0.1,0.9-0.2,1.6-0.2,2.3v3.2c0,0,35.4,10.2,58.7,26.2c1-2.1,2.3-4,3.9-5.7
		C829,256.2,795.2,243,780.2,237.4z"/>
	<path fill="#6C63FF" d="M910.1,241.9c-0.1-0.5-0.2-1.1-0.3-1.8c-0.2-0.8-0.3-1.8-0.5-2.9l0,0c-2.8-14.9-10.1-49.9-16.4-54.9
		l-3.8,0.8c2.3,6.2,17.3,46.9,16,54.8c-25,5-50.3,21.2-58,26.4c2.2,1.3,3.8,3.2,4.7,5.6c17.4-13,37.5-21.9,58.8-26
		C910.5,244,910.3,243.2,910.1,241.9z"/>
	<path opacity="0.1" enable-background="new    " d="M781.1,236.5c0.8-14.6,12.4-46.4,14.4-51.7h-3.7c0,0-12.6,37-15.1,51.4
		c0,0,0,0.1,0,0.1c-0.1,0.4-0.1,0.8-0.2,1.1c-0.1,0.9-0.2,1.6-0.2,2.3v3.2c0,0,35.3,10.2,58.7,26.2c1-2.1,2.3-4,3.9-5.7
		C829.9,255.3,796.1,242.1,781.1,236.5z"/>
	<path fill="#6C63FF" d="M780.2,237.4c0.8-14.6,12.4-46.4,14.4-51.7h-3.7c0,0-12.6,37-15.1,51.4c0,0,0,0.1,0,0.1
		c-0.1,0.4-0.1,0.8-0.2,1.1c-0.1,0.9-0.2,1.6-0.2,2.3v3.2c0,0,35.4,10.2,58.7,26.2c1-2.1,2.3-4,3.9-5.7
		C829,256.2,795.2,243,780.2,237.4z"/>
	<path opacity="0.1" enable-background="new    " d="M909.2,241l-0.3-1.8c-0.2-0.8-0.3-1.8-0.5-2.9l0,0
		c-2.8-14.9-10.1-49.9-16.4-54.9l-3.8,0.8c2.3,6.2,17.3,46.9,16,54.9c-25,5-50.3,21.2-58,26.4c2.2,1.3,3.8,3.2,4.7,5.6
		c17.4-13,37.5-22,58.8-26.1C909.6,243.1,909.4,242.3,909.2,241z"/>
	<path fill="#6C63FF" d="M910.1,241.9c-0.1-0.5-0.2-1.1-0.3-1.8c-0.2-0.8-0.3-1.8-0.5-2.9l0,0c-2.8-14.9-10.1-49.9-16.4-54.9
		l-3.8,0.8c2.3,6.2,17.3,46.9,16,54.8c-25,5-50.3,21.2-58,26.4c2.2,1.3,3.8,3.2,4.7,5.6c17.4-13,37.5-21.9,58.8-26
		C910.5,244,910.3,243.2,910.1,241.9z"/>
	<path opacity="0.1" enable-background="new    " d="M788.8,203.8c0,0,23.2,14.6,28.6-6.8l5.2,1.4c0,0,1.7,23.7-35.3,10.2
		L788.8,203.8z"/>
	<path fill="#6C63FF" d="M788.8,202c0,0,23.2,14.6,28.6-6.8l5.2,1.4c0,0,1.7,23.7-35.3,10.2L788.8,202z"/>
	<path opacity="0.1" enable-background="new    " d="M861.8,197.7c0,0,3,17.5,34.8,9l-1.1-3.3c0,0-21.7,9-29.6-6.6L861.8,197.7z"/>
	<path fill="#6C63FF" d="M861.8,195.9c0,0,3,17.5,34.8,9l-1.1-3.3c0,0-21.7,9-29.6-6.6L861.8,195.9z"/>
	<path opacity="0.1" enable-background="new    " d="M840.7,197.5v36.5h5.6c0,0,7.8-2.8,7.6-19.2c-0.2-16.4-1.4-20.8-1.4-20.8
		L840.7,197.5z"/>
	<path fill="#6C63FF" d="M839.8,196.6V233h5.6c0,0,7.8-2.8,7.6-19.2c-0.2-16.4-1.4-20.8-1.4-20.8L839.8,196.6z"/>
	<path opacity="0.1" enable-background="new    " d="M892.8,184.2c-2.3,4.3-23.2,11.3-26.9,12.5l-0.6,0.2c0,0-1.3,0.3-3.5,0.8
		c-6.7,1.4-21.7,4-33,1.7c-1.6-0.3-3.3-0.7-5.1-1l-4-0.9c-13-2.9-26.5-6.7-28.8-10c0,0,0.7-10.9,2.8-10.6
		c2.2,0.3,26.6,10.6,26.6,10.6l0.3,0.1c0.6,0.1,2.1,0.3,4.1,0.5c7.9,0.9,24.7,2.3,33.7-0.2c0.4-0.1,0.8-0.2,1.2-0.4
		c0.7-0.2,1.4-0.5,2.1-0.7c11.6-4.1,28.9-11.4,28.9-11.4S895.3,179.5,892.8,184.2z"/>
	<path opacity="0.1" enable-background="new    " d="M890.8,174.8c-0.9,4.6-26.5,14.8-26.5,14.8l-33.2,3.4l-24.5-3.9l-13.1-7.8
		l0.1-4.8c-0.3-0.8,0-1.7,0.7-2.2c4.3,1.3,26,10.4,26,10.4l0.3,0.1c0.6,0.1,2.1,0.3,4.1,0.5c7.9,0.9,24.7,2.3,33.7-0.2
		c0.4-0.1,0.8-0.2,1.2-0.4c0.7-0.2,1.4-0.5,2.1-0.7c10.5-3.7,25.7-10.1,28.5-11.3C890.8,173.3,891,174.1,890.8,174.8z"/>
	<path fill="#6C63FF" d="M892.8,182.4c-2.3,4.3-23.2,11.3-26.9,12.5l-0.6,0.2c0,0-1.3,0.3-3.5,0.8c-6.7,1.4-21.7,4-33,1.7
		c-1.6-0.3-3.3-0.7-5.1-1l-4-0.9c-13-2.9-26.5-6.7-28.8-10c0,0,0.7-10.9,2.8-10.6c2.2,0.3,26.6,10.6,26.6,10.6l0.3,0.1
		c0.6,0.1,2.1,0.3,4.1,0.5c7.9,0.9,24.7,2.3,33.7-0.2c0.4-0.1,0.8-0.2,1.2-0.4c0.7-0.2,1.4-0.5,2.1-0.7
		c11.6-4.1,28.9-11.4,28.9-11.4S895.3,177.7,892.8,182.4z"/>
	<circle opacity="0.1" enable-background="new    " cx="844.7" cy="193.9" r="3.7"/>
	<circle fill="#6C63FF" cx="844.7" cy="193" r="3.7"/>
	<path opacity="0.1" enable-background="new    " d="M825.7,186.2l-1,10.3l-4-0.9l1-9.9C822.2,185.8,823.7,186,825.7,186.2z"/>
	<path fill="#6C63FF" d="M824.8,186.2l-1,10.3l-4-0.9l1-9.9C821.3,185.8,822.8,186,824.8,186.2z"/>
	<path opacity="0.1" enable-background="new    " d="M865,194.9l-0.6,0.2c0,0-1.3,0.3-3.5,0.8l-3.4-9.8c0.4-0.1,0.8-0.2,1.2-0.4
		c0.7-0.2,1.4-0.5,2.1-0.7L865,194.9z"/>
	<path fill="#6C63FF" d="M865.9,194.9l-0.6,0.2c0,0-1.3,0.3-3.5,0.8l-3.4-9.8c0.4-0.1,0.8-0.2,1.2-0.4c0.7-0.2,1.4-0.5,2.1-0.7
		L865.9,194.9z"/>
	<g opacity="0.5">
		<path fill="#6C63FF" d="M796.8,349.9c0,0,60.4,2.9,90.4,1.1l-0.7,7.9l-53.1,7l-15.7-4.8L796.8,349.9z"/>
		<path opacity="0.1" enable-background="new    " d="M887.2,351l-0.7,7.9l-53.1,7l-15.7-4.8l-20.9-11.2c0,0,1.2,0.1,3.4,0.2l0,0
			c13.1,0.6,60.3,2.4,86.2,1L887.2,351z"/>
		<path fill="#6C63FF" d="M908.1,463.6c-11.7,7-52.1,0.2-52.1,0.2l-11.2-40l-12.5,40.7c-17.8,6.4-54.6-2.9-54.6-2.9l14.3-88
			l2.5-12.1l2.3-11.6l22.7,6.8c0,0,6.8,4.6,35.2,3.3s32.5-9,32.5-9c1.3,0.4,2.4,4.8,3.6,10.3c1.7,8,3.5,18.3,5.6,21.6
			C900,388.6,908.1,463.6,908.1,463.6z"/>
		<path opacity="0.1" enable-background="new    " d="M890.9,362.1c-25.3,13.9-47.1,13.5-47.1,13.5c-5.4,0.7-49.3-13.2-49.3-13.2
			l2.3-11.6l22.7,6.8c0,0,6.8,4.6,35.2,3.3s32.5-9,32.5-9C888.5,352.2,889.7,356.6,890.9,362.1z"/>
		<path opacity="0.1" enable-background="new    " d="M887.2,351l-0.7,7.9l-53.1,7l-15.7-4.8l-20.9-11.2c0,0,1.2,0.1,3.4,0.2l0,0
			l19.2,5.8c0,0,6.8,4.6,35.2,3.3c22.3-1,29.7-6,31.8-8.1L887.2,351z"/>
		<path fill="#6C63FF" d="M890.9,361.2c-25.3,13.9-47.1,13.5-47.1,13.5c-5.4,0.7-49.3-13.2-49.3-13.2l2.3-11.6l22.7,6.8
			c0,0,6.8,4.6,35.2,3.3s32.5-9,32.5-9C888.5,351.3,889.7,355.8,890.9,361.2z"/>
		<circle opacity="0.1" enable-background="new    " cx="848.1" cy="370.3" r="2.3"/>
		<circle fill="none" stroke="#6C63FF" stroke-miterlimit="10" cx="848.1" cy="369.5" r="2.3"/>
		<path opacity="0.1" enable-background="new    " d="M789,410.8c0,0,4.1,12.1,6.9,11.9S789,410.8,789,410.8z"/>
		<path opacity="0.1" enable-background="new    " d="M786.4,422.7c0,0,2.5,7.3,5.2,8.5"/>
		<path opacity="0.1" enable-background="new    " d="M786.4,430.3c0,0,4,5.1,6.4,6.3"/>
		<path opacity="0.1" enable-background="new    " d="M893.8,384.5c0,0,3.7,5.6,0,6.8"/>
		<path opacity="0.1" enable-background="new    " d="M895.5,393.7c-4.3-5.1-1.7,7-1.7,7S896.6,395,895.5,393.7z"/>
		<path opacity="0.1" enable-background="new    " d="M897.7,399.9c0,0-6.6,9.8-5.3,10.9"/>
		<path opacity="0.1" enable-background="new    " d="M810.4,384.7c-8.1,0-16.5-3.7-17-3.9l0.4-0.8c0.2,0.1,16.3,7.1,25.1,1.8
			c3.3-2,5.2-5.5,5.5-10.5l0.9,0.1c-0.4,5.3-2.4,9-5.9,11.2C816.5,384.1,813.5,384.9,810.4,384.7z"/>
		<path fill="#6C63FF" d="M810.4,383.9c-8.1,0-16.5-3.7-17-3.9l0.4-0.8c0.2,0.1,16.3,7.1,25.1,1.8c3.3-2,5.2-5.5,5.5-10.5l0.9,0.1
			c-0.4,5.3-2.4,9-5.9,11.2C816.5,383.3,813.5,384,810.4,383.9z"/>
		<path opacity="0.1" enable-background="new    " d="M876.8,385.4c-2.1,0-4.1-0.4-6-1.3c-6.6-3.2-7.6-10.9-7.7-11.2l0.9-0.1
			c0,0.1,1.1,7.6,7.2,10.5c5.5,2.6,13.2,1,23-5l0.4,0.8C887.7,383.3,881.7,385.4,876.8,385.4z"/>
		<path fill="#6C63FF" d="M876.8,384.5c-2.1,0-4.1-0.4-6-1.3c-6.6-3.2-7.6-10.9-7.7-11.2l0.9-0.1c0,0.1,1.1,7.6,7.2,10.5
			c5.5,2.6,13.2,1,23-5l0.4,0.8C887.7,382.4,881.7,384.5,876.8,384.5z"/>
	</g>
	<path fill="#6C63FF" d="M613.1,351.2c0,0,11.3,15.9,19.1,14.3c7.7-1.5,8.5-3.2,15.3-14.3l5.6,12.9l-6.6,16l-7.8,10.1l-16.6-2.6
		l-5.4-18.2L613.1,351.2z"/>
	<path opacity="0.1" enable-background="new    " d="M653.1,364.2l-6.6,16l-7.8,10.1l-16.6-2.6l-5.4-18.2l-3.5-18.3
		c0,0,1,1.4,2.6,3.3c3.8,4.5,11.1,12.1,16.5,11c7.6-1.5,8.4-3.2,15-13.9l0.3-0.5L653.1,364.2z"/>
	<path opacity="0.1" enable-background="new    " d="M653.1,364.2l-6.6,16l-7.8,10.1l-16.6-2.6l-5.4-18.2l-3.5-18.3
		c0,0,1,1.4,2.6,3.3c2.5,8,7.8,20.8,16.5,20.7c9.8-0.1,13.8-16.4,15-23.5l0.3-0.5L653.1,364.2z"/>
	<path fill="#6C63FF" d="M607.1,350.8c0,0-3.8-0.5-1.8,4.3s5.7,20.5,3.8,23.7s-0.9,12-8.9,13.7l2.3,9.1c0,0,0.5,20-0.5,22.9
		s-1.1,19.1-0.8,20.8c0.3,1.7,0.2,12.8-1.1,13.2c-1.2,0.5-2,5.8,2,6.8s21.1,1.4,24.2,2.3c3.1,0.9,24.9,0,24.9,0s9.2-1.2,11.5-2
		c2.3-0.8,2.8-2.6,2-6.2s-4.3-29.2-3.5-32.5s0.9-34.8,0.9-34.8s-6-2-6-7.9s-2.3-21.5,2.5-31.4c0,0-3.8-2.6-4.5-2.2
		c-0.6,0.5-6.4-1.2-6.4-1.2s-3,26.8-15.6,26.9c-12.5,0.2-18.1-26.9-18.1-26.9S614.2,347.1,607.1,350.8z"/>
	<path opacity="0.1" enable-background="new    " d="M625.3,436.6c0,0,2.6,6.3,6.9,7.2S625.3,436.6,625.3,436.6z"/>
	<path opacity="0.1" enable-background="new    " d="M621.3,441.5c0,0,8.4,6.8,8,8.2"/>
	<path opacity="0.1" enable-background="new    " d="M604.5,401.5c0,0,6.6,4.5,6.6,7.7"/>
	<path opacity="0.1" enable-background="new    " d="M609,415.5c0,0-1.8-6.5-3.1-7.8"/>
	<path opacity="0.1" enable-background="new    " d="M605.9,418c0,0,2.8,5.5,3.1,7.1"/>
	<path opacity="0.1" enable-background="new    " d="M659.6,406.8c0,0-8.6,2.6-7.8,5.9"/>
	<path opacity="0.1" enable-background="new    " d="M651.7,436.6c0,0,11.3-13.1,7.9-12.8S651.7,436.6,651.7,436.6z"/>
	<g opacity="0.1">
		<path d="M656.2,384.3c0-2.7-0.5-7.5-0.5-12.9c-0.1,6.1,0.5,11.8,0.5,14.9c0,5.7,5.7,7.8,6,7.8c0-1.3,0-2,0-2
			S656.2,390.2,656.2,384.3z"/>
		<path d="M664.8,461.4c0.1,0.5,0.2,1.1,0.3,1.6c0.1-1.2,0-2.4-0.3-3.6c-0.7-3-3.3-22.3-3.6-29.8C660.9,434.7,664.1,458,664.8,461.4
			z"/>
		<path d="M601.1,441.4c0-5.5,0.3-13.1,0.9-15c0.5-1.6,0.6-7.9,0.6-13.6c0,5.1-0.2,10.2-0.6,11.6C601.4,426.6,601.1,436,601.1,441.4
			z"/>
		<path d="M607.1,352.8c7.1-3.7,6.9-1.2,6.9-1.2s5.5,27.1,18.1,26.9c12.6-0.2,15.6-26.9,15.6-26.9s5.8,1.7,6.5,1.2
			c0.6-0.5,2.7,1,3.8,1.7c0.2-0.5,0.4-1,0.7-1.5c0,0-3.8-2.6-4.5-2.2s-6.5-1.2-6.5-1.2s-3,26.8-15.6,26.9
			c-12.5,0.2-18.1-26.9-18.1-26.9s0.2-2.5-6.9,1.2c0,0-3.1-0.4-2.3,3.1C605.4,352.6,607.1,352.8,607.1,352.8z"/>
		<path d="M600.2,460.5c1-0.4,1.3-7.2,1.2-11c-0.1,3.8-0.4,8.7-1.2,9s-1.2,2-0.9,3.6C599.5,461.2,599.8,460.6,600.2,460.5z"/>
		<path d="M609.1,380.8c0.5-1.3,0.7-2.7,0.5-4.1c0,0.7-0.2,1.4-0.5,2.1c-1.8,3.2-0.9,12-8.9,13.7l0.5,1.9
			C608.2,392.4,607.3,383.9,609.1,380.8z"/>
	</g>
	<path fill="#6C63FF" d="M653.6,538.9c-3.8,6.9-42.2,0-42.2,0l0.1-0.7l0.8-5.3h40.4l0.8,5.3L653.6,538.9z"/>
	<path opacity="0.1" enable-background="new    " d="M653.6,538.9c-3.8,6.9-42.2,0-42.2,0l0.1-0.7c1.8,0,29.6-0.7,42,0L653.6,538.9z
		"/>
	<path fill="#6C63FF" d="M611.4,538.9L611.4,538.9c0,0-6.9,1.7-17.6,30.6c-10.7,28.9-14.4,66.2-14.4,66.2s-6,10.2,19.6,10.8
		c0,0-2.1,6.7,12.4,5.7c14.4-1,12.4-1,12.4-1s9.3-5.8,13.4-4.8s6.7,1.4,11.2,5.2s18.8,2.2,18.9-0.7c0.1-1.4,0.1-2.9,0-4.3
		c0,0,21.8,1.4,17.7-14.5s-7.6-41.8-7.6-41.8s-11.2-50.8-23.9-51.4S611.4,538.9,611.4,538.9z"/>
	
		<rect x="559" y="602.4" transform="matrix(-9.184919e-002 0.9958 -0.9958 -9.184919e-002 1258.7091 57.5698)" opacity="0.1" enable-background="new    " width="88.1" height="0.7"/>
	
		<rect x="577.7" y="604.6" transform="matrix(-3.839765e-003 1 -1 -3.839765e-003 1231.3103 -16.6223)" opacity="0.1" enable-background="new    " width="92.4" height="0.7"/>
	<path fill="none" stroke="#6C63FF" stroke-miterlimit="10" d="M645,558.8"/>
	
		<rect x="646.4" y="558.8" transform="matrix(-0.9993 3.716701e-002 -3.716701e-002 -0.9993 1315.5216 1185.845)" opacity="0.1" enable-background="new    " width="0.7" height="92.8"/>
	<path opacity="0.1" enable-background="new    " d="M667,646.6c-1.2-52.8-10.2-89-10.3-89.3l0.7-0.2c0.1,0.4,9.1,36.6,10.3,89.5
		L667,646.6z"/>
	<path opacity="0.1" enable-background="new    " d="M612.6,544c0,0-1.2,0.7,0,4"/>
	<path opacity="0.1" enable-background="new    " d="M616.1,544c0,0-3.3,2.1,0,5.5"/>
	<path opacity="0.1" enable-background="new    " d="M646.7,544c0,0,4.5,4.3,3.4,5.5"/>
	<path opacity="0.1" enable-background="new    " d="M650.3,543c0,0,0.7,5.2,3.3,6.5"/>
	<path fill="#3ACC6C" d="M951.4,287.5c0,9.5-7.7,17.3-17.2,17.3c-9.5,0-17.3-7.7-17.3-17.2s7.7-17.3,17.2-17.3c0,0,0,0,0,0
		C943.7,270.2,951.4,277.9,951.4,287.5z M932.1,296.6l12.8-12.8c0.4-0.4,0.4-1.1,0-1.6l-1.6-1.6c-0.4-0.4-1.1-0.4-1.6,0c0,0,0,0,0,0
		l-10.4,10.5l-4.9-4.9c-0.4-0.4-1.1-0.4-1.6,0l-1.6,1.6c-0.4,0.4-0.4,1.1,0,1.6c0,0,0,0,0,0l7.2,7.2
		C931,297.1,931.7,297.1,932.1,296.6C932.1,296.6,932.1,296.6,932.1,296.6L932.1,296.6z"/>
	<path fill="#3ACC6C" d="M742.2,477c0,9.5-7.7,17.3-17.3,17.3c-9.5,0-17.3-7.7-17.3-17.3c0-9.5,7.7-17.3,17.3-17.3
		S742.2,467.5,742.2,477C742.2,477,742.2,477,742.2,477z M722.9,486.1l12.9-12.8c0.4-0.4,0.4-1.1,0-1.6c0,0,0,0,0,0l-1.6-1.5
		c-0.4-0.4-1.1-0.4-1.6,0c0,0,0,0,0,0l-10.4,10.4l-4.9-4.9c-0.4-0.4-1.1-0.4-1.6,0c0,0,0,0,0,0l-1.6,1.6c-0.4,0.4-0.4,1.1,0,1.6
		l7.2,7.2C721.8,486.6,722.5,486.6,722.9,486.1C722.9,486.2,722.9,486.2,722.9,486.1z"/>
	<path fill="#3ACC6C" d="M742.2,665.7c0,9.5-7.7,17.3-17.3,17.3c-9.5,0-17.3-7.7-17.3-17.3c0-9.5,7.7-17.3,17.3-17.3
		S742.2,656.1,742.2,665.7C742.2,665.7,742.2,665.7,742.2,665.7z M722.9,674.8l12.9-12.8c0.4-0.4,0.4-1.1,0-1.6c0,0,0,0,0,0
		l-1.6-1.6c-0.4-0.4-1.1-0.4-1.6,0c0,0,0,0,0,0l-10.5,10.5l-4.9-4.9c-0.4-0.4-1.1-0.4-1.6,0c0,0,0,0,0,0l-1.6,1.6
		c-0.4,0.4-0.4,1.1,0,1.6l7.2,7.2C721.8,675.2,722.5,675.3,722.9,674.8C723,674.8,723,674.8,722.9,674.8L722.9,674.8z"/>
	<g>
		<path fill="#F2F2F2" d="M637.8,194.4l-34.5,38.1c1.9,4.1,4.7,7.7,8.3,10.4l37.2-41.5C645.7,198.3,641.9,195.9,637.8,194.4z"/>
		<path fill="#6C63FF" d="M637.7,194.5v-22.3h-18.2v22.2C625.4,192.4,631.8,192.4,637.7,194.5z"/>
		<path fill="#6C63FF" d="M619.5,246.9v22.8h18.2v-22.8C631.8,248.9,625.4,248.9,619.5,246.9z"/>
		<path d="M628.7,248.7c-15.5,0-28-12.6-28-28c0-15.5,12.6-28,28-28c15.5,0,28,12.6,28,28C656.7,236.1,644.1,248.7,628.7,248.7z
			 M628.7,192.8c-15.4,0-27.8,12.5-27.8,27.8s12.5,27.8,27.8,27.8s27.8-12.5,27.8-27.8S644,192.8,628.7,192.8z"/>
		<path fill="#575A89" d="M608.9,220.7c0,10.9,8.8,19.7,19.7,19.7l0,0v-39.5C617.8,200.9,608.9,209.8,608.9,220.7z"/>
		<path fill="#6C63FF" d="M628.7,200.9v39.5c10.9,0,19.7-8.8,19.7-19.7S639.6,200.9,628.7,200.9L628.7,200.9L628.7,200.9z"/>
		<circle fill="#2F2E41" cx="628.7" cy="221.6" r="2.7"/>
		<polygon fill="#2F2E41" points="628.7,211.6 629.3,217 630,222.4 628.7,222.4 627.3,222.4 628,217 		"/>
		<polygon fill="#2F2E41" points="645,221.8 636.1,222.1 627.2,222.5 627.2,221.7 627.2,220.9 636.1,221.3 		"/>
		<path d="M657.7,223c-0.5,0-0.6-0.3-0.9-0.7c-0.1-0.1-0.1-0.2-0.2-0.3l0.2-0.1c0.1,0.1,0.1,0.2,0.2,0.3c0.2,0.4,0.4,0.6,0.7,0.6
			c1.1,0,2.1-1.9,2.1-4.2s-0.9-4.2-2.1-4.2c-0.7,0-1.1,0.4-1.5,1.3l-0.2-0.1c0.4-1,0.9-1.4,1.7-1.4c1.2,0,2.2,2,2.2,4.4
			S658.9,223,657.7,223z"/>
	</g>
	<path fill="#6C63FF" d="M863.9,563.6c0,0-18.5-16.2-27.7-11.6s-39.3,48.6-48.6,46.2c-9.2-2.3-23.1,24.9,0,27.2
		c23.1,2.3,60.1-2.3,60.1-2.3c7.6,1.3,15.4,2,23.1,2.3c9.2,0,30.1,2.3,30.1,0c0-2.3-4.6-54.9-6.9-54.9
		C891.6,570.5,866.2,570.5,863.9,563.6z"/>
</g>
</svg>
