<svg width="64" height="60" viewBox="0 0 64 60" fill="none" xmlns="http://www.w3.org/2000/svg">
<path d="M60.4769 0H16.3579C14.8757 0.00172751 13.6746 1.20284 13.6729 2.68505V14.8541L11.6554 11.8279C10.7319 10.4349 8.87471 10.017 7.44359 10.8802L3.29287 13.3758C1.93357 14.1734 0.936422 15.4668 0.51096 16.9843C-1.0032 22.4976 0.120296 31.9964 14.0626 45.9407C25.1501 57.0168 33.4169 59.9998 39.1144 59.9998C40.4335 60.0059 41.7475 59.8345 43.021 59.4902C44.5378 59.0648 45.8313 58.069 46.6305 56.7115L49.1228 52.5565C49.9826 51.1265 49.565 49.2731 48.1751 48.3499L38.2363 41.7246C36.8729 40.8228 35.0454 41.1194 34.037 42.4059L31.1435 46.1259C30.841 46.524 30.2924 46.64 29.8546 46.3986L29.3039 46.0953C27.4917 45.1077 25.2364 43.8778 20.6813 39.3228C20.1884 38.8299 19.742 38.3688 19.323 37.9275H60.4769C61.9554 37.9287 63.1561 36.7336 63.1619 35.2551V2.68505C63.1602 1.20284 61.9591 0.00172751 60.4769 0ZM28.2963 47.9445L28.8312 48.2383C30.1758 48.9902 31.8684 48.6413 32.8061 47.4191L35.6997 43.699C36.0286 43.28 36.6239 43.1834 37.0685 43.4768L47.0073 50.1021C47.4588 50.403 47.5946 51.0054 47.3158 51.4709L44.8235 55.6259C44.303 56.5184 43.4574 57.1749 42.4639 57.4581C37.4865 58.8269 28.7754 57.6687 15.5544 44.4467C2.33336 31.2247 1.17951 22.5144 2.54511 17.5413C2.82805 16.5478 3.48413 15.7023 4.37615 15.1816L8.53118 12.6882C8.99675 12.4101 9.59879 12.5457 9.89999 12.9967L16.5283 22.9356C16.8223 23.38 16.7256 23.9758 16.3061 24.3044L12.5849 27.1989C11.3629 28.1364 11.014 29.8286 11.7657 31.1728L12.0605 31.7078C13.1134 33.6389 14.4222 36.0417 19.1933 40.8116C23.9644 45.5817 26.3663 46.8915 28.2963 47.9445ZM61.0561 35.2552C61.0526 35.572 60.7936 35.8261 60.477 35.8238H17.4234C16.0559 34.2599 14.8766 32.541 13.9097 30.7022L13.6064 30.1494C13.3645 29.7126 13.4803 29.1645 13.8781 28.8627L17.5993 25.9681C18.8863 24.96 19.1828 23.1323 18.2805 21.7689L15.7787 18.014V2.68505C15.777 2.53093 15.8375 2.38261 15.9464 2.27365C16.0554 2.1647 16.2037 2.10423 16.3578 2.10596H60.4769C60.631 2.10423 60.7793 2.1647 60.8883 2.27365C60.9972 2.38261 61.0577 2.53093 61.056 2.68505V35.2552H61.0561Z" fill="black"/>
<path d="M56.8504 4.87526L39.2523 18.2215C38.7544 18.5833 38.0802 18.5833 37.5823 18.2215L19.9906 4.87526C19.5272 4.52371 18.8664 4.61453 18.515 5.07799C18.1634 5.54146 18.2542 6.20223 18.7177 6.55366L36.3116 19.8988C37.5633 20.8235 39.2716 20.8235 40.5234 19.8988L58.1225 6.55366C58.3452 6.38486 58.4917 6.13437 58.5296 5.85747C58.5675 5.58058 58.4938 5.29998 58.3246 5.0775C57.9732 4.6149 57.3135 4.52445 56.8504 4.87526Z" fill="black"/>
<path d="M29.4314 19.9873L18.6449 31.5383C18.2483 31.9636 18.2716 32.6301 18.697 33.0267C19.1223 33.4233 19.7888 33.3999 20.1853 32.9746L30.9719 21.4184C31.3283 20.9885 31.287 20.3551 30.8779 19.975C30.4687 19.5948 29.834 19.6002 29.4314 19.9873Z" fill="black"/>
<path d="M47.4729 19.9873C47.0763 19.562 46.41 19.5385 45.9845 19.9352C45.5592 20.3318 45.5357 20.9981 45.9324 21.4236L56.7158 32.9746C57.1124 33.4 57.7787 33.4234 58.2042 33.0267C58.6295 32.6301 58.653 31.9638 58.2562 31.5383L47.4729 19.9873Z" fill="black"/>
</svg>
