<?xml version="1.0" encoding="utf-8"?>
<!-- Generator: Adobe Illustrator 18.1.1, SVG Export Plug-In . SVG Version: 6.00 Build 0)  -->
<svg version="1.1" id="_x35_3917d2c-59b7-443c-9dc6-ca37ebed1a74"
	 xmlns="http://www.w3.org/2000/svg" xmlns:xlink="http://www.w3.org/1999/xlink" x="0px" y="0px" viewBox="177 -4.8 965.6 800.8"
	 enable-background="new 177 -4.8 965.6 800.8" xml:space="preserve">
<title>events</title>
<path opacity="0.1" fill="#6C63FF" enable-background="new    " d="M1078.9,437.7c-37.1,60-30.1,141.7-13.8,206.2
	c5.4,21.6,11.7,44.4,7.1,68.5c-5.7,29.5-26.5,52.7-47.5,66c-38.3,24.2-82.1,23.5-114-1.8c-27.5-21.8-45.7-59.8-73.8-80.5
	c-47-34.5-111.5-13.6-167.6,18.7c-39.6,22.8-83.3,51.8-119.9,35.4c-25.8-11.5-41.8-44.1-49.3-79.5c-3.6-17.1-5.8-35.8-14.1-48.8
	c-4.9-7.7-11.7-12.9-18.8-17.2C402.9,566,316,598.4,254,554.5c-41.8-29.6-65.6-90.8-73.5-156.2s-1.4-135.4,6.7-204.3
	c5.7-49,13.5-101.4,39.2-141.3c27.2-42.2,70.1-61,107.4-57s69.6,27.6,97.5,56.5c34.9,36.1,66.3,82.2,111.5,93.8
	c30.7,7.9,64.3-1.3,97-6.4c54.6-8.7,108.4-6.2,161.8-2.9c51.2,3.1,102.6,7,150.3,25c33.7,12.8,59.6,39.3,91.1,56.6
	c20.5,11.3,43.7,12.7,62.8,27.7c23.6,18.5,43.9,52.6,34.5,95.7C1131.3,382.6,1098.6,405.9,1078.9,437.7z"/>
<g id="caleender">
	
		<linearGradient id="SVGID_1_" gradientUnits="userSpaceOnUse" x1="655.375" y1="99.46" x2="655.375" y2="761.99" gradientTransform="matrix(1 0 0 -1 0 790.38)">
		<stop  offset="0" style="stop-color:#808080;stop-opacity:0.25"/>
		<stop  offset="0.54" style="stop-color:#808080;stop-opacity:0.12"/>
		<stop  offset="1" style="stop-color:#808080;stop-opacity:0.1"/>
	</linearGradient>
	<rect x="370.1" y="28.4" fill="url(#SVGID_1_)" width="570.6" height="662.5"/>
	<rect x="376.7" y="36.1" fill="#F7F7FD" width="557.3" height="647.1"/>
	<rect x="410.4" y="109" fill="#E2E2EC" width="140.9" height="11.2"/>
	<rect x="410.4" y="136.5" fill="#E2E2EC" width="240.6" height="11.2"/>
	<rect x="807.4" y="98.3" fill="#FFFFFF" width="100" height="86.3"/>
	<path fill="#E2E2EC" d="M906.8,98.8v85.3h-99V98.8H906.8 M907.8,97.8h-101v87.3h101V97.8z"/>
	<rect x="706.4" y="98.3" fill="#FFFFFF" width="100" height="86.3"/>
	<path fill="#E2E2EC" d="M805.8,98.8v85.3h-99V98.8H805.8 M806.8,97.8h-101v87.3h101V97.8z"/>
	<rect x="807.4" y="185.6" fill="#FFFFFF" width="100" height="86.3"/>
	<path fill="#E2E2EC" d="M906.8,186.1v85.3h-99v-85.3H906.8 M907.8,185.1h-101v87.3h101V185.1z"/>
	<rect x="706.4" y="185.6" fill="#FFFFFF" width="100" height="86.3"/>
	<path fill="#E2E2EC" d="M805.8,186.1v85.3h-99v-85.3H805.8 M806.8,185.1h-101v87.3h101V185.1z"/>
	<rect x="605.4" y="185.6" fill="#FFFFFF" width="100" height="86.3"/>
	<path fill="#E2E2EC" d="M704.9,186.1v85.3h-99v-85.3H704.9 M705.9,185.1h-101v87.3h101V185.1z"/>
	<rect x="504.4" y="185.6" fill="#FFFFFF" width="100" height="86.3"/>
	<path fill="#E2E2EC" d="M603.9,186.1v85.3h-99v-85.3H603.9 M604.9,185.1h-101v87.3h101V185.1z"/>
	<rect x="403.4" y="185.6" fill="#FFFFFF" width="100" height="86.3"/>
	<path fill="#E2E2EC" d="M502.9,186.1v85.3h-99v-85.3H502.9 M503.9,185.1h-101v87.3h101V185.1z"/>
	<rect x="807.4" y="272.9" fill="#FFFFFF" width="100" height="86.3"/>
	<path fill="#E2E2EC" d="M906.8,273.4v85.3h-99v-85.3H906.8 M907.8,272.4h-101v87.3h101V272.4z"/>
	<rect x="706.4" y="272.9" fill="#FFFFFF" width="100" height="86.3"/>
	<path fill="#E2E2EC" d="M805.8,273.4v85.3h-99v-85.3H805.8 M806.8,272.4h-101v87.3h101V272.4z"/>
	<rect x="605.4" y="272.9" fill="#FFFFFF" width="100" height="86.3"/>
	<path fill="#E2E2EC" d="M704.9,273.4v85.3h-99v-85.3H704.9 M705.9,272.4h-101v87.3h101V272.4z"/>
	<rect x="504.4" y="272.9" fill="#FFFFFF" width="100" height="86.3"/>
	<path fill="#E2E2EC" d="M603.9,273.4v85.3h-99v-85.3H603.9 M604.9,272.4h-101v87.3h101V272.4z"/>
	<rect x="403.4" y="272.9" fill="#FFFFFF" width="100" height="86.3"/>
	<path fill="#E2E2EC" d="M502.9,273.4v85.3h-99v-85.3H502.9 M503.9,272.4h-101v87.3h101V272.4z"/>
	<rect x="807.4" y="360.1" fill="#FFFFFF" width="100" height="86.3"/>
	<path fill="#E2E2EC" d="M906.8,360.6v85.3h-99v-85.3H906.8 M907.8,359.6h-101v87.3h101V359.6z"/>
	<rect x="706.4" y="360.1" fill="#FFFFFF" width="100" height="86.3"/>
	<path fill="#E2E2EC" d="M805.8,360.6v85.3h-99v-85.3H805.8 M806.8,359.6h-101v87.3h101V359.6z"/>
	<rect x="605.4" y="360.1" fill="#FFFFFF" width="100" height="86.3"/>
	<path fill="#E2E2EC" d="M704.9,360.6v85.3h-99v-85.3H704.9 M705.9,359.6h-101v87.3h101V359.6z"/>
	<rect x="504.4" y="360.1" fill="#FFFFFF" width="100" height="86.3"/>
	<path fill="#E2E2EC" d="M603.9,360.6v85.3h-99v-85.3H603.9 M604.9,359.6h-101v87.3h101V359.6z"/>
	<rect x="403.4" y="360.1" fill="#FFFFFF" width="100" height="86.3"/>
	<path fill="#E2E2EC" d="M502.9,360.6v85.3h-99v-85.3H502.9 M503.9,359.6h-101v87.3h101V359.6z"/>
	<rect x="807.4" y="447.4" fill="#FFFFFF" width="100" height="86.3"/>
	<path fill="#E2E2EC" d="M906.8,447.9v85.3h-99v-85.3H906.8 M907.8,446.9h-101v87.3h101V446.9z"/>
	<rect x="706.4" y="447.4" fill="#FFFFFF" width="100" height="86.3"/>
	<path fill="#E2E2EC" d="M805.8,447.9v85.3h-99v-85.3H805.8 M806.8,446.9h-101v87.3h101V446.9z"/>
	<rect x="605.4" y="447.4" fill="#FFFFFF" width="100" height="86.3"/>
	<path fill="#E2E2EC" d="M704.9,447.9v85.3h-99v-85.3H704.9 M705.9,446.9h-101v87.3h101V446.9z"/>
	<rect x="504.4" y="447.4" fill="#FFFFFF" width="100" height="86.3"/>
	<path fill="#E2E2EC" d="M603.9,447.9v85.3h-99v-85.3H603.9 M604.9,446.9h-101v87.3h101V446.9z"/>
	<rect x="403.4" y="447.4" fill="#FFFFFF" width="100" height="86.3"/>
	<path fill="#E2E2EC" d="M502.9,447.9v85.3h-99v-85.3H502.9 M503.9,446.9h-101v87.3h101V446.9z"/>
	<rect x="807.4" y="534.7" fill="#FFFFFF" width="100" height="86.3"/>
	<path fill="#E2E2EC" d="M906.8,535.2v85.3h-99v-85.3H906.8 M907.8,534.2h-101v87.3h101V534.2z"/>
	<rect x="706.4" y="534.7" fill="#FFFFFF" width="100" height="86.3"/>
	<path fill="#E2E2EC" d="M805.8,535.2v85.3h-99v-85.3H805.8 M806.8,534.2h-101v87.3h101V534.2z"/>
	<rect x="605.4" y="534.7" fill="#FFFFFF" width="100" height="86.3"/>
	<path fill="#E2E2EC" d="M704.9,535.2v85.3h-99v-85.3H704.9 M705.9,534.2h-101v87.3h101V534.2z"/>
	<rect x="504.4" y="534.7" fill="#FFFFFF" width="100" height="86.3"/>
	<path fill="#E2E2EC" d="M603.9,535.2v85.3h-99v-85.3H603.9 M604.9,534.2h-101v87.3h101V534.2z"/>
	<rect x="403.4" y="534.7" fill="#FFFFFF" width="100" height="86.3"/>
	<path fill="#E2E2EC" d="M502.9,535.2v85.3h-99v-85.3H502.9 M503.9,534.2h-101v87.3h101V534.2z"/>
	<circle fill="#FC6681" cx="416.6" cy="198.7" r="5.7"/>
	<circle fill="#FFD037" cx="430.8" cy="198.7" r="5.7"/>
	<circle fill="#6C63FF" cx="617.9" cy="283.2" r="5.7"/>
	<circle fill="#6C63FF" cx="632.1" cy="283.2" r="5.7"/>
	<circle fill="#6C63FF" cx="822" cy="198.7" r="5.7"/>
	<circle fill="#6C63FF" cx="836.2" cy="198.7" r="5.7"/>
	<circle fill="#6C63FF" cx="850.5" cy="198.7" r="5.7"/>
	<circle fill="#6C63FF" cx="864.7" cy="198.7" r="5.7"/>
	<circle fill="#6C63FF" cx="822" cy="375.3" r="5.7"/>
	<circle fill="#6C63FF" cx="836.2" cy="375.3" r="5.7"/>
	<circle fill="#6C63FF" cx="850.5" cy="375.3" r="5.7"/>
	<circle fill="#6C63FF" cx="864.7" cy="375.3" r="5.7"/>
	<circle fill="#FFD037" cx="517.2" cy="283.2" r="5.7"/>
	<circle fill="#FC6681" cx="416.6" cy="369.6" r="5.7"/>
</g>
<g id="girl">
	<circle fill="#6C63FF" cx="925.5" cy="439.9" r="5.7"/>
	<circle fill="#6C63FF" cx="922.6" cy="446.5" r="5.7"/>
	<circle fill="#6C63FF" cx="928.3" cy="434.2" r="5.7"/>
	<path fill="#6C63FF" d="M1002.7,190.7l-43.7-9.9C959,180.9,969.3,227,1002.7,190.7z"/>
	<path fill="#6C63FF" d="M1019.9,155.3l-39.9-7C980,148.3,1005.1,186.5,1019.9,155.3z"/>
	
		<linearGradient id="SVGID_2_" gradientUnits="userSpaceOnUse" x1="2365.2371" y1="-11.6688" x2="2365.2371" y2="600.2031" gradientTransform="matrix(-1 0 0 -1 3356.8201 740.79)">
		<stop  offset="0" style="stop-color:#808080;stop-opacity:0.25"/>
		<stop  offset="0.54" style="stop-color:#808080;stop-opacity:0.12"/>
		<stop  offset="1" style="stop-color:#808080;stop-opacity:0.1"/>
	</linearGradient>
	<path fill="url(#SVGID_2_)" d="M917.7,460.8c6.3,3.7,16,6.1,28.3-1.8l-0.1,17.6c0.9,12,15.8,55.9,15.8,55.9l10.5,36.1
		c7.5,25.5,11.4,51.9,11.5,78.5c0,8.8,0.8,17.9,3.3,24.7c5.6,15.1-2.2,34.6-5.6,41.8c-5.7,1.9-11.5,3.6-17.3,4.9
		c-0.5,0.1-1,0.3-1.5,0.5l-0.1-0.1c0,0-15.8,6.3-22.8,5.4c-5.2-0.6-8.5,5.9-4.4,10.7c-3.9,1-7.8,1.7-10.5,1.4
		c-7-0.9-10.5,11.2,2.6,14.6s87.6,0,87.6,0c4.3-2.2,6.6-7,5.6-11.7c5.7-0.2,9.3-0.4,9.3-0.4s13.1-6,0-22.4l-0.7,0.5l-2.8-8.3v-11.2
		c0,0,16.6-80,11.4-89.5s-7.9-57.6-7.9-57.6l1.8-52.5c4.8-9.8,7.2-25.2,8.4-37.2c1.8-5.7,2.9-11.6,3.4-17.6c0.2-2.8,0.4-5.8,0.5-8.9
		c0-6.7-1.1-13.4-3.3-19.8c5-7.2,13.1-18.3,19.8-24.9c10.5-10.3,7.9-22.4,7.9-22.4l-4.4-29.3l-10.5-49.9c1.3-13.8-1.6-21.8-4.8-26.3
		c0.8-4.5,1.5-8.9,2-13.4c2.3-19.5,1.3-39.3-3.1-58.5c-1.5-6.7-3.6-13.6-8.3-18.6c-5.3-5.7-13.9-9.2-15.9-16.8
		c-0.5-1.9-0.5-3.9-1.2-5.7c-1.9-4.9-8-6.7-13.3-7.4c-9.5-1.1-23.2-2-32.3,1.7c-6.4,2.6-15.1,9.8-18.6,17.4c-2,3.5-2.9,7.2-2.1,10.7
		c0.3,1.3,0.8,2.5,1.5,3.7c-1.4,3.7-2,7.6-2,11.5c0.1,13.8,8.6,26.1,21.4,31.1c0.2,0.7,0.4,1.3,0.6,2c0.4,1.5,0.7,3.1,0.9,4.7
		c-0.2,3-0.4,6.1-0.5,9.1c-0.1,0.4-0.2,0.8-0.3,1.2c-7.5,3.3-14.9,7.1-22,11.2c5.3,7.7-0.9,40.4-0.9,40.4
		c-13.1,7.7-26.3,27.5-12.3,48.2s6.1,43,6.1,43l-2.2,33.6l0,0v0.1L946,418h0.2l-0.2,2.5l0.4,0.1v2.7c-6.2,2.3-15.1,6.8-20.5,15.3
		c-2.5,4.1-5.6,7.9-9.2,11.3c-2.8,2.4-3.1,6.7-0.7,9.5C916.5,460,917.1,460.4,917.7,460.8z M1023.5,371.5
		c-0.5-5.8,0.5-11.7,3.1-16.9c2.1,0,4.1,0.1,6.2,0.1c0.2,1.5,0.5,2.8,0.8,4.1C1035.3,366.3,1028.2,369.9,1023.5,371.5L1023.5,371.5z
		"/>
	<path fill="#DB8B8B" d="M1025.2,704.8l3.4,10.1l-11,11l-36.2,8.4l-26.1-2.5l1.7-9.3l0,0c1-4.1,4.2-7.2,8.3-8.2
		c10.7-2.5,31.2-8.3,35.5-16.3L1025.2,704.8z"/>
	<path opacity="0.1" enable-background="new    " d="M1025.2,704.8l3.4,10.1l-11,11l-36.2,8.4l-26.1-2.5l1.7-9.3l0,0
		c1-4.1,4.2-7.2,8.3-8.2c10.7-2.5,31.2-8.3,35.5-16.3L1025.2,704.8z"/>
	<path fill="#2E3037" d="M963.7,729.3l5.1-6.7l-5.1-7.8c0,0-15.2,6.1-21.9,5.3s-10.1,11,2.5,14.3s84.3,0,84.3,0s12.6-5.9,0-21.9
		l-11,8.4c0,0-18.5,10.1-27.8,8.4L963.7,729.3z"/>
	<path fill="#DB8B8B" d="M940.9,743.6l26.1,2.5l36.2-8.4l11-11l-0.9-2.7l-1.3-3.8l-1.3-3.7l-24.4-6.7c-1.2,2-3,3.8-5,5
		c-7.9,5.4-22.2,9.3-30.6,11.3c-0.3,0.1-0.7,0.2-1,0.3c-3.6,1.2-6.3,4.2-7.3,7.9L940.9,743.6z"/>
	<path opacity="0.1" enable-background="new    " d="M940.9,743.6l26.1,2.5l36.2-8.4l11-11l-0.9-2.7l-10.1,7.7
		c0,0-18.5,10.1-27.8,8.4h-26.2l5.1-6.7l-4.5-7c-3.6,1.2-6.3,4.2-7.3,7.9L940.9,743.6z"/>
	<path fill="#2E3037" d="M949.4,741.1l5.1-6.7l-5.1-7.8c0,0-15.2,6.1-21.9,5.3s-10.1,11,2.5,14.3s84.3,0,84.3,0s12.6-5.9,0-21.9
		l-11,8.4c0,0-18.5,10.1-27.8,8.4L949.4,741.1z"/>
	<path fill="#DB8B8B" d="M970.4,252.3c0,0,40.5,4.2,34.6-12.6c-1.6-4.8-2.1-9.9-1.3-14.9c1-6.2,3.5-12,7.2-17.1l-37.9,5.9
		c2.3,3.8,4,7.9,5.1,12.2C982.6,243.6,970.4,252.3,970.4,252.3z"/>
	<path fill="#474463" d="M1039.5,444.4c0,0-0.8,36.2-9.3,53.9l-1.7,51.4c0,0,2.5,47.2,7.6,56.5c5.1,9.3-11,87.7-11,87.7v13.5
		c0,0-27,10.1-34.6-1.7l7.6-100.3l-3.4-139.1L1039.5,444.4z"/>
	<path opacity="0.1" enable-background="new    " d="M1039.5,444.4c0,0-0.8,36.2-9.3,53.9l-1.7,51.4c0,0,2.5,47.2,7.6,56.5
		c5.1,9.3-11,87.7-11,87.7v13.5c0,0-27,10.1-34.6-1.7l7.6-100.3l-3.4-139.1L1039.5,444.4z"/>
	<path fill="#FC6681" d="M1056.4,328.1l5.1,13.5l4.2,28.7c1.2,8.1-1.7,16.3-7.6,21.9c-10.1,10.1-23.6,31.2-23.6,31.2l-16-48
		c0,0,16-2.5,13.5-13.5s-1.7-31.3-1.7-31.3L1056.4,328.1z"/>
	<path opacity="5.000000e-002" enable-background="new    " d="M1056.4,328.1l5.1,13.5l4.2,28.7c1.2,8.1-1.7,16.3-7.6,21.9
		c-10.1,10.1-23.6,31.2-23.6,31.2l-16-48c0,0,16-2.5,13.5-13.5s-1.7-31.3-1.7-31.3L1056.4,328.1z"/>
	<path opacity="0.1" enable-background="new    " d="M981.5,714.9c10.8,17,27.6,7.4,30.6,5.5l-1.2-3.7l-24.4-6.7
		C985.2,711.9,983.5,713.6,981.5,714.9z"/>
	<path fill="#474463" d="M947.7,477.3c0.8,11.8,15.2,54.8,15.2,54.8l10.1,35.4c7.2,25,11,50.9,11.1,76.9c0,8.6,0.8,17.5,3.2,24.2
		c6.7,18.5-6.7,43.8-6.7,43.8c11.8,21.1,32,6.7,32,6.7v-13.5c0,0,16-73.3,11.8-87.7c-4.2-14.3-5.9-53.1-5.9-53.1v-70
		c13.5-13.5,21.7-31.3,23.1-50.3c0.2-2.8,0.4-5.7,0.5-8.7c0.7-19-12.3-41.3-17.4-49.3c-1.2-1.9-2-3-2-3l-74.4,29.5l-0.2,0.1v2.9v6.4
		L947.7,477.3z"/>
	<path opacity="0.1" enable-background="new    " d="M973,213.5c2.3,3.8,4,7.9,5.1,12.2c8.3,3.2,17.6,2.8,25.6-0.9
		c1.1-6.2,3.5-12,7.1-17.1L973,213.5z"/>
	<circle fill="#DB8B8B" cx="989.8" cy="193.3" r="32.9"/>
	<path opacity="0.1" enable-background="new    " d="M947.7,422.5l0.4,0.1c35.3,7.3,79.7-29.6,79.7-29.6c-1.2-2-2.2-4.1-3.1-6.3
		c-1.2-1.9-2-3-2-3l-74.4,29.5l-0.2,3L947.7,422.5z"/>
	<path fill="#FC6681" d="M956.9,251.4c0,0,47.2-28.7,62.4-16.9l21.1,27c0,0,13.5,4.2,11,31.2l10.1,48.9l-30.3,7.6
		c0,0-17.7,16.9-3.4,41.3c0,0-44.7,37.1-80.1,29.5l2.5-39.6c0,0,7.6-21.9-5.9-42.1s-0.8-39.6,11.8-47.2
		C956.1,291,962,259,956.9,251.4z"/>
	<path fill="#DB8B8B" d="M954.4,423.4c0,0-17.7,3.4-26.1,16.9c-2.4,4-5.4,7.7-8.8,11c-2.7,2.5-2.9,6.7-0.5,9.4
		c0.4,0.5,0.9,0.9,1.5,1.2c6.7,4,17.6,6.5,31.4-4.8C975.5,437.7,954.4,423.4,954.4,423.4z"/>
	<path opacity="0.1" enable-background="new    " d="M980.5,267.4c0,0,16.9-1.7,21.1,42.1s11,53.9,11,53.9s4.2,22.8-5.9,36.2
		s-29.5,42.1-29.5,42.1s-21.1,5.9-25.3-15.2l26.1-48.9c0,0,4.2-16.9-5.9-28.7S954.4,259,980.5,267.4z"/>
	<path fill="#FC6681" d="M978.8,264.9c0,0,16.9-1.7,21.1,42.1s11,53.9,11,53.9s4.2,22.8-5.9,36.2s-29.5,42.1-29.5,42.1
		s-21.1,5.9-25.3-15.2l26.1-48.9c0,0,4.2-16.9-5.9-28.7S952.7,256.5,978.8,264.9z"/>
	<path opacity="0.1" enable-background="new    " d="M964.9,296.5c0,0-1.7,26.1,5.9,40.5s7.6,32.9,0,43"/>
	<path opacity="0.1" enable-background="new    " d="M960.7,264.5c0,0,6.7-6.7,26.1-7.6s27.8-6.7,27.8-6.7"/>
	<path opacity="0.1" enable-background="new    " d="M1007.6,150.8c5.1,0.6,11,2.4,12.8,7.2c0.7,1.8,0.7,3.7,1.2,5.6
		c1.9,7.4,10.2,10.8,15.3,16.4c4.5,5,6.5,11.7,8,18.2c4.2,18.8,5.2,38.1,3,57.3c-1.6,14-5,27.7-5.9,41.8c-0.9,14,0.8,28.8,8.4,40.6
		c3.3,5.1,7.7,9.5,10,15.1c-4.8,3.9-11.5,4.5-17.7,4.7c-7.2,0.2-14.5,0.2-21.7,0c-3.8-0.1-7.8-0.4-11-2.3c-2.4-1.6-4.4-3.7-5.8-6.2
		c-4.2-7-5.2-15.5-5-23.7s1.5-16.3,1.6-24.5c0.1-4.5-0.3-9.2-2.8-12.8c-1.8-2.6-4.7-4.4-7.1-6.5c-9-8-12.1-20.8-12.4-32.9
		s1.7-24.1,0.7-36.1c-0.4-4.7-2.2-10.4-6.8-11.3c-1.5-0.3-3,0-4.4-0.6c-3.7-1.4-3.3-6.7-4.4-10.5c-1.2-4.3-4.9-7.6-5.9-12
		c-2.4-10.2,10.5-22.4,19.1-25.9C985.3,148.8,998.5,149.7,1007.6,150.8z"/>
	<path fill="#472727" d="M1008.5,149.1c5.1,0.6,11,2.4,12.8,7.2c0.7,1.8,0.7,3.7,1.2,5.6c1.9,7.4,10.2,10.8,15.3,16.4
		c4.5,5,6.5,11.7,8,18.2c4.2,18.8,5.2,38.1,3,57.3c-1.6,14-5,27.7-5.9,41.8c-0.9,14,0.8,28.8,8.5,40.6c3.3,5.1,7.7,9.5,10,15.1
		c-4.8,3.9-11.5,4.5-17.7,4.7c-7.2,0.2-14.5,0.2-21.8,0c-3.8-0.1-7.8-0.4-11-2.3c-2.4-1.6-4.4-3.7-5.8-6.2c-4.2-7-5.2-15.5-5-23.7
		s1.5-16.3,1.6-24.5c0.1-4.5-0.3-9.2-2.8-12.8c-1.8-2.6-4.7-4.4-7.1-6.5c-9-8-12.1-20.8-12.4-32.9s1.7-24.1,0.7-36.1
		c-0.4-4.7-2.2-10.4-6.8-11.3c-1.5-0.3-3,0-4.4-0.6c-3.7-1.4-3.3-6.7-4.4-10.5c-1.2-4.3-4.9-7.6-5.9-12
		c-2.4-10.2,10.5-22.4,19.1-25.9C986.1,147.1,999.3,148,1008.5,149.1z"/>
</g>
</svg>
