<?xml version="1.0" encoding="utf-8"?>
<!-- Generator: Adobe Illustrator 18.1.1, SVG Export Plug-In . SVG Version: 6.00 Build 0)  -->
<svg version="1.1" id="_x30_315a8ac-3017-4957-93c4-92e478eebb20"
	 xmlns="http://www.w3.org/2000/svg" xmlns:xlink="http://www.w3.org/1999/xlink" x="0px" y="0px" viewBox="212 91 1036 612"
	 enable-background="new 212 91 1036 612" xml:space="preserve">
<title>web_devices</title>
<path opacity="0.2" fill="#6C63FF" enable-background="new    " d="M363.4,91.1c-8.1-0.2-16.3,0-23.9,2.3
	c-20.6,6.3-30.3,27-27.1,44.9s16.2,33.4,29.7,47.7c13.5,14.2,28.2,28.3,35.6,45.3c3.7,8.5,5.4,18,1.7,26.5
	c-5.8,13.1-23.3,20.4-40.1,21.9s-33.6-1.4-50.5-2.4c-7.1-0.4-14.3-0.5-21,1.5c-7.3,2.1-13.4,6.3-19,10.8
	c-21.9,17.4-39.3,41.1-36.5,66c3.2,28.2,31.7,50.5,63,62.5c10.4,4,21.3,7.2,30.4,12.8c24,14.9,29.4,42.9,27,67.6
	c-2.4,24.7-10.5,49.5-6,73.9c5.3,28.5,28.9,54.2,60.7,66.3c28.4,10.7,63.8,10,89-5.1c12.3-7.4,21.5-17.6,29.6-28.2
	c12-15.7,21.9-32.8,29.5-51c3.5-8.5,6.8-17.6,15-23.5c5-3.6,11.5-5.7,17.9-7.2c19.3-4.8,39.7-6.1,59.2-10.3s39.1-12.2,49.7-26.3
	c15-20,8-45.6,8.1-69.1c0.1-53.7,39.1-101.7,53.5-154c4.7-17.1,6.5-36-4-51.3c-7.1-10.4-19.2-17.8-31.8-23.6
	c-27.8-12.7-59.4-18.3-90.5-23.8c-43.2-7.6-95.7-8.6-129.2-33.4C451.2,108,407.2,91.1,363.4,91.1z"/>
<ellipse fill="#F5F5F5" cx="783" cy="578.5" rx="465" ry="124.5"/>
<path fill="#6C63FF" d="M1169.2,277.9c0,0-35.8,35.8-15.6,89s-34.7,141.6-34.7,141.6s0.6-0.1,1.7-0.3c73.6-13,110.2-97.2,69.2-159.7
	C1174.6,325.2,1162.1,298,1169.2,277.9z"/>
<path fill="none" stroke="#535461" stroke-width="2" stroke-miterlimit="10" d="M1169.2,277.9c0,0-20.2,43.9,0,79.8
	s3.5,136.4-50.3,150.8"/>
<path fill="#6C63FF" d="M1233,422.8c0,0-40.9-6.5-44.6,30.1s-78.6,41.7-78.6,41.7l1.4,0.9c61.8,40.6,121,25.9,112-28
	C1219.9,447.5,1220.2,427.4,1233,422.8z"/>
<path opacity="0.2" fill="#F5F5F5" enable-background="new    " d="M1233,422.8c0,0-40.9-6.5-44.6,30.1s-78.6,41.7-78.6,41.7
	l1.4,0.9c61.8,40.6,121,25.9,112-28C1219.9,447.5,1220.2,427.4,1233,422.8z"/>
<path fill="none" stroke="#535461" stroke-width="2" stroke-miterlimit="10" d="M1233,422.8c0,0-31.7,7-29.1,35.8
	c2.6,28.8-47.1,63.4-94.1,36"/>
<linearGradient id="SVGID_1_" gradientUnits="userSpaceOnUse" x1="887.05" y1="99" x2="887.05" y2="464.72" gradientTransform="matrix(1 0 0 -1 -82 652)">
	<stop  offset="0" style="stop-color:#808080;stop-opacity:0.25"/>
	<stop  offset="0.54" style="stop-color:#808080;stop-opacity:0.12"/>
	<stop  offset="1" style="stop-color:#808080;stop-opacity:0.1"/>
</linearGradient>
<path fill="url(#SVGID_1_)" d="M1138.4,510.9h-64.2c1.5-3,2.2-6.2,2.2-9.6V208.8c0-11.9-9.6-21.5-21.5-21.5l0,0H557.5
	c-11.9,0-21.5,9.6-21.5,21.5c0,0,0,0,0,0v292.6c0,3.3,0.8,6.6,2.2,9.6h-66.5c-3.1,0-5.7,2.5-5.7,5.7l0,0v4.6
	c0,17.6,14.3,31.8,31.8,31.8h614.4c17.6,0,31.8-14.2,31.8-31.8l0,0v-4.6C1144,513.5,1141.5,510.9,1138.4,510.9z M742.5,529.1
	l-5.5-6.3h136.7l-6.1,6.3L742.5,529.1z"/>
<path fill="#535461" d="M565.4,191.4H1047c12.8,0,23.3,10.4,23.3,23.3v281.5c0,12.8-10.4,23.3-23.3,23.3H565.4
	c-12.8,0-23.3-10.4-23.3-23.3V214.7C542.1,201.8,552.5,191.4,565.4,191.4z"/>
<rect x="553.2" y="239.2" fill="#FFFFFF" width="504.8" height="268"/>
<circle fill="#FFFFFF" cx="805.6" cy="215.9" r="4.5"/>
<path fill="#535461" d="M883.5,507.7l-17.3,17.8H743.9l-15.7-17.8H479.3c-3.1,0-5.6,2.5-5.6,5.6v4.5c0,17.2,13.9,31.1,31.1,31.1
	h600.5c17.2,0,31.1-13.9,31.1-31.1v-4.5c0-3.1-2.5-5.6-5.6-5.6L883.5,507.7z"/>
<linearGradient id="SVGID_2_" gradientUnits="userSpaceOnUse" x1="685.945" y1="69.39" x2="685.945" y2="403.35" gradientTransform="matrix(1 0 0 -1 -82 652)">
	<stop  offset="0" style="stop-color:#808080;stop-opacity:0.25"/>
	<stop  offset="0.54" style="stop-color:#808080;stop-opacity:0.12"/>
	<stop  offset="1" style="stop-color:#808080;stop-opacity:0.1"/>
</linearGradient>
<path fill="url(#SVGID_2_)" d="M710.4,248.6H497.5c-10.8,0-19.5,8.7-19.5,19.5v295c0,10.8,8.8,19.5,19.5,19.5h212.9
	c10.8,0,19.5-8.7,19.5-19.5v-295C729.9,257.4,721.2,248.6,710.4,248.6z"/>
<path fill="#535461" d="M500.9,252.6h206c11,0,20,9,20,20v287c0,11-9,20-20,20h-206c-11,0-20-9-20-20v-287
	C480.9,261.6,489.9,252.6,500.9,252.6z"/>
<rect x="493.4" y="283.6" fill="#FFFFFF" width="221" height="265.1"/>
<circle fill="#FFFFFF" cx="602.9" cy="267.6" r="3"/>
<circle fill="#FFFFFF" cx="602.9" cy="563.7" r="9"/>
<linearGradient id="SVGID_3_" gradientUnits="userSpaceOnUse" x1="575.445" y1="42.35" x2="575.445" y2="303.35" gradientTransform="matrix(1 0 0 -1 -82 652)">
	<stop  offset="0" style="stop-color:#808080;stop-opacity:0.25"/>
	<stop  offset="0.54" style="stop-color:#808080;stop-opacity:0.12"/>
	<stop  offset="1" style="stop-color:#808080;stop-opacity:0.1"/>
</linearGradient>
<path fill="url(#SVGID_3_)" d="M548.1,348.6H438.8c-6,0-10.8,4.8-10.8,10.8v0v239.4c0,6,4.9,10.8,10.8,10.8l0,0h109.3
	c6,0,10.8-4.8,10.8-10.8l0,0V359.4C558.9,353.5,554.1,348.6,548.1,348.6L548.1,348.6z"/>
<path fill="#535461" d="M439.9,350.6h107c6.1,0,11,4.9,11,11v236c0,6.1-4.9,11-11,11h-107c-6.1,0-11-4.9-11-11v-236
	C428.9,355.6,433.9,350.6,439.9,350.6z"/>
<rect x="438.4" y="374.6" fill="#FFFFFF" width="110" height="210"/>
<circle fill="#FFFFFF" cx="480.4" cy="362.6" r="1"/>
<path fill="#FFFFFF" d="M486.4,361.6h20c0.6,0,1,0.4,1,1l0,0c0,0.6-0.4,1-1,1h-20c-0.6,0-1-0.4-1-1l0,0
	C485.4,362.1,485.9,361.6,486.4,361.6z"/>
<circle fill="#FFFFFF" cx="492.9" cy="594.7" r="7"/>
<linearGradient id="SVGID_4_" gradientUnits="userSpaceOnUse" x1="1061.6692" y1="1.4245" x2="1061.6692" y2="319.4932" gradientTransform="matrix(1 0 0 -1 -82 652)">
	<stop  offset="0" style="stop-color:#808080;stop-opacity:0.25"/>
	<stop  offset="0.54" style="stop-color:#808080;stop-opacity:0.12"/>
	<stop  offset="1" style="stop-color:#808080;stop-opacity:0.1"/>
</linearGradient>
<path fill="url(#SVGID_4_)" d="M1207,484.1c-11.1-13.4-24.5-28.9-22.6-46.7c1.5-14.5-2.1-27.9-1.4-42.4c1-20.6-3.1-36.8-18-50
	c-8.7-7.7-23.2-13.8-27.5-12.3c-8.6,3.1-17.9,1.9-26.7,4c-6.7,1.6-11.1,4-13.9,7c-5.5,5-5.6,12-3.1,19.5
	c-8.7,15.9-2.8,35.9,13.1,44.6c1,0.6,2.1,1.1,3.1,1.5c-6.2,2.6-11.5,8.5-13.6,20.6c-1.4,8.3-3.6,16.4-6.5,24.3
	c-1.3,0.6-2.6,1.1-4,1.6c0.3,0.1,0.6,0.2,0.9,0.3c-0.7,0.3-1.3,0.5-2,0.7c1.2,0.5,2.4,0.8,3.7,1.1c-8,20.2-18,32.7-18,32.7
	s-18.7,4.1-25.9-3.1c0,0,1.2,1.4,2.8,3.5c-7.1-2.9-18.7-7.7-28.7-11.7c-7.2-2.9-9.1,0-9,4c-1.8,0.2-3.5,0.8-5,1.7
	c-2.1-1.4-4.4-2.6-6.7-3.6c-4.1-1-17.6-8.2-31.1,16.5c-7.8,14.4-27.9,40.6-43.4,60c-30,13.8-69.2,31.3-83.7,35.7h-9.3
	c-1.2-2-2.1-3.3-2.1-3.3l-0.7,0.5l-0.3-0.5c0,0-18.3,12.7-36.9,12.8c-2.6,0-5.3-0.4-7.8-1c-8.5-2.2-14.6-3.1-18.9-3
	c-5.1-0.1-8,1.1-9.8,3.4l0,0c-0.2,0.3-0.5,0.6-0.7,0.9l0,0c-0.2,0.3-0.4,0.7-0.5,1l0,0c-0.2,0.4-0.3,0.7-0.5,1.1
	c-0.1,0.7,0.1,1.4,0.6,2c0.2,0.3,0.5,0.7,0.8,1l0.5,0.6c2.3,2.4,6.6,5.6,11.9,9.2c1.5,1,3.2,2.1,4.8,3.2l3.2,2l2.9,1.8l1.2,0.7
	l1.3,0.8l2.3,1.4l1.4,0.8l2.6,1.5l2.1,1.2c5.4,3.2,10.9,6.3,15.8,9.1l3.4,2l0.3,0.2l2.2,1.2l3.8,2.1l2.6,1.4l1.2,0.7l1.3,0.7
	l0.3,0.1l2.3,1.2c0.9,0.2,1.9-0.1,2.7-0.7c0.7-2.8,2.3-8.8,4-9.3s9.2-13.5,11.3-22.3h20.2c4-0.3,7.9-0.9,11.8-1.8
	c-5.2,3.7-10.4,6.1-14.4,5.1c-8.5-2.1-16.5,3.1-17.4,8.2c0,0.1-0.1,0.2-0.1,0.3s0,0.2-0.1,0.3s-0.1,0.3-0.1,0.4s0,0.2,0,0.3
	s0,0.3,0,0.4s0,0.2,0,0.3s0,0.3,0,0.4s0,0.2,0,0.3s0.1,0.3,0.1,0.4s0,0.2,0.1,0.3c0.1,0.2,0.1,0.4,0.2,0.5l0,0.1
	c0.1,0.2,0.2,0.4,0.4,0.6l0.2,0.2c0.1,0.1,0.2,0.3,0.3,0.4l0.2,0.2c0.1,0.1,0.3,0.2,0.4,0.4l0.3,0.2l0.5,0.3l0.3,0.2l0.5,0.3
	l0.4,0.2l0.7,0.3l0.3,0.2c0.4,0.2,0.7,0.3,1.2,0.4c0.7,0.2,1.4,0.4,2.3,0.7l0.9,0.2l1.3,0.3l0.7,0.2c0.9,0.2,1.8,0.4,2.8,0.6
	l1.3,0.3l1.1,0.2l2.5,0.4c1.6,0.3,3.2,0.5,5,0.8l4.4,0.7l5.7,0.8l1.3,0.2l2,0.3l2.9,0.4l2,0.3l0,0l5.2,0.7l1.6,0.2l3.3,0.4
	c4.3,0.5,8.5,1,12.3,1.4l4.4,0.5l2.2,0.3l1,0.1l2.7,0.3l1.5,0.2l1.8,0.2l2.6,0.3h0.3l1.7,0.2l0,0c0.8,0.1,1.6-0.5,1.7-1.3
	c0,0,0-0.1,0-0.1l0,0l0,0c0,0,0-0.1,0-0.2c0.2-0.2,0.2-0.5,0.2-0.8c0-2.5,0.4-4.9,0.9-7.3c0.1-0.4,0.2-0.8,0.4-1.3l0.2-0.5
	c0.2-0.5,0.4-1,0.6-1.5c0.2-0.4,0.3-0.8,0.4-1.1c0-0.1,0.1-0.2,0.1-0.4s0.1-0.4,0.1-0.6c2.1-7.1-0.4-20.4-1.2-25.6
	c-0.2-1.7-0.6-3.3-1.1-4.9c0.1,0,0.3,0,0.4,0c1.1-0.4,2.1-0.9,3-1.6c15.3-5.5,28.2-11.7,32.2-17.9c6.6-1.7,13.6-1,19.7,2.1
	c7.9,3.9,67.7,23.5,95.6,32.5c5,4.3,8.9,6.8,11.1,6.6c0,0,35.5,5.7,49.7-5.5c1.3,0.9,2.1,1.3,2.1,1.3s20.7-10.3,23.8-23.7
	c1-4.3,1.9-10.7,2.8-17.8c4.8-4.8,7.5-11.4,7.5-18.2c0.7-22.5,9.4-48.2,15.8-71c7.8,0.6,10.9-0.9,18.1-4.4l-0.3-0.4
	C1206.1,484.5,1206.6,484.3,1207,484.1z M1088.2,517.8l-4-1.3c1.3-1.8,2.5-3.7,3.5-5.7L1088.2,517.8z M1065.9,527.2l24,14.4l0.2,2.9
	c-0.3,2.2-0.2,4.5,0.2,6.7C1079.8,541.9,1067.4,530.5,1065.9,527.2L1065.9,527.2z M1056.1,506.2c-2.6-1.1-4.8-2.1-6.3-2.9
	c2,0.1,3.9,0.3,5.6,0.3C1055.7,504.5,1056,505.4,1056.1,506.2L1056.1,506.2z M991.8,529.7c0,0,4.1-9.3,13.5,6.2
	c1.5,2.4,4.1,6.2,7.7,11l-27.2-3.6C989,538.2,991.2,533.6,991.8,529.7L991.8,529.7z"/>
<path fill="#F7C4A7" d="M1051.5,492.5c0,0-19-8-34-14s-6,14-6,14s25,7,25,8s21,2,21,2L1051.5,492.5z"/>
<path opacity="5.000000e-002" enable-background="new    " d="M1051.5,492.5c0,0-19-8-34-14s-6,14-6,14s25,7,25,8s21,2,21,2
	L1051.5,492.5z"/>
<path fill="#575988" d="M1132.5,413.5c0,0-34-18-40,17s-25,59-25,59s-18,4-25-3c0,0,17,20,9,22c0,0,18,13,26,9s14-31,17-38
	S1108.5,411.5,1132.5,413.5z"/>
<path opacity="0.1" enable-background="new    " d="M1132.5,413.5c0,0-34-18-40,17s-25,59-25,59s-18,4-25-3c0,0,17,20,9,22
	c0,0,18,13,26,9s14-31,17-38S1108.5,411.5,1132.5,413.5z"/>
<path fill="#F7C4A7" d="M1113.5,401.5c0,0,21,24,22,44s24-21,26-22s-20-35-22-46S1113.5,401.5,1113.5,401.5z"/>
<polygon fill="#F7C4A7" points="1128,411.8 1114.8,423.8 1121,449 1138,433 1136,417 "/>
<polygon fill="#F7C4A7" points="851.5,589.5 828.5,589.5 837.5,611.5 859.5,605.5 "/>
<path opacity="0.1" enable-background="new    " d="M833.8,586.3c0,0-23.8,16.6-44.2,11.4s-25.9-3.2-28.3,3.4
	c-2.2,6.1,56.8,38.5,66.3,43.7c0.5,0.3,1.2,0.1,1.5-0.4c0-0.1,0.1-0.2,0.1-0.3c0.6-2.7,2.2-8.5,3.8-9c2.2-0.6,12-19,11.5-26.2
	S833.8,586.3,833.8,586.3z"/>
<path fill="#F3B5B7" d="M832.8,586.3c0,0-23.8,16.6-44.2,11.4s-25.9-3.2-28.3,3.4c-2.2,6.1,56.8,38.5,66.3,43.7
	c0.5,0.3,1.2,0.1,1.5-0.4c0-0.1,0.1-0.2,0.1-0.3c0.6-2.7,2.2-8.5,3.8-9c2.2-0.6,12-19,11.5-26.2S832.8,586.3,832.8,586.3z"/>
<path fill="#575988" d="M1029.5,546.5l-67-9c0,0-109,52-122,53l3,23h20c8,0,86-17,97-34c6.4-1.7,13.1-1,19,2c10,5,106,36,106,36
	L1029.5,546.5z"/>
<path opacity="0.1" enable-background="new    " d="M1029.5,546.5l-67-9c0,0-109,52-122,53l3,23h20c8,0,86-17,97-34
	c6.4-1.7,13.1-1,19,2c10,5,106,36,106,36L1029.5,546.5z"/>
<polygon fill="#F7C4A7" points="910.5,577.5 899.5,591.5 910.5,597.5 926.5,585.5 "/>
<path fill="#575988" d="M1101.5,561.5c0,0-36-30.8-38.5-36.4s-61.5-43.6-65.5-44.6s-17-8-30,16s-61,82-61,82s15,21,20,20
	s61-48,65-71c0,0,4-9,13,6s67,87,78,86c0,0,43,7,52-10S1101.5,561.5,1101.5,561.5z"/>
<path fill="#DDDBE2" d="M1122,415c0,0-12.5,5.5-13.5,28.5s-23,62-23,62l2,46c0,0,24,24,26,39s19,25,19,25s20-10,23-23s5-45,10-57
	s2-87,2-87l-15-26l-8-9l-21,24C1123.5,437.5,1112,422,1122,415z"/>
<path opacity="0.1" enable-background="new    " d="M1092.5,536.5c0,0-3-36,6-44l18-51c0,0,6.5-24.5,5.5-26.5s-23.5,19.5-23.5,19.5
	l-15,53l4,56L1092.5,536.5z"/>
<path fill="#575988" d="M1091.5,536.5c0,0-3-36,6-44l18-51c0,0,7-25,6-27s-24,20-24,20l-15,53l4,56L1091.5,536.5z"/>
<path fill="#F7C4A7" d="M1098.5,520.5c0,0-50-16-53-20s-35-30-46-12s41,23,41,23l53,32L1098.5,520.5z"/>
<path opacity="0.1" enable-background="new    " d="M912.7,591.4l-14.8-2.7c0,0-24.2,31-36.9,27.9s-24.3,10.4-10.9,14.8
	c12,3.9,64.1,9.5,74,10.5c0.8,0.1,1.5-0.5,1.6-1.3c0,0,0-0.1,0-0.1c0.1-3.9,0.9-7.7,2.3-11.3c2.7-6.5,0-20.6-0.7-26
	c-0.4-3.2-1.4-6.2-2.9-9L912.7,591.4z"/>
<path fill="#F3B5B7" d="M912.4,592.4l-14.8-2.7c0,0-24.2,31-36.8,27.9s-24.3,10.4-10.9,14.8c12,3.9,64.1,9.5,74,10.5
	c0.8,0.1,1.5-0.5,1.6-1.3c0,0,0-0.1,0-0.1c0-3.9,0.8-7.7,2.2-11.3c2.7-6.5,0-20.6-0.7-26c-0.4-3.2-1.4-6.2-2.9-9L912.4,592.4z"/>
<circle opacity="0.1" enable-background="new    " cx="1121" cy="381" r="32"/>
<circle fill="#F7C4A7" cx="1118" cy="381" r="32"/>
<path fill="#575988" d="M1149.5,412.5c0,0,38,13,38,40s-21,70-22,105s-56,30-56,30s-8-118,0-127S1153.5,416.5,1149.5,412.5z"/>
<path opacity="0.1" enable-background="new    " d="M1142.5,468.5c0,0-14,62-47,51c0,0-17,25-5,36c0,0,29,7,48-12s33-26,36-49
	s5-55-5-52S1142.5,468.5,1142.5,468.5z"/>
<path fill="#575988" d="M1143.5,467.5c0,0-14,62-47,51c0,0-17,25-5,36c0,0,29,7,48-12s33-26,36-49s5-55-5-52
	S1143.5,467.5,1143.5,467.5z"/>
<path fill="#DDDBE2" d="M928.5,627c0,0.1-0.1,0.2-0.1,0.3c-0.7,1.7-1.2,3.5-1.6,5.3c0.2-0.8,0.5-1.6,0.8-2.4
	C928.1,629.2,928.4,628.1,928.5,627z"/>
<path fill="#DDDBE2" d="M850.6,629.5c-4.1-1.3-5.8-3.6-5.9-5.9c-1.7,3.3-0.6,6.9,5.2,8.8c12,3.9,64.1,9.5,74,10.5
	c0.8,0.1,1.5-0.5,1.6-1.3c0,0,0-0.1,0-0.1l0,0c0-0.8-0.6-1.4-1.3-1.5C913.3,638.8,862.5,633.4,850.6,629.5z"/>
<path fill="#DDDBE2" d="M761.8,599.4c0.3-0.7,0.6-1.4,1-2.1c-1.1,1.1-1.9,2.4-2.3,3.9c-2.2,6.1,56.8,38.5,66.3,43.7
	c0.5,0.3,1.2,0.1,1.5-0.4c0-0.1,0.1-0.2,0.1-0.3l0,0c0.1-0.5-0.1-1-0.5-1.2C817.3,637.3,759.6,605.5,761.8,599.4z"/>
<path fill="#DDDBE2" d="M833.4,633.4c-0.5,0.1-1,0.8-1.5,1.8l0.2-0.1c0.4-0.1,1.2-1,2.1-2.3C834,633.1,833.7,633.3,833.4,633.4z"/>
<path opacity="0.1" enable-background="new    " d="M1113.6,409.2c-2.8,6.2-3.4,13.2-5.5,19.8c-4.1,12.9-14.4,23.6-26.8,27.8
	c10.4,4.1,22.6-0.9,30.7-9.3s12.7-19.6,17.3-30.5c11.7,7.8,10.2,25.9,14.2,39.9c3.4,12.4,12,22.6,23.6,28.2
	c11.5,5.2,24.8,4.9,36.1-0.7c-10.7-13-25.9-30.9-24.1-48.3c1.5-14.1-8.6-24.8-7.9-38.9c1-20-6.7-30.2-21-43c-8.4-7.5,4.8-18.1-6-15
	c-4.3,1.2-8.7-3.3-12.9-1.8c-8.3,3-17.3,1.8-25.8,3.8C1061.1,351.4,1117.7,400.1,1113.6,409.2z"/>
<path fill="#FC6681" d="M1114.6,408.2c-2.8,6.2-3.4,13.2-5.5,19.8c-4.1,12.9-14.4,23.6-26.8,27.8c10.4,4.1,22.6-0.9,30.7-9.3
	s12.7-19.6,17.3-30.5c11.7,7.8,10.2,25.9,14.2,39.9c3.4,12.4,12,22.6,23.6,28.2c11.5,5.2,24.8,4.9,36.1-0.7
	c-10.7-13-24.9-27.9-23.1-45.3c1.5-14.1-0.7-28.5,0-42.6c1-20-8.8-39.3-23.2-52.2c-8.4-7.5-21.5-8.5-25.7-7
	c-8.3,3-17.3,1.8-25.8,3.8C1062.1,350.4,1118.7,399.1,1114.6,408.2z"/>
</svg>
