<svg width="60" height="60" viewBox="0 0 60 60" fill="none" xmlns="http://www.w3.org/2000/svg">
<path d="M30 26C33.86 26 37 22.859 37 19C37 15.141 33.86 12 30 12C26.14 12 23 15.141 23 19C23 22.859 26.14 26 30 26ZM30 14C32.757 14 35 16.243 35 19C35 21.757 32.757 24 30 24C27.243 24 25 21.757 25 19C25 16.243 27.243 14 30 14Z" fill="black"/>
<path d="M29.823 54.757L45.164 32.6C50.918 24.929 50.086 12.32 43.383 5.618C39.761 1.995 34.945 0 29.823 0C24.701 0 19.885 1.995 16.263 5.617C9.55997 12.319 8.72797 24.928 14.459 32.569L29.823 54.757ZM17.677 7.031C20.922 3.787 25.235 2 29.823 2C34.411 2 38.724 3.787 41.969 7.031C48.019 13.08 48.764 24.468 43.542 31.43L29.823 51.243L16.082 31.4C10.882 24.468 11.628 13.08 17.677 7.031Z" fill="black"/>
<path d="M42.117 43.0071C41.567 42.9401 41.071 43.3341 41.007 43.8831C40.943 44.4321 41.335 44.9291 41.883 44.9931C52.399 46.2311 58 49.5671 58 51.5001C58 54.2141 47.348 58.0001 30 58.0001C12.652 58.0001 2 54.2141 2 51.5001C2 49.5671 7.601 46.2311 18.117 44.9931C18.665 44.9291 19.057 44.4311 18.993 43.8831C18.928 43.3341 18.432 42.9381 17.883 43.0071C7.354 44.2471 0 47.7391 0 51.5001C0 55.7241 10.305 60.0001 30 60.0001C49.695 60.0001 60 55.7241 60 51.5001C60 47.7391 52.646 44.2471 42.117 43.0071Z" fill="black"/>
</svg>
