<?xml version="1.0" encoding="utf-8"?>
<!-- Generator: Adobe Illustrator 18.1.1, SVG Export Plug-In . SVG Version: 6.00 Build 0)  -->
<svg version="1.1" id="_x39_af98f83-10c5-4067-bc84-20554b2827d8"
	 xmlns="http://www.w3.org/2000/svg" xmlns:xlink="http://www.w3.org/1999/xlink" x="0px" y="0px" viewBox="199 2.1 1009.5 789.9"
	 enable-background="new 199 2.1 1009.5 789.9" xml:space="preserve">
<title>empty</title>
<ellipse opacity="0.1" fill="#6C63FF" enable-background="new    " cx="553.1" cy="743.3" rx="176.1" ry="33.4"/>
<path opacity="0.1" fill="#6C63FF" enable-background="new    " d="M785.6,113.5c-64.7-2.2-126.4-23.1-185.2-46
	C541.5,44.6,483.2,19.3,420,7.2C379.4-0.6,332.9-1.7,300.2,20c-31.5,21-41.7,57.1-47.2,90.7c-4.1,25.3-6.5,51.9,4.7,75.5
	c7.8,16.4,21.7,30.2,31.4,46c33.5,54.7,9.8,122.2-26.4,175.6c-17,25.1-36.8,49-49.9,75.6c-13.1,26.6-19.2,57.3-7.7,84.6
	c11.4,27,38.5,47.2,67.9,61.5c59.7,28.9,130,37.2,198.6,41.9c151.8,10.4,304.5,5.9,456.7,1.4c56.3-1.7,112.9-3.3,168.3-12.1
	c30.8-4.8,62.6-12.5,84.9-31.1c28.4-23.5,35.4-63.4,16.4-92.9c-31.9-49.5-120-61.8-142.3-114.9c-12.3-29.2,0.3-61.8,18.2-88.9
	c38.2-58.2,102.3-109.2,105.7-175.7c2.3-45.7-28.5-91.4-76.1-113c-49.9-22.7-119.2-19.8-156,17.7
	C909.4,100.6,842.7,115.5,785.6,113.5z"/>
<linearGradient id="SVGID_1_" gradientUnits="userSpaceOnUse" x1="517.0893" y1="305.6994" x2="829.35" y2="305.6994" gradientTransform="matrix(1 0 0 -1 -95.23 741.11)">
	<stop  offset="0" style="stop-color:#808080;stop-opacity:0.25"/>
	<stop  offset="0.54" style="stop-color:#808080;stop-opacity:0.12"/>
	<stop  offset="1" style="stop-color:#808080;stop-opacity:0.1"/>
</linearGradient>
<path fill="url(#SVGID_1_)" d="M734.1,363.8l-30.6-20.6l0,0l15.5-23l-80.9-6.5L609,336.2l-36.4-20.4l-30.4,3.6l-0.4-8
	c-0.4-8.3-1.2-16.7-2.5-24.9c0.1-2.5,0.2-5.4,0.2-8.5c0-13.1-1.8-30.6-9.6-42.2l1.8-16.2l-14.6-17.3c2.3-4.7,5-9.2,8-13.5
	c0.5-0.7,1-1.4,1.5-2.1c19-1.4,33.9-16.9,33.9-36c0-0.9,0-1.8-0.1-2.6c0-0.4-0.1-0.7-0.1-1.1c1.8,1,3.7,2,5.6,3
	c0.4,0.5,0.8,1,1.2,1.6l0,0l0.1,0.1l0.6,0.7l0.2,0.2c0.2,0.2,0.4,0.5,0.6,0.7l0.1,0.2c0.5,0.6,1.1,1.2,1.7,1.8
	c0.1,0.1,0.1,0.1,0.2,0.2l0.8,0.7l0.2,0.2c0.6,0.6,1.3,1.1,2,1.6l0.2,0.2l0.9,0.6l0.3,0.2c0.3,0.2,0.7,0.4,1,0.6l0.1,0.1
	c0.4,0.2,0.8,0.4,1.2,0.6l0.2,0.1c0.3,0.1,0.7,0.3,1,0.4l0.3,0.1c0.4,0.1,0.7,0.2,1,0.3l0.2,0.1c0.4,0.1,0.9,0.2,1.3,0.3h0
	c0.4,0.1,0.9,0.1,1.3,0.1h0.3c0.4,0,0.8,0,1.2,0h0.3c0.5,0,1-0.1,1.4-0.2c2.2-0.3,4.4-1.1,6.3-2.3c0.5-0.3,0.9-0.7,1.3-1.2
	c2-2.6-0.2-5.5-0.2-5.5l0,0c-0.8-1.9-5.8-3.2-5.8-3.2s-16-6.7-16-12s-4-32.9-45.3-39.2c0,0-26.9-1.5-34.4,12.9l-0.2,1.7
	c-2.2,1.4-4.1,4.2-6.3,5c-0.9,0.2-1.9,0.5-2.7,1v-0.2l0,0c-0.3,0.2-0.5,0.5-0.6,0.8c-0.5,0.9-0.8,2-0.8,3c-0.2,1.3-0.7,2.5-1.3,3.6
	c-0.2,0.3-0.4,0.6-0.6,0.9l0,0l-0.2,0.3c1.2,0.1,2.3-0.1,3.4-0.6c-0.2,1.4-0.5,2.7-1,4c1.3,0,2.5-0.7,3.1-1.8v-0.1l0.1-0.2
	c0.3-0.5,0.5-0.9,0.6-1.4l-0.1,0.1c0.2-0.6,0.4-1.3,0.6-1.9c0.1-0.4,0.3-0.7,0.5-1c0.5-0.5,1.3-0.8,2.1-0.7l-0.4,8.7h0.2
	c-0.2,0.6-0.5,1.2-0.9,1.8c-1.4,2.3-4,3.9-5,6.4c-0.4,1.2-0.6,2.5-0.5,3.8c0,0.8,0.1,1.5,0.1,2.3v-0.1c0.1,2,0.2,3.9-0.9,5.5
	c-0.7,1.1-1.9,1.9-2.3,3.2c-0.1,0.3-0.2,0.7-0.1,1.1c0.1,1.1,0.3,2.2,0.7,3.2c0,0,0,0,0-0.1c0.2,0.8,0.3,1.6,0.2,2.4
	c-0.5,2-2.9,3.7-2.8,5.6c0,0.3,0,0.5,0.1,0.7c0.5,0.9,1.3,1.6,2.3,2c1.5,0.9,3.3,1.3,5.1,1.1c0.7-0.1,1.3-0.3,1.9-0.6
	c-0.7,1.6-1.4,3.2-2.1,4.7c-0.1,0.2-0.2,0.5-0.4,0.7c0,0-6.2-4.1-9.7,4.3c-1,1.7-1.8,3.7-2.2,5.6c-0.2,0.8-0.4,1.6-0.7,2.3
	c-1.6,2.6-3.9,4.7-6.7,6c-7.2,3.3-36.1,39.3-36.6,48.7c-0.3,3.6-0.9,7.3-1.8,10.8c-2.3,8.3-2.9,17-1.7,25.5c0.4,2.8,0.9,5.5,1.8,8.1
	c3.1,9.3,5.1,26.7,5.1,26.7l3.3,30.2c-0.1,4.2,0.1,8.3,0.5,12.5c-3.4,3.9-17,20-11.8,24.4c4,3.5,11,2.9,14.9,2.2
	c-3.3,8.2-8.5,22.4-9.2,32.2c-1,14.5,1.7,33.6,6,41s18.6,26.2,18.6,26.2s-0.7,25.9,4.4,35.3c5.1,9.4,7.2,28.9,7.2,28.9
	s4.8,16.5,2.4,22.5c-2.4,6.1,4.4,11.1-2.7,15.1s-16.3,94.9-16.3,94.9s-3.7,59.5,0,62.6c0.2,0.1,0.4,0.3,0.6,0.4v20
	c0,0-2.6,4.2,7.9,5.1c7.1,0.6,27.3,1.9,39.3,2.6l9.3,0.6c0,0,22,4.4,31.7,0c9.7-4.4,27-4.3,24.4-15.8c-0.3-1.6-0.8-3.1-1.4-4.6
	c-2.8-7.2-7.6-8-16.4-10c-0.5-0.1-1-0.2-1.5-0.3c-9.3-1.6-12.3,2.7-17.5-2.9c-4.5-4.8-18.9-10.3-23.8-12c0.1-0.4,0.3-0.7,0.4-1.1
	c-1.4-0.2-2.7-0.9-3.7-1.8L511,723l7.9,0.5c0,0,18.7,3.7,27,0s22.9-3.6,20.7-13.5c-0.3-1.3-0.7-2.7-1.2-3.9
	c-2.4-6.1-6.5-6.8-13.9-8.5c-0.4-0.1-0.8-0.2-1.2-0.3c-7.9-1.4-10.5,2.3-14.9-2.5c-3.8-4.1-15.7-8.6-20-10.2c0-2.2-3-5.4-4.9-8.6
	c-2.2-3.7,1.9-16.7,1.9-16.7l2.3-53.7c0.9-0.4,1.8-0.7,2.8-0.8c0,0,10.6-10.1,8.2-20.9c-0.5-3.3-0.7-6.5-0.8-9.8
	c3.5-3.2,8.3-8,9.6-10.9c2.2-4.8,0-28,0-28v-88.7l17.7,1.8l16.1,1.6l4.9,0.5l16.1,1.6l36.9,3.7l33.3-6.3l14.4-2.7l29.6-5.6v-72.4
	L734.1,363.8z M490.5,123.9l-2.1-0.2C489.1,123.7,489.8,123.8,490.5,123.9z"/>
<path fill="#EFB7B9" d="M662.3,410.8c-10,14.3-46,6.7-46,6.7l-27.9-26.1l-3.8-3.5l6.3-13.4c0,0,2,0.5,5.4,1.5
	C614.5,381.4,670.8,398.8,662.3,410.8z"/>
<path opacity="0.1" enable-background="new    " d="M596.5,376.1c-1.2,4.3-4.6,10.7-8,15.4l-3.8-3.5l6.3-13.4
	C591.1,374.6,593.1,375.1,596.5,376.1z"/>
<path fill="#DCE6F2" d="M500.9,225.5c0,0-25.7,11.4-24.4,39.4c0.9,18,2.9,36,5.9,53.8c0,0-5.3,42.1,16.6,52.9
	c21.9,10.9,42.1,19.8,42.1,19.8s34.2,3.7,38.5,5.2s17.5-21.7,15.1-25.3s-33.8-11.2-37.8-17.3s-13.3-9.8-13.3-9.8s-9.5-5.8-10.2-11
	s1.9-9.1,2.5-11.4s2.3-24.4,2.3-24.4S548.9,218.6,500.9,225.5z"/>
<path opacity="0.1" enable-background="new    " d="M517.9,317.4c0,0-35.2,5.9-31.8,18.2C486,335.7,498.8,322.4,517.9,317.4z"/>
<path opacity="0.1" enable-background="new    " d="M518.1,322.4c0,0-19.4,15.8-15.6,16.6S518.1,322.4,518.1,322.4z"/>
<path opacity="0.1" enable-background="new    " d="M527.5,327.9c0,0-5.2,10.6-2,9.9S527.5,327.9,527.5,327.9z"/>
<path opacity="0.1" enable-background="new    " d="M597.8,377.3l-2.1-0.6c0.6-2,0.8-3.6,0.3-4.4c-2.5-3.6-33.8-11.2-37.8-17.3
	s-13.3-9.8-13.3-9.8s-9.5-5.8-10.2-11s1.9-9.1,2.5-11.4s2.3-24.4,2.3-24.4s10.8-78.7-37.2-71.9c0,0-25.7,11.4-24.4,39.4
	c0.9,18,2.9,36,5.9,53.8c0,0-5.3,42.1,16.6,52.9s42.1,19.8,42.1,19.8s34.2,3.7,38.5,5.2c1.6,0.6,4.5-2.4,7.4-6.5l1.6,1.5l27.9,26.1
	c0,0,36,7.6,46-6.7C672.1,399.9,615.8,382.5,597.8,377.3z"/>
<path fill="#965D7B" d="M486.1,120.5c-1,0.2-1.9,0.6-2.8,1.1c-1,0.8-1,2.3-1.3,3.5c-0.3,1.7-1,3.4-2,4.8c1.1,0.1,2.3-0.1,3.3-0.6
	c-0.2,1.4-0.5,2.7-1,4c1.3,0,2.4-0.7,3-1.8c0.5-1.1,0.9-2.3,1.3-3.5c0.1-0.4,0.3-0.7,0.5-1c0.9-1.1,2.6-0.6,4-0.5
	c2.4,0.2,4.7-0.9,6.1-2.9c1.5-2.3,1.6-8.1-2-8.8C491.5,114.2,489.2,119.3,486.1,120.5z"/>
<g opacity="0.1">
	<path d="M483.3,122.8c0.1-0.5,0.1-1,0.3-1.5l0,0c-1,0.8-1,2.2-1.3,3.5c-0.1,0.7-0.3,1.4-0.6,2.1C482.5,125.6,483,124.2,483.3,122.8
		z"/>
	<path d="M483.6,131c0.5-1.3,0.8-2.6,1-4c-1,0.4-2.1,0.6-3.2,0.6c-0.3,0.7-0.7,1.4-1.1,2c1.1,0.1,2.3-0.1,3.3-0.5
		c-0.2,1.4-0.5,2.7-1,4c1.3,0,2.4-0.7,3-1.8c0.2-0.5,0.5-0.9,0.6-1.4C485.6,130.6,484.6,131.1,483.6,131z"/>
	<path d="M492.4,124.2c-1.4-0.1-3.1-0.6-4.1,0.5c-0.2,0.3-0.4,0.6-0.5,1c-0.1,0.3-0.2,0.5-0.2,0.8c1-0.8,2.5-0.4,3.8-0.2
		c2.4,0.2,4.7-0.9,6.1-2.9c0.3-0.5,0.5-1,0.7-1.6C496.7,123.5,494.6,124.4,492.4,124.2z"/>
</g>
<polygon fill="#DCE6F2" points="516.2,203.1 531.5,221.4 529.5,239.9 511.1,211.1 "/>
<polygon opacity="0.1" enable-background="new    " points="531.5,221.4 529.6,238.8 529.5,239.9 512.9,213.9 511.1,211.1 
	511.6,210.3 516.2,203.1 517.3,204.3 "/>
<path fill="#EFB7B9" d="M539.4,178.2c-5.2,1.5-10.1,6.6-14.4,12.7c-2.9,4.3-5.5,8.7-7.8,13.3c-1.4,2.8-2.7,5.5-3.7,7.9l-0.7,1.7
	c-1.7,4.1-2.7,6.9-2.7,6.9S470.6,191,476.9,189c2.1-0.7,4.9-5.2,7.6-10.8l0.3-0.7c1.7-3.6,3.4-7.7,4.9-11.5
	c3.1-7.9,5.4-14.7,5.4-14.7S555.2,173.7,539.4,178.2z"/>
<path fill="#444053" d="M563,149.6c0,0,9.1,16.5,21.4,14.3s7.2-8.9,7.2-8.9L563,149.6z"/>
<path fill="#A36468" d="M545.4,720.8c-8.1,3.7-26.3,0-26.3,0l-7.7-0.5c-10-0.6-26.7-1.7-32.7-2.2c-8.6-0.7-6.5-4.3-6.5-4.3v-21.4
	l41.9-10.6c0,0,16.6,5.7,21.1,10.6c4.3,4.7,6.8,1.1,14.5,2.5c0.4,0.1,0.8,0.2,1.2,0.3c7.3,1.7,11.3,2.3,13.6,8.4
	c0.5,1.3,0.8,2.6,1.1,3.9C567.8,717.2,553.4,717.1,545.4,720.8z"/>
<path opacity="0.1" enable-background="new    " d="M564.5,703.5c-1.5,0.9-3.1,1.7-4.7,2.4c-5.5,2.5-10.7,5.6-16.3,7.9
	s-11.5,4.1-17.6,3.6c-3.1-0.2-6.4-1-9.4-0.1c-1.9,0.7-3.6,1.7-5.2,2.9c-10-0.6-26.7-1.7-32.7-2.2c-8.6-0.7-6.5-4.3-6.5-4.3v-2.5
	c0.3,0,0.7-0.1,1.1-0.1c2.1,0,4.1,0.3,6.1,0.9c4.3,1.2,8.7,2.3,13,3.5c0.7-2.7,2.5-5,5-6.4c2.5-1.3,5.3-2,8.1-1.8
	c6.7,0.1,13.1,3.3,19.8,3.6c1.9,0.2,3.8-0.1,5.5-0.9c0.9-0.5,1.7-1.1,2.6-1.6c1.4-0.7,3-1.2,4.5-1.5c4.4-1.1,8.7-2.5,13-4.2
	c1.2-0.5,2.6-1.3,2.4-2.6c-0.2-1.7-2.9-1.9-3.6-3.5c-0.3-0.6-0.2-1.2,0.1-1.8c0.4,0.1,0.8,0.2,1.2,0.3
	C558.2,696.8,562.1,697.5,564.5,703.5z"/>
<path fill="#A36468" d="M536.8,767.6c-9.5,4.3-31,0-31,0l-9-0.5c-11.7-0.8-31.5-2-38.4-2.6c-10.2-0.8-7.7-5-7.7-5v-25.2l49.3-12.5
	c0,0,19.5,6.7,24.8,12.5c5.1,5.6,8,1.3,17.1,2.9c0.5,0.1,0.9,0.2,1.4,0.3c8.6,2,13.3,2.8,16,9.9c0.6,1.5,1,3,1.3,4.6
	C563.2,763.3,546.3,763.2,536.8,767.6z"/>
<path opacity="0.1" enable-background="new    " d="M559.3,747.3c-1.8,1.1-3.6,2.1-5.5,2.8c-6.5,2.9-12.6,6.5-19.2,9.3
	c-6.5,2.8-13.6,4.8-20.7,4.3c-3.7-0.3-7.5-1.2-11-0.1c-2.2,0.9-4.3,2-6.1,3.4c-11.7-0.8-31.5-2-38.4-2.6c-10.2-0.8-7.7-5-7.7-5v-2.9
	c0.4-0.1,0.8-0.1,1.3-0.1c2.4,0,4.9,0.3,7.2,1.1l15.3,4.1c0.9-3.2,3-5.9,5.9-7.5c2.9-1.6,6.2-2.3,9.5-2.2c7.9,0.1,15.4,3.9,23.3,4.2
	c2.2,0.2,4.4-0.2,6.4-1.1c1.1-0.6,2-1.3,3.1-1.9c1.7-0.8,3.5-1.4,5.3-1.8c5.2-1.3,10.2-2.9,15.2-4.9c1.4-0.6,3.1-1.6,2.9-3.1
	c-0.3-2-3.4-2.2-4.2-4.1c-0.3-0.7-0.2-1.4,0.1-2.1c0.5,0.1,0.9,0.2,1.4,0.3C551.9,739.4,556.6,740.2,559.3,747.3z"/>
<path fill="#444053" d="M515.3,594.6l-2.7,62.8c0,0-4,12.8-1.8,16.5c2.2,3.7,5.8,7.3,4.5,9.5C514,685.6,498,709,492.8,700
	s-10.3-48-10.3-48l4.8-48.2L515.3,594.6z"/>
<path fill="#444053" d="M526.9,438l7.4,9.9v86.3c0,0,2.2,23,0,27.8c-2.2,4.8-13.2,14.3-13.2,14.3l-9.3-47.5l2-50.2L526.9,438z"/>
<path opacity="0.1" enable-background="new    " d="M515.3,594.6l-2.7,62.8c0,0-4,12.8-1.8,16.5c2.2,3.7,5.8,7.3,4.5,9.5
	C514,685.6,498,709,492.8,700s-10.3-48-10.3-48l4.8-48.2L515.3,594.6z"/>
<path opacity="0.1" enable-background="new    " d="M526.9,438l7.4,9.9v86.3c0,0,2.2,23,0,27.8c-2.2,4.8-13.2,14.3-13.2,14.3
	l-9.3-47.5l2-50.2L526.9,438z"/>
<path fill="#444053" d="M534.3,401.2v46.7l-8.3,36.3c0,0-2.7,87.7-0.3,98.3s-8,20.7-8,20.7s-6,0.7-6,5.3s-10,18-10,18l0.3,26
	c0,0,4.3,48.7-2.3,58c-6.7,9.3,2.3,10.7,2.3,10.7c-8.3,27.3-48.3,21-51.9,18s0-62,0-62s8.9-90,15.9-94s0.3-9,2.7-15
	s-2.3-22.3-2.3-22.3s-2-19.3-7-28.7c-5-9.3-4.3-35-4.3-35s-14-18.7-18.2-26s-6.8-26.3-5.8-40.7c0.7-9.7,5.8-23.8,9-31.9
	c1.5-3.9,2.7-6.4,2.7-6.4l1,0.3l54.6,14.3L534.3,401.2z"/>
<path opacity="0.1" enable-background="new    " d="M539.4,178.2c-5.2,1.5-10.1,6.6-14.4,12.7h-1.1c-12.8,0-24.6-6.8-31-17.9
	c-1.3-2.3-2.4-4.7-3.1-7.1c3.1-7.9,5.4-14.7,5.4-14.7S555.2,173.7,539.4,178.2z"/>
<path fill="#EFB7B9" d="M559.7,153.2c0,19.7-15.9,35.8-35.7,35.8c-19.7,0-35.8-15.9-35.8-35.7c0-6.2,1.6-12.3,4.6-17.6
	c1.1-1.9,2.3-3.8,3.8-5.5c2.4-2.8,5.1-5.2,8.2-7.2c16.7-10.6,38.8-5.7,49.3,11c3.2,5,5.1,10.7,5.5,16.6
	C559.6,151.5,559.7,152.4,559.7,153.2z"/>
<path opacity="0.1" enable-background="new    " d="M529.6,238.8l-0.1,1.1l-16.6-26c-1.7,4.1-2.7,6.9-2.7,6.9S470.6,191,476.9,189
	c2.1-0.7,4.9-5.2,7.6-10.8l0.3-0.7c2.9,8.6,19.8,25.9,26.8,32.8c0.8,0.8,1.5,1.5,2,1.9l1.1,1l0.6,0.6
	C517.8,216.4,528.5,228,529.6,238.8z"/>
<path fill="#DCE6F2" d="M542,327l-1.8,58.6l-0.3,10.4c0,0-21.6-2-41.7-4.2c-16.2-1.8-31.5-3.7-33.8-4.8c-3-1.4-9.4-2.5-14.5-3.2
	c-3.9-0.5-7-0.8-7-0.8s-1.1,0.3-2.9,0.7c-3.9,0.7-10.6,1.3-14.6-2.2c-5-4.4,8.2-20.3,11.5-24.2l0.7-0.8l-1.3-11.5l-3.3-30
	c0,0-2-17.3-5-26.5c-0.8-2.6-1.4-5.3-1.7-8c-1.1-8.4-0.5-17,1.7-25.3c1-3.5,1.6-7.1,1.8-10.7c0.5-9.3,28.8-45,35.8-48.3
	c3.1-1.5,5.7-4,7.2-7.1c0.5-1,0.9-2,1.1-3.1c3-13,10.6-7.8,10.6-7.8c1.8,10.2,30.2,37.1,30.2,37.1l0.6,0.6
	c2.8,2.9,15.3,16.4,14.4,27.9c-0.2,4.3,0.5,8.6,1.9,12.6c5.8,18.1,9.1,37,9.9,56L542,327z"/>
<path opacity="0.1" enable-background="new    " d="M501.9,257.5c0,0-7,17-12.3,19.8S504.4,283,501.9,257.5z"/>
<path opacity="0.1" enable-background="new    " d="M507.1,289.2c0,0-16,2-16,5S507.1,289.2,507.1,289.2z"/>
<path opacity="0.1" enable-background="new    " d="M523.9,308.7c0,0-23.3,49.5-29.8,51S523.9,308.7,523.9,308.7z"/>
<path opacity="0.1" enable-background="new    " d="M514.2,217.8l-19.2,8.4l-23.2-35.1c0.5-1,0.9-2,1.1-3.1c3-13,10.6-7.8,10.6-7.8
	c1.8,10.2,30.2,37.1,30.2,37.1L514.2,217.8z"/>
<path fill="#DCE6F2" d="M515.2,215.8l-19.2,8.4l-23.2-35.1c0.5-1,0.9-2,1.1-3.1c3-13,10.6-7.8,10.6-7.8
	c1.8,10.2,30.2,37.1,30.2,37.1L515.2,215.8z"/>
<path opacity="0.1" enable-background="new    " d="M539.9,396c0,0-21.6-2-41.7-4.2l36.1,9.5v11c-1.6,1.4-3,2.2-3.8,1.8
	c-4.2-1.8-38.1-7.3-38.1-7.3s-19.7-10-41-22c-0.5-0.3-1-0.6-1.5-0.9c-2.5-1.7-4.6-3.8-6.3-6.3c-3.9-5.7-5.9-13-6.7-20.2
	c-0.5-4.1-0.6-8.2-0.5-12.4c0.1-4.7,0.5-9.4,1.3-14c-2.1-17.9-3.1-36-3-54c0.3-28,26.5-38,26.5-38c48.3-4.3,33.3,73.8,33.3,73.8
	s-2.8,22-3.5,24.3s-3.5,6-3.1,11.3s9.6,11.5,9.6,11.5s9,4.2,12.7,10.5c2.7,4.6,20.2,10.9,30.2,15.3L539.9,396z"/>
<path opacity="0.1" enable-background="new    " d="M556.1,131c0,1.6-0.3,3.3-1,4.8c-0.5,1.2-1.1,2.4-1.8,3.6
	c-1.1,2.1-2.5,4-4.4,5.4c-2.3,1.6-5.2,2.1-8,2.8c-2.8,0.7-5.7,1.7-7.2,4.1c-0.9,1.5-1.4,3.2-1.7,4.9c-0.3,1.7-1,3.3-2,4.7
	c-1.1,1.4-3,1.9-4.7,1.1c-0.8-0.6-1.5-1.4-1.8-2.3c-1.1-2.6-1.4-5.4-1.9-8.2s-1.1-5.6-2.8-7.9s-4.7-3.7-7.4-2.8
	c-1.8,0.7-3.3,2.1-4,3.9c-0.7,1.8-1.2,3.6-1.5,5.5c-1.2,6.8-2.7,13.5-4.4,20.2c-0.1,0.3-0.2,0.5-0.3,0.8c-0.3,0.3-0.6,0.4-1,0.4
	c-2.2,0.3-4.4-1.3-6.6-1.1c-0.2,0-0.5,0.1-0.7,0.1c-7.5-13-6-29.3,3.6-40.8l0.2-0.1c1.5-0.5,2.9-1.4,4-2.5c1.4-1.4,2.8-3,4-4.6
	l0.8-1c2.3-2.8,4.9-5.3,7.8-7.4c0.8-0.6,1.7-1.1,2.7-1.4c0.8-0.2,1.7-0.2,2.5-0.1c3.5,0.4,6.9,0.5,10.4,0.4c2.4-0.4,4.9-0.6,7.3-0.7
	c6.3,0.2,11.7,4.6,15.7,9.6C554,124.9,555.9,127.8,556.1,131z"/>
<path fill="#965D7B" d="M488.1,136.7c-1.4,2.3-3.9,3.8-4.8,6.3c-1.4,3.6,1,8.1-1.2,11.4c-0.7,1.1-1.9,1.9-2.3,3.1
	c-0.7,2.1,1.2,4.4,0.7,6.5s-3.3,4-2.6,6.1c0.4,0.9,1.2,1.6,2.2,2c1.5,0.9,3.3,1.3,5,1.1c2.7-0.4,4.8-3.1,7.5-3.3
	c2.3-0.2,4.4,1.4,6.6,1.1c0.4,0,0.7-0.2,1-0.4c0.2-0.2,0.3-0.5,0.3-0.8c1.7-6.7,3.1-13.4,4.4-20.2c0.3-1.9,0.8-3.8,1.5-5.5
	c0.8-1.8,2.2-3.2,4-3.9c2.7-0.9,5.7,0.6,7.4,2.8c1.7,2.2,2.4,5.1,2.8,7.9s0.8,5.6,1.9,8.2c0.3,1,1,1.8,1.8,2.3
	c1.5,0.9,3.5,0.2,4.7-1.1c1.1-1.4,1.7-3,2-4.8c0.3-1.7,0.8-3.4,1.7-4.9c1.6-2.4,4.5-3.4,7.2-4.1s5.7-1.1,8-2.8
	c1.8-1.5,3.3-3.3,4.4-5.4c1.5-2.6,2.9-5.4,2.7-8.4c-0.1-3.2-2-6.1-4.1-8.6c-4-4.9-9.4-9.4-15.7-9.5c-2.4,0.1-4.9,0.3-7.3,0.7
	c-3.5,0.2-7,0-10.4-0.4c-0.8-0.1-1.7-0.1-2.5,0.1c-1,0.3-1.9,0.8-2.7,1.4c-2.9,2.2-5.5,4.6-7.8,7.4c-1.5,2-3.1,3.8-4.8,5.6
	c-1.1,1.1-2.5,2-4,2.5c-1,0.3-2,0.1-3,0.4C489.9,130.6,489.5,134.4,488.1,136.7z"/>
<path opacity="0.1" enable-background="new    " d="M584.4,163.9c-8,1.5-14.6-5-18.3-9.7c-1.1-1.4-2.2-2.9-3.1-4.5l27.5,5.2l1.1,0.2
	C591.6,155,596.7,161.6,584.4,163.9z"/>
<g opacity="0.1">
	<path d="M480.5,161.2c0.1-1.3-0.1-2.6-0.6-3.8c0,0.1-0.1,0.2-0.1,0.3c-0.4,1.3,0.1,2.7,0.5,4.1
		C480.4,161.6,480.4,161.4,480.5,161.2z"/>
	<path d="M482.9,144.8c-0.1,1.4-0.1,2.8,0.1,4.1C483.1,147.6,483,146.2,482.9,144.8z"/>
	<path d="M552.3,135.5c-1.1,2.1-2.5,4-4.4,5.4c-2.3,1.6-5.2,2.1-8,2.8c-2.8,0.7-5.7,1.7-7.2,4.1c-0.9,1.5-1.4,3.2-1.7,4.9
		c-0.3,1.7-0.9,3.4-2,4.8c-1.1,1.3-3.2,2-4.7,1.1c-0.8-0.6-1.5-1.4-1.8-2.3c-1.1-2.6-1.4-5.4-1.9-8.2s-1.1-5.6-2.8-7.9
		s-4.7-3.7-7.4-2.8c-1.8,0.7-3.2,2.1-4,3.9c-0.7,1.8-1.2,3.6-1.5,5.5c-1.2,6.8-2.7,13.5-4.4,20.2c0,0.3-0.2,0.5-0.3,0.8
		c-0.3,0.3-0.6,0.4-1,0.4c-2.2,0.3-4.4-1.3-6.6-1.1c-2.8,0.2-4.8,2.9-7.5,3.3c-1.7,0.2-3.5-0.2-5-1.1c-0.7-0.3-1.3-0.7-1.8-1.3
		c-0.5,0.7-0.6,1.5-0.4,2.3c0.4,0.9,1.2,1.6,2.2,2c1.5,0.9,3.3,1.3,5,1.1c2.7-0.4,4.8-3.1,7.5-3.3c2.3-0.2,4.4,1.4,6.6,1.1
		c0.4,0,0.7-0.2,1-0.4c0.2-0.2,0.3-0.5,0.3-0.8c1.7-6.7,3.1-13.4,4.4-20.2c0.3-1.9,0.8-3.8,1.5-5.5c0.8-1.8,2.2-3.2,4-3.9
		c2.7-0.9,5.7,0.6,7.4,2.8c1.7,2.2,2.4,5.1,2.8,7.9s0.8,5.6,1.9,8.2c0.3,1,1,1.8,1.8,2.3c1.5,0.9,3.5,0.2,4.7-1.1
		c1.1-1.4,1.7-3,2-4.8c0.3-1.7,0.8-3.4,1.7-4.9c1.6-2.4,4.5-3.4,7.2-4.1s5.7-1.1,8-2.8c1.8-1.5,3.3-3.3,4.4-5.4
		c1.5-2.6,2.9-5.4,2.7-8.3c0-0.4-0.1-0.8-0.1-1.1C554.5,131.3,553.6,133.5,552.3,135.5z"/>
</g>
<path opacity="0.1" enable-background="new    " d="M555.1,135.8c2.6,4.6,4.1,9.6,4.5,14.9c-8.9-5-17.3-10.5-21.5-12.4
	c-7.4-3.3-34.9-2.8-45.3-2.5c1.1-1.9,2.3-3.8,3.8-5.5c2.4-2.8,5.1-5.2,8.3-7.2c16.7-10.6,38.8-5.6,49.4,11
	C554.5,134.6,554.8,135.2,555.1,135.8L555.1,135.8z"/>
<path opacity="0.1" enable-background="new    " d="M586.9,159.6c-4.8,1.5-12.7-1.4-20.8-5.5c-1.1-1.4-2.2-2.9-3.1-4.5l27.5,5.2
	C592.3,156,592.8,157.8,586.9,159.6z"/>
<path fill="#444053" d="M526,101.1c0,0-26.3-1.5-33.6,12.8l-1.2,12.6l-2-0.2l-0.4,8.6c0,0,40.1-1.8,49.3,2.4s37.5,24.9,48.9,21.4
	s-1-6.8-1-6.8s-15.6-6.6-15.6-11.8S566.4,107.4,526,101.1z"/>
<path opacity="0.1" enable-background="new    " d="M475.4,569.3c0,0,16.8,16.3,24,15C499.4,584.3,478.9,582.6,475.4,569.3z"/>
<path opacity="0.1" enable-background="new    " d="M471.9,576.8c0,0,1.5,8.4,5.5,7.5C481.4,583.6,471.9,576.8,471.9,576.8z"/>
<path opacity="0.1" enable-background="new    " d="M498.1,716.6c0,0-23.8,18.5-19.8,19S498.1,716.6,498.1,716.6z"/>
<polygon fill="#6C63FF" points="530,349.4 607,336.9 607,409.8 533.8,405.9 "/>
<polygon opacity="5.000000e-002" enable-background="new    " points="530,349.4 607,336.9 607,409.8 533.8,405.9 "/>
<polygon fill="#6C63FF" points="607,336.9 699.3,343.8 694.2,407.2 607,409.8 "/>
<polygon opacity="0.1" enable-background="new    " points="607,336.9 699.3,343.8 694.2,407.2 607,409.8 "/>
<polygon fill="#6C63FF" points="635.3,314.6 607,336.9 699.3,343.8 714.4,321 "/>
<polygon fill="#6C63FF" points="502.1,325.1 571.4,316.7 607,336.9 530,349.4 "/>
<polygon fill="#6C63FF" points="623.8,355.8 623.8,455.5 587.8,451.8 572.1,450.2 567.3,449.7 551.6,448.1 530,445.8 530,349.4 
	607,354.6 "/>
<polygon fill="#6C63FF" points="699.3,343.8 699.3,441 670.4,446.5 656.3,449.2 623.8,455.5 623.8,355.8 "/>
<polygon opacity="5.000000e-002" enable-background="new    " points="699.3,343.8 699.3,441 670.4,446.5 656.3,449.2 623.8,455.5 
	623.8,355.8 "/>
<polygon fill="#6C63FF" points="502.1,370.4 530,349.4 623.8,355.8 610,379.1 "/>
<polygon opacity="0.1" fill="#FFFFFF" enable-background="new    " points="502.1,370.4 530,349.4 623.8,355.8 610,379.1 "/>
<polygon fill="#6C63FF" points="699.3,343.8 623.8,355.8 648.4,377.8 729.2,364.2 "/>
<polygon opacity="0.1" fill="#FFFFFF" enable-background="new    " points="699.3,343.8 623.8,355.8 648.4,377.8 729.2,364.2 "/>
<polygon opacity="0.1" fill="#FFFFFF" enable-background="new    " points="670.4,446.5 656.3,449.2 656.3,428.5 669.5,425.1 "/>
<polygon opacity="0.1" fill="#FFFFFF" enable-background="new    " points="587.8,438 587.8,451.8 572.1,450.2 572.1,438 "/>
<polygon opacity="0.1" fill="#FFFFFF" enable-background="new    " points="567.3,442.4 567.3,449.7 551.6,448.1 551.6,442.4 "/>
<path opacity="0.1" enable-background="new    " d="M614.4,430.7c-10.8,13.8-46.3,4.3-46.3,4.3l-26.4-27.5l-3.6-3.7l7-13
	c0,0,2,0.7,5.3,1.8C568.2,398.7,623.5,419.2,614.4,430.7z"/>
<path fill="#EFB7B9" d="M613.4,428.7c-10.8,13.8-46.3,4.3-46.3,4.3l-26.4-27.5l-3.6-3.7l7-13c0,0,2,0.7,5.3,1.8
	C567.2,396.7,622.5,417.2,613.4,428.7z"/>
<path opacity="0.1" enable-background="new    " d="M549.5,390.6c-1.5,4.2-5.2,10.4-8.8,14.9l-3.6-3.7l7-13
	C544.2,388.7,546.2,389.4,549.5,390.6z"/>
<path fill="#DCE6F2" d="M462.1,235c0,0-26.3,10-26.5,38c-0.1,18,0.9,36.1,3,54c0,0-7.5,41.8,13.8,53.8s41,22,41,22s34,5.5,38.1,7.3
	s18.7-20.8,16.4-24.5s-33.2-13-36.8-19.3c-3.7-6.3-12.7-10.5-12.7-10.5s-9.2-6.3-9.6-11.5s2.4-9,3.1-11.3s3.6-24.3,3.6-24.3
	S510.4,230.7,462.1,235z"/>
<path opacity="0.1" enable-background="new    " d="M474.1,327.7c0,0-35.5,4-32.8,16.5C441.4,344.2,454.9,331.6,474.1,327.7z"/>
<path opacity="0.1" enable-background="new    " d="M474.1,332.7c0,0-20.1,14.8-16.5,15.8S474.1,332.7,474.1,332.7z"/>
<path opacity="0.1" enable-background="new    " d="M483.1,338.7c0,0-5.8,10.3-2.5,9.8S483.1,338.7,483.1,338.7z"/>
<path opacity="0.1" fill="#6C63FF" enable-background="new    " d="M968.2,247.8c0,0-38-2.3-33.6,24.4c0,0-0.9,4.7,3.4,6.9
	c0,0,0.1-2,3.9-1.3c1.4,0.2,2.8,0.3,4.1,0.2c1.8-0.1,3.6-0.9,5-2.1l0,0c0,0,10.7-4.4,14.9-21.9c0,0,3.1-3.8,3-4.8l-6.4,2.7
	c0,0,2.2,4.6,0.5,8.5c0,0-0.2-8.3-1.4-8.1c-0.3,0-3.3,1.6-3.3,1.6s3.8,8.1,0.9,13.9c0,0,1.1-9.9-2.1-13.4l-4.5,2.6
	c0,0,4.4,8.3,1.4,15.1c0,0,0.8-10.4-2.4-14.5l-4.1,3.2c0,0,4.1,8.2,1.6,13.9c0,0-0.3-12.1-2.5-13.1c0,0-3.6,3.2-4.1,4.5
	c0,0,2.8,6,1.1,9.1c0,0-1.1-8.1-2-8.1c0,0-3.6,5.4-3.9,9c0.2-3.4,1.2-6.7,3.1-9.5c-2.1,0.4-4,1.4-5.5,2.8c0,0,0.6-3.8,6.3-4.1
	c0,0,3-4.1,3.7-4.3c0,0-5.8-0.5-9.3,1.1c0,0,3.1-3.6,10.3-2l4-3.3c0,0-7.6-1-10.8,0.1c0,0,3.7-3.2,11.9-0.9l4.4-2.6
	c0,0-6.5-1.4-10.3-0.9c0,0,4.1-2.2,11.6,0.2l3.2-1.4c0,0-4.7-0.9-6.1-1.1s-1.5-0.5-1.5-0.5c3-0.5,6.1-0.2,8.9,1
	C961.6,250.7,968.4,248.2,968.2,247.8z"/>
<path opacity="0.1" fill="#6C63FF" enable-background="new    " d="M737.4,224.1c0,0,8.8-37.1-18.3-37.2c0,0-4.5-1.7-7.3,2.2
	c0,0,1.9,0.4,0.6,4.1c-0.5,1.3-0.8,2.6-0.9,4c-0.2,1.9,0.2,3.7,1.2,5.3l0,0c0,0,2.5,11.3,19,18.4c0,0,3.2,3.7,4.2,3.7l-1.6-6.8
	c0,0-4.9,1.4-8.4-1c0,0,8.2,1.2,8.2,0c0-0.3-1-3.6-1-3.6s-8.6,2.3-13.9-1.5c0,0,9.6,2.8,13.5,0.2l-1.8-4.9c0,0-9,2.9-15.2-1.2
	c0,0,10.2,2.5,14.7,0.1l-2.5-4.6c0,0-8.8,2.7-13.9-0.8c0,0,12,1.7,13.3-0.2c0,0-2.5-4.1-3.7-4.8c0,0-6.4,1.8-9.2-0.5
	c0,0,8.2,0.3,8.3-0.6c0,0-4.7-4.4-8.2-5.4c3.3,0.8,6.4,2.4,8.9,4.7c0-2.1-0.7-4.1-1.9-5.9c0,0,3.6,1.2,3,7c0,0,3.5,3.6,3.6,4.4
	c0,0,1.5-5.6,0.5-9.3c0,0,3,3.6,0.2,10.5l2.6,4.6c0,0,2.3-7.3,1.7-10.7c0,0,2.5,4.2-1.2,11.9l1.8,4.8c0,0,2.5-6.1,2.6-10
	c0,0,1.5,4.4-2.2,11.4l0.9,3.3c0,0,1.7-4.5,2.1-5.9s0.8-1.4,0.8-1.4c0,3-0.9,6-2.5,8.6C735.6,217.2,737,224.2,737.4,224.1z"/>
<path opacity="0.1" fill="#6C63FF" enable-background="new    " d="M654.2,236.8c0,0-30.5-22.8-41.4,1.9c0,0-3.3,3.5-0.9,7.6
	c0,0,1.1-1.6,4,1.1c1,0.9,2.1,1.8,3.3,2.4c1.6,0.9,3.5,1.3,5.4,1l0,0c0,0,11.4,2.2,24.4-10.1c0,0,4.7-1.5,5.1-2.4l-6.9-1.2
	c0,0-0.7,5.1-4.3,7.3c0,0,4.4-7.1,3.3-7.6c-0.2-0.1-3.7-0.5-3.7-0.5s-1.3,8.8-6.9,12.1c0,0,6.4-7.7,5.6-12.3l-5.2-0.3
	c0,0-0.9,9.4-7.1,13.4c0,0,6.4-8.3,6-13.4l-5.2,0.4c0,0-1,9.1-6.3,12.5c0,0,6.4-10.3,5.1-12.3c0,0-4.7,0.7-5.9,1.5
	c0,0-0.9,6.5-4.1,8.2c0,0,3.5-7.4,2.8-7.9c0,0-5.9,2.5-8.3,5.4c2-2.7,4.7-4.9,7.8-6.3c-1.9-0.8-4.1-1-6.1-0.6c0,0,2.5-2.9,7.6,0
	c0,0,4.7-1.8,5.5-1.5c0,0-4.5-3.6-8.3-4.2c0,0,4.5-1.3,9.7,4l5.2-0.5c0,0-5.8-5-9.1-5.8c0,0,4.8-0.6,10.4,5.8l5.1,0.2
	c0,0-4.6-4.7-8.1-6.4c0,0,4.6,0.4,9.6,6.5l3.4,0.5c0,0-3.5-3.4-4.5-4.3s-0.9-1.3-0.9-1.3c2.8,1.2,5.2,3.2,6.9,5.7
	C647.1,235.6,654,237.2,654.2,236.8z"/>
<path opacity="0.1" fill="#6C63FF" enable-background="new    " d="M755.8,24.7c0,0-30.5-22.8-41.4,1.9c0,0-3.3,3.4-0.9,7.6
	c0,0,1.1-1.6,4,1.1c1,0.9,2.1,1.8,3.3,2.4c1.6,0.9,3.5,1.3,5.4,1l0,0c0,0,11.4,2.2,24.4-10.1c0,0,4.7-1.5,5.1-2.4l-6.9-1.2
	c0,0-0.7,5.1-4.3,7.3c0,0,4.4-7.1,3.3-7.6c-0.2-0.1-3.7-0.5-3.7-0.5s-1.3,8.8-6.9,12.2c0,0,6.4-7.7,5.6-12.3l-5.2-0.3
	c0,0-0.9,9.4-7.1,13.4c0,0,6.4-8.3,6-13.4l-5.2,0.4c0,0-1.1,9.1-6.3,12.5c0,0,6.4-10.3,5.1-12.3c0,0-4.7,0.7-5.9,1.4
	c0,0-0.9,6.5-4.1,8.2c0,0,3.5-7.3,2.8-7.9c0,0-5.9,2.5-8.3,5.4c2-2.7,4.7-4.9,7.8-6.3c-1.9-0.8-4.1-1-6.1-0.6c0,0,2.5-2.9,7.6,0.1
	c0,0,4.7-1.8,5.5-1.6c0,0-4.5-3.6-8.3-4.2c0,0,4.5-1.3,9.7,4l5.2-0.5c0,0-5.8-5-9.1-5.8c0,0,4.8-0.6,10.4,5.8l5.1,0.2
	c0,0-4.6-4.7-8.1-6.4c0,0,4.6,0.4,9.6,6.5l3.4,0.6c0,0-3.5-3.3-4.5-4.2s-0.9-1.2-0.9-1.2c2.8,1.2,5.2,3.2,6.9,5.7
	C748.7,23.5,755.6,25,755.8,24.7z"/>
<path opacity="0.1" fill="#6C63FF" enable-background="new    " d="M872.4,53.6c0,0-12.2-36.1-35.2-21.9c0,0-4.7,1-5.1,5.7
	c0,0,1.8-0.7,2.7,3.1c0.3,1.4,0.8,2.7,1.4,3.9c0.8,1.7,2.2,3,3.8,3.9l0,0c0,0,8.1,8.3,25.9,5.5c0,0,4.7,1.4,5.5,0.9l-5-4.9
	c0,0-3.5,3.8-7.7,3.6c0,0,7.6-3.3,7-4.4c-0.1-0.2-2.7-2.5-2.7-2.5s-6.1,6.5-12.6,6.1c0,0,9.6-2.7,11.6-7l-4.1-3.2
	c0,0-6.1,7.2-13.5,7c0,0,10-3.2,12.5-7.7l-4.5-2.6c0,0-6,6.9-12.2,6.7c0,0,11.1-4.9,11.2-7.2c0,0-4.3-2.1-5.7-2.2c0,0-4.5,4.9-8,4.4
	c0,0,7.1-4.1,6.8-4.9c0,0-6.3-1.3-9.8-0.3c3.2-1.1,6.7-1.4,10-0.8c-1.1-1.8-2.8-3.2-4.7-4c0,0,3.7-0.9,6.2,4.3c0,0,4.9,1.2,5.4,1.8
	c0,0-1.7-5.5-4.5-8.2c0,0,4.5,1.5,5.7,8.8l4.6,2.5c0,0-1.9-7.4-4.2-10c0,0,4.3,2.2,5.3,10.7l4.1,3.1c0,0-1.1-6.5-3.1-9.9
	c0,0,3.6,2.9,4.2,10.8l2.5,2.4c0,0-0.9-4.7-1.3-6.1s-0.1-1.4-0.1-1.4c1.6,2.6,2.4,5.6,2.4,8.6C867.2,48.7,872,53.9,872.4,53.6z"/>
<path opacity="0.1" fill="#6C63FF" enable-background="new    " d="M792.8,55.4c0,0-37.9-4.2-34.8,22.7c0,0-1.1,4.7,3,7
	c0,0,0.2-2,4-1.1c1.4,0.3,2.7,0.4,4.1,0.4c1.9,0,3.7-0.7,5.2-1.8l0,0c0,0,10.9-3.9,16-21.1c0,0,3.3-3.7,3.2-4.6l-6.5,2.4
	c0,0,2,4.7,0,8.5c0,0,0.2-8.3-1-8.2c-0.3,0-3.4,1.4-3.4,1.4s3.4,8.3,0.2,14c0,0,1.6-9.9-1.4-13.4l-4.7,2.4c0,0,4,8.6,0.7,15.2
	c0,0,1.3-10.4-1.6-14.6l-4.3,3c0,0,3.7,8.4,0.9,13.9c0,0,0.3-12.1-1.8-13.2c0,0-3.7,3-4.3,4.2c0,0,2.5,6.1,0.6,9.2
	c0,0-0.7-8.1-1.5-8.2c0,0-3.8,5.2-4.4,8.8c0.3-3.4,1.6-6.6,3.6-9.4c-2.1,0.3-4,1.2-5.6,2.5c0,0,0.7-3.8,6.5-3.8c0,0,3.2-3.9,4-4.1
	c0,0-5.7-0.8-9.3,0.6c0,0,3.3-3.4,10.4-1.4l4.2-3.1c0,0-7.6-1.5-10.8-0.5c0,0,3.9-3,11.9-0.3l4.5-2.4c0,0-6.4-1.7-10.3-1.4
	c0,0,4.2-2,11.6,0.8l3.2-1.3c0,0-4.7-1.2-6.1-1.4s-1.4-0.6-1.4-0.6c3-0.3,6.1,0.2,8.8,1.4C786.1,57.9,792.8,55.8,792.8,55.4z"/>
<path opacity="0.1" fill="#6C63FF" enable-background="new    " d="M1124.4,349.5c0,0-37.9-4.2-34.8,22.6c0,0-1.1,4.7,3,7
	c0,0,0.2-2,4-1.1c1.4,0.3,2.7,0.4,4.1,0.4c1.9,0,3.7-0.7,5.2-1.8l0,0c0,0,10.9-3.9,15.9-21.1c0,0,3.3-3.7,3.2-4.6l-6.6,2.4
	c0,0,2,4.7,0,8.5c0,0,0.2-8.3-1-8.2c-0.3,0-3.4,1.4-3.4,1.4s3.4,8.3,0.2,14c0,0,1.6-9.9-1.4-13.4l-4.7,2.4c0,0,4,8.5,0.7,15.2
	c0,0,1.3-10.4-1.6-14.6l-4.3,3c0,0,3.7,8.4,0.9,13.9c0,0,0.3-12.1-1.8-13.2c0,0-3.7,3-4.3,4.2c0,0,2.5,6.1,0.6,9.1
	c0,0-0.7-8.1-1.6-8.2c0,0-3.8,5.2-4.4,8.8c0.3-3.4,1.6-6.6,3.6-9.4c-2.1,0.3-4,1.2-5.6,2.5c0,0,0.7-3.8,6.5-3.8c0,0,3.2-3.9,4-4.1
	c0,0-5.7-0.8-9.3,0.6c0,0,3.3-3.4,10.4-1.4l4.2-3.1c0,0-7.5-1.4-10.8-0.4c0,0,3.9-3,11.9-0.3l4.5-2.4c0,0-6.4-1.7-10.3-1.4
	c0,0,4.2-2,11.6,0.8l3.2-1.3c0,0-4.7-1.2-6.1-1.4s-1.4-0.6-1.4-0.6c3-0.4,6.1,0.1,8.8,1.4C1117.7,352.2,1124.5,350,1124.4,349.5z"/>
<path opacity="0.1" fill="#6C63FF" enable-background="new    " d="M1182.3,384.9c0,0-37.9-4.2-34.8,22.6c0,0-1.1,4.7,3,7
	c0,0,0.2-2,4-1.1c1.3,0.3,2.7,0.4,4.1,0.4c1.9,0,3.7-0.7,5.1-1.8l0,0c0,0,10.9-3.9,15.9-21.1c0,0,3.3-3.6,3.2-4.6l-6.6,2.4
	c0,0,2,4.7,0,8.5c0,0,0.2-8.3-1-8.2c-0.3,0-3.4,1.4-3.4,1.4s3.4,8.3,0.2,14c0,0,1.6-9.9-1.4-13.4l-4.7,2.4c0,0,4,8.5,0.7,15.2
	c0,0,1.3-10.4-1.6-14.6l-4.3,3c0,0,3.7,8.4,0.9,13.9c0,0,0.3-12.1-1.8-13.2c0,0-3.7,3-4.3,4.2c0,0,2.5,6.1,0.6,9.1
	c0,0-0.7-8.1-1.6-8.2c0,0-3.8,5.2-4.4,8.8c0.3-3.4,1.6-6.6,3.6-9.4c-2.1,0.3-4,1.2-5.6,2.5c0,0,0.8-3.8,6.6-3.8c0,0,3.2-3.9,4-4.1
	c0,0-5.7-0.8-9.3,0.6c0,0,3.3-3.4,10.4-1.4l4.2-3.1c0,0-7.5-1.4-10.8-0.4c0,0,3.9-3,11.9-0.3l4.5-2.4c0,0-6.4-1.7-10.3-1.4
	c0,0,4.2-2,11.6,0.8l3.2-1.3c0,0-4.7-1.2-6.1-1.4s-1.4-0.6-1.4-0.6c3-0.3,6.1,0.2,8.8,1.4C1175.6,387.6,1182.4,385.4,1182.3,384.9z"
	/>
<path opacity="0.1" fill="#6C63FF" enable-background="new    " d="M1053.7,86.9c0,0-30.5-22.8-41.4,1.9c0,0-3.3,3.4-0.9,7.6
	c0,0,1.1-1.6,4,1.1c1,0.9,2.1,1.8,3.3,2.4c1.6,0.9,3.5,1.3,5.4,1l0,0c0,0,11.4,2.2,24.4-10.1c0,0,4.7-1.5,5.1-2.4l-6.9-1.2
	c0,0-0.7,5.1-4.3,7.3c0,0,4.4-7.1,3.3-7.6c-0.2-0.1-3.7-0.5-3.7-0.5s-1.3,8.8-6.9,12.1c0,0,6.4-7.7,5.6-12.3l-5.2-0.3
	c0,0-0.9,9.4-7.1,13.4c0,0,6.4-8.3,6-13.4l-5.2,0.4c0,0-1,9.1-6.3,12.4c0,0,6.4-10.3,5.1-12.3c0,0-4.7,0.7-5.9,1.4
	c0,0-0.9,6.5-4.1,8.2c0,0,3.5-7.4,2.8-7.9c0,0-5.9,2.5-8.3,5.4c2-2.7,4.7-4.9,7.8-6.3c-1.9-0.8-4.1-1-6.1-0.6c0,0,2.5-2.9,7.6,0.1
	c0,0,4.7-1.8,5.5-1.6c0,0-4.5-3.6-8.3-4.2c0,0,4.5-1.3,9.7,4l5.2-0.5c0,0-5.8-5-9.1-5.8c0,0,4.8-0.6,10.4,5.8l5.1,0.2
	c0,0-4.6-4.7-8.1-6.4c0,0,4.6,0.4,9.6,6.5l3.4,0.6c0,0-3.5-3.4-4.5-4.3c-1.1-0.9-0.9-1.2-0.9-1.2c2.8,1.2,5.2,3.2,6.9,5.7
	C1046.7,85.8,1053.6,87.3,1053.7,86.9z"/>
<path opacity="0.1" fill="#6C63FF" enable-background="new    " d="M1077.3,251.7c0,0-10.5-36.6-34.2-23.5c0,0-4.7,0.7-5.3,5.5
	c0,0,1.9-0.6,2.5,3.2c0.2,1.4,0.6,2.7,1.2,4c0.7,1.7,2,3.2,3.7,4.1l0,0c0,0,7.7,8.6,25.6,6.7c0,0,4.6,1.6,5.5,1.2l-4.7-5.1
	c0,0-3.6,3.6-7.8,3.3c0,0,7.8-3,7.2-4.1c-0.1-0.2-2.6-2.6-2.6-2.6s-6.3,6.3-12.8,5.5c0,0,9.7-2.3,11.9-6.4l-4-3.4
	c0,0-6.4,6.9-13.8,6.4c0,0,10.1-2.8,12.9-7.1l-4.4-2.8c0,0-6.3,6.6-12.5,6.1c0,0,11.3-4.4,11.5-6.7c0,0-4.2-2.3-5.6-2.4
	c0,0-4.7,4.7-8.2,4.1c0,0,7.3-3.7,7-4.6c0,0-6.2-1.6-9.8-0.7c3.3-1,6.7-1.1,10-0.3c-1.1-1.8-2.6-3.3-4.5-4.2c0,0,3.8-0.8,6,4.6
	c0,0,4.8,1.4,5.3,2.1c0,0-1.5-5.6-4.1-8.4c0,0,4.4,1.7,5.3,9.1l4.5,2.7c0,0-1.6-7.5-3.7-10.1c0,0,4.2,2.4,4.8,10.9l4,3.3
	c0,0-0.8-6.6-2.6-10c0,0,3.4,3.1,3.7,11l2.4,2.5c0,0-0.7-4.8-1-6.1c-0.3-1.4,0-1.5,0-1.5c1.5,2.7,2.2,5.7,2.1,8.7
	C1072.4,246.6,1076.9,252,1077.3,251.7z"/>
<path opacity="0.1" fill="#6C63FF" enable-background="new    " d="M842.9,334.3c0,0-20.4-32.2-39.4-12.9c0,0-4.3,2-3.6,6.8
	c0,0,1.7-1.1,3.3,2.4c0.6,1.2,1.4,2.4,2.3,3.5c1.2,1.4,2.8,2.5,4.7,2.9l0,0c0,0,9.8,6.1,26.5-0.8c0,0,4.9,0.3,5.6-0.4l-6-3.6
	c0,0-2.5,4.5-6.6,5.4c0,0,6.6-5,5.7-5.9c-0.2-0.2-3.3-1.8-3.3-1.8s-4.3,7.8-10.8,8.9c0,0,8.7-5,9.6-9.5l-4.8-2.1
	c0,0-4.2,8.5-11.4,10c0,0,8.9-5.5,10.3-10.4l-5-1.4c0,0-4.2,8.2-10.3,9.4c0,0,9.6-7.4,9.1-9.7c0,0-4.7-1-6-0.7c0,0-3.2,5.8-6.8,6.2
	c0,0,5.9-5.6,5.4-6.4c0,0-6.4,0.3-9.6,2.1c2.9-1.8,6.1-2.9,9.5-3.1c-1.5-1.4-3.4-2.4-5.5-2.8c0,0,3.4-1.8,7,2.7c0,0,5,0,5.7,0.5
	c0,0-3-5-6.3-6.9c0,0,4.7,0.4,7.6,7.2l5,1.3c0,0-3.6-6.8-6.4-8.7c0,0,4.7,1.1,7.7,9.1l4.7,2c0,0-2.7-6-5.3-8.9c0,0,4.2,2,6.7,9.5
	l3,1.7c0,0-2-4.4-2.7-5.6s-0.4-1.5-0.4-1.5c2.2,2.1,3.7,4.8,4.4,7.8C836.6,330.6,842.6,334.6,842.9,334.3z"/>
<ellipse opacity="0.1" fill="#6C63FF" enable-background="new    " cx="898" cy="718.4" rx="26.9" ry="4.5"/>
<ellipse opacity="0.1" fill="#6C63FF" enable-background="new    " cx="799.8" cy="787.5" rx="26.9" ry="4.5"/>
<ellipse opacity="0.1" fill="#6C63FF" enable-background="new    " cx="292.1" cy="752.1" rx="26.9" ry="4.5"/>
<ellipse opacity="0.1" fill="#6C63FF" enable-background="new    " cx="1004.1" cy="782.9" rx="26.9" ry="4.5"/>
<path fill="#A8A8A8" d="M274.1,730.9c0,0,15.4-0.5,20-3.8s23.6-7.2,24.8-1.9c1.1,5.3,23.1,26.3,5.7,26.4s-40.3-2.7-44.9-5.5
	C275,743.3,274.1,730.9,274.1,730.9z"/>
<path opacity="0.2" enable-background="new    " d="M324.9,749.8c-17.3,0.1-40.3-2.7-44.9-5.5c-3.5-2.1-4.9-9.8-5.4-13.4h-0.5
	c0,0,1,12.4,5.6,15.2c4.6,2.8,27.6,5.7,44.9,5.5c5,0,6.7-1.8,6.6-4.5C330.5,748.8,328.6,749.8,324.9,749.8z"/>
</svg>
