<svg width="34" height="35" viewBox="0 0 34 35" fill="none" xmlns="http://www.w3.org/2000/svg">
<path d="M33.4831 31.8795L25.1015 23.2158C27.2565 20.6697 28.4373 17.4662 28.4373 14.1312C28.4373 6.3394 22.0587 0 14.2186 0C6.37861 0 0 6.3394 0 14.1312C0 21.9231 6.37861 28.2625 14.2186 28.2625C17.1619 28.2625 19.9667 27.3802 22.3647 25.7053L30.8099 34.4348C31.1629 34.7991 31.6377 35 32.1465 35C32.6281 35 33.0849 34.8175 33.4317 34.4857C34.1686 33.781 34.1921 32.6124 33.4831 31.8795ZM14.2186 3.68641C20.0137 3.68641 24.7281 8.37184 24.7281 14.1312C24.7281 19.8906 20.0137 24.5761 14.2186 24.5761C8.42362 24.5761 3.70921 19.8906 3.70921 14.1312C3.70921 8.37184 8.42362 3.68641 14.2186 3.68641Z" fill="white"/>
</svg>
