<?xml version="1.0" encoding="utf-8"?>
<!-- Generator: Adobe Illustrator 18.1.1, SVG Export Plug-In . SVG Version: 6.00 Build 0)  -->
<svg version="1.1" id="e2331fcb-09a1-43a6-a836-11e9ed08f05e"
	 xmlns="http://www.w3.org/2000/svg" xmlns:xlink="http://www.w3.org/1999/xlink" x="0px" y="0px" viewBox="198 146.2 860 501.8"
	 enable-background="new 198 146.2 860 501.8" xml:space="preserve">
<title>street_food</title>
<g id="truck">
	<polygon fill="#F5F5F5" points="1001.4,522.7 953.5,519.1 324.1,519.1 324.1,426.9 1001.4,426.9 	"/>
	<path fill="#EDEDF4" d="M317.6,191.1h-41.3v-24.3c0-9.4,7.6-17,17-17l0,0h7.3c9.4,0,17,7.6,17,17l0,0V191.1z"/>
	<path fill="#6C63FF" d="M1026.8,382.6v140.7l-46.2-0.6c0-1,0.1-2,0.1-2.9c0-50.3-40.7-91-91-91s-91,40.7-91,91l0,0
		c0,0.2,0,0.4,0,0.6l-46.1-0.6H513.8c0-3.3-0.2-6.7-0.6-10c-0.2-1.6-0.4-3.2-0.7-4.7c-0.6-4-1.6-8-2.7-11.9c-0.5-1.6-1-3.2-1.6-4.7
		c-1.5-4.1-3.3-8-5.3-11.8c-0.9-1.6-1.8-3.2-2.7-4.7c-2.6-4.2-5.5-8.1-8.7-11.8c-1.4-1.6-2.9-3.2-4.4-4.7
		c-35.5-35.5-93.1-35.5-128.6,0c-1.5,1.5-3,3.1-4.4,4.7c-3.2,3.7-6.1,7.7-8.7,11.8c-1,1.5-1.9,3.1-2.7,4.7
		c-2.1,3.8-3.8,7.8-5.3,11.8c-0.6,1.6-1.1,3.1-1.6,4.7c-1.2,3.9-2.1,7.8-2.7,11.8c-0.3,1.6-0.5,3.1-0.6,4.7c-0.4,3.3-0.6,6.7-0.6,10
		h-91V208.9h641.8l63.7,138.8l79.1,34.3L1026.8,382.6z"/>
	<path fill="#F5F5F5" d="M255,179.3h602.6c13.8,0,25,11.2,25,25v4.6l0,0H240.8l0,0v-15.4C240.8,185.7,247.2,179.3,255,179.3
		C255,179.3,255,179.3,255,179.3z"/>
	<path fill="#EDEDF4" d="M738.4,179.3H591.8v-5.5c0-15.2,12.3-27.6,27.6-27.6h84.7L738.4,179.3z"/>
	<path opacity="0.1" enable-background="new    " d="M238.8,473.6h60.7c6.1,0,11,4.9,11,11v34.7c0,6.1-4.9,11-11,11h-60.7
		c-6.1,0-11-4.9-11-11v-34.7C227.8,478.5,232.7,473.6,238.8,473.6z"/>
	<polygon opacity="0.1" enable-background="new    " points="752,519.1 683.4,519.1 683.4,208.3 818.2,208.3 818.2,423.4 	"/>
	<path fill="#F5F5F5" d="M237.6,476h60.7c6.1,0,11,4.9,11,11v34.7c0,6.1-4.9,11-11,11h-60.7c-6.1,0-11-4.9-11-11V487
		C226.6,480.9,231.6,476,237.6,476z"/>
	<path opacity="0.1" enable-background="new    " d="M1015.8,471.2h17.3c7.6,0,13.8,6.2,13.8,13.8v38.5c0,7.6-6.2,13.8-13.8,13.8
		h-17.3c-7.6,0-13.8-6.2-13.8-13.8v-38.5C1002,477.4,1008.2,471.2,1015.8,471.2z"/>
	<path fill="#F5F5F5" d="M1018.2,472.4h17.2c7.6,0,13.8,6.2,13.8,13.8v38.5c0,7.6-6.2,13.8-13.8,13.8h-17.2
		c-7.6,0-13.8-6.2-13.8-13.8v-38.5C1004.3,478.6,1010.5,472.4,1018.2,472.4z"/>
	<rect x="325.9" y="240.8" fill="#1A2246" width="270.6" height="146.6"/>
	<rect x="454.1" y="253.2" fill="#F5F5F5" width="143" height="126.5"/>
	<polygon fill="#FFFFFF" points="454.1,354.2 557,278 571.2,281.5 454.1,366 	"/>
	<polygon fill="#FFFFFF" points="454.1,323.5 509.7,263.8 535.7,269.7 454.1,346.5 	"/>
	<path fill="#F5F5F5" d="M718.9,231.3h67.3c8.8,0,16,7.2,16,16v105.1c0,8.8-7.2,16-16,16h-67.3c-8.8,0-16-7.2-16-16V247.3
		C702.9,238.5,710.1,231.3,718.9,231.3z"/>
	<rect x="783.3" y="380.2" fill="#1A2246" width="13" height="28.4"/>
	<path fill="#F5F5F5" d="M842.4,250.8v97.9c0,3,2.5,5.5,5.5,5.5l0,0h60.3c3,0,5.5-2.5,5.5-5.5c0-1-0.3-2-0.8-2.9l-60.3-97.9
		c-1.6-2.6-5-3.4-7.6-1.8C843.4,247.1,842.4,248.9,842.4,250.8z"/>
	<polygon fill="#FFFFFF" points="734.8,231.3 702.9,259.7 702.9,274.5 748.4,231.3 	"/>
	<polygon fill="#FFFFFF" points="702.9,291.6 702.9,308.7 778.6,231.3 763.8,231.3 	"/>
	<polygon fill="#FFFFFF" points="862.4,263.8 842.4,291.6 842.4,302.2 869,274.5 	"/>
	<polygon fill="#FFFFFF" points="878,291.6 842.4,322 842.4,330.6 886,302.2 	"/>
	<circle fill="#1A2246" cx="422.8" cy="519.7" r="63.8"/>
	<circle fill="#FFFFFF" cx="422.8" cy="519.7" r="35.5"/>
	<circle fill="#1A2246" cx="422.2" cy="519.1" r="9.5"/>
	<circle fill="#1A2246" cx="889.7" cy="519.7" r="63.8"/>
	<circle fill="#FFFFFF" cx="889.7" cy="519.7" r="35.5"/>
	<circle fill="#1A2246" cx="890.3" cy="519.1" r="9.5"/>
	<rect x="240.2" y="422.2" opacity="0.1" enable-background="new    " width="443.2" height="4.7"/>
	<polyline opacity="0.1" enable-background="new    " points="1018.5,426.9 815.8,426.9 818.2,423.4 818.2,422.2 1018.5,422.2 	"/>
	<polyline opacity="0.1" enable-background="new    " points="1018.5,406.8 818.2,406.8 818.2,402.1 1018.5,402.1 	"/>
	<polyline opacity="0.1" enable-background="new    " points="1018.5,386.7 818.2,386.7 818.2,382 1017.1,382 	"/>
	<path opacity="0.1" enable-background="new    " d="M381.2,438.7c-2.8,1.4-5.5,3-8.1,4.7H240.2v-4.7H381.2z"/>
	<path opacity="0.1" enable-background="new    " d="M683.4,438.7v4.7H472.6c-2.6-1.7-5.3-3.3-8.1-4.7H683.4z"/>
	<path opacity="0.1" enable-background="new    " d="M358.5,455.3c-1.5,1.5-3,3.1-4.4,4.7H240.2v-4.7H358.5z"/>
	<path opacity="0.1" enable-background="new    " d="M683.4,455.3v4.7H491.5c-1.4-1.6-2.9-3.2-4.4-4.7H683.4z"/>
	<path opacity="0.1" enable-background="new    " d="M345.4,471.8c-1,1.5-1.9,3.1-2.7,4.7H240.2v-4.7H345.4z"/>
	<path opacity="0.1" enable-background="new    " d="M683.4,471.8v4.7H503c-0.9-1.6-1.8-3.2-2.7-4.7H683.4z"/>
	<path opacity="0.1" enable-background="new    " d="M337.4,488.4c-0.6,1.6-1.1,3.1-1.6,4.7h-24.6v-4.7H337.4z"/>
	<path opacity="0.1" enable-background="new    " d="M683.4,488.4v4.7H509.9c-0.5-1.6-1-3.2-1.6-4.7H683.4z"/>
	<path opacity="0.1" enable-background="new    " d="M333,504.9c-0.3,1.6-0.5,3.1-0.6,4.7h-21.2v-4.7H333z"/>
	<path opacity="0.1" enable-background="new    " d="M683.4,504.9v4.7H513.3c-0.2-1.6-0.4-3.2-0.7-4.7H683.4z"/>
	<path fill="#FE5858" d="M585.3,367.1h-7.1v-17l3-5.9c0.2-0.3,0.6-0.5,0.9-0.3c0.1,0.1,0.2,0.2,0.3,0.3l3,5.9L585.3,367.1z"/>
	<rect x="578.3" y="350.1" opacity="0.1" enable-background="new    " width="7.1" height="0.7"/>
	<path fill="#F1C413" d="M596,367.1h-7.1v-17l3-5.9c0.2-0.3,0.6-0.5,0.9-0.3c0.1,0.1,0.2,0.2,0.3,0.3l3,5.9L596,367.1z"/>
	<rect x="588.9" y="350.1" opacity="0.1" enable-background="new    " width="7.1" height="0.7"/>
	<path fill="#6C63FF" d="M325.3,287.5c0,0,11.8,24.8,43.1,0"/>
	<path fill="#6C63FF" d="M367.9,287.5c0,0,11.8,24.8,43.1,0"/>
	<path fill="#6C63FF" d="M410.4,287.5c0,0,11.8,24.8,43.1,0"/>
	<path fill="#6C63FF" d="M453,287.5c0,0,11.8,24.8,43.1,0"/>
	<path fill="#6C63FF" d="M495.5,287.5c0,0,11.8,24.8,43.1,0"/>
	<path fill="#6C63FF" d="M538.1,287.5c0,0,11.8,24.8,43.1,0"/>
	<path fill="#6C63FF" d="M580.6,287.5c0,0,11.8,24.8,43.1,0"/>
	<path fill="#6C63FF" d="M623.2,287.5c0,0,11.8,17.7,20.1,1.2"/>
	<path opacity="0.1" enable-background="new    " d="M325.3,287.5c0,0,11.8,24.8,43.1,0"/>
	<path opacity="0.1" enable-background="new    " d="M367.9,287.5c0,0,11.8,24.8,43.1,0"/>
	<path opacity="0.1" enable-background="new    " d="M410.4,287.5c0,0,11.8,24.8,43.1,0"/>
	<path opacity="0.1" enable-background="new    " d="M453,287.5c0,0,11.8,24.8,43.1,0"/>
	<path opacity="0.1" enable-background="new    " d="M495.5,287.5c0,0,11.8,24.8,43.1,0"/>
	<path opacity="0.1" enable-background="new    " d="M538.1,287.5c0,0,11.8,24.8,43.1,0"/>
	<path opacity="0.1" enable-background="new    " d="M580.6,287.5c0,0,11.8,24.8,43.1,0"/>
	<path opacity="0.1" enable-background="new    " d="M623.2,287.5c0,0,11.8,17.7,20.1,1.2"/>
	<polygon fill="#6C63FF" points="642.7,288 283.4,288 309.4,231.3 615.5,231.3 	"/>
	<polygon opacity="0.1" enable-background="new    " points="642.7,288 283.4,288 309.4,231.3 615.5,231.3 	"/>
	<path fill="#6C63FF" d="M282.8,287.5c0,0,11.8,24.8,43.1,0"/>
	<path opacity="0.1" enable-background="new    " d="M282.8,287.5c0,0,11.8,24.8,43.1,0"/>
	<rect x="317.6" y="387.3" fill="#EDEDF4" width="290.8" height="21.3"/>
	<rect x="296.4" y="366" fill="#EDEDF4" width="332.1" height="28.4"/>
	<rect x="317.6" y="394.4" opacity="0.1" enable-background="new    " width="290.8" height="3.6"/>
</g>
<g id="girl">
	
		<linearGradient id="SVGID_1_" gradientUnits="userSpaceOnUse" x1="486.7137" y1="228.6935" x2="486.7137" y2="308.3018" gradientTransform="matrix(1 0 0 -1 -96.38 597.33)">
		<stop  offset="0" style="stop-color:#808080;stop-opacity:0.25"/>
		<stop  offset="0.54" style="stop-color:#808080;stop-opacity:0.12"/>
		<stop  offset="1" style="stop-color:#808080;stop-opacity:0.1"/>
	</linearGradient>
	<path fill="url(#SVGID_1_)" d="M416.9,344.7c0-0.2-0.1-0.3-0.1-0.5c0.4-4.2,1.6-18.3-0.1-21.6c-1.4-2.6-5-2.6-9.3-1.7
		c0-0.5,0.1-0.9,0.1-1.4v-14.3c-0.1-9.1-7.6-16.3-16.7-16.2H388c-9.1-0.1-16.5,7.1-16.7,16.2v14.3c0,0.4,0,0.8,0,1.3
		c-4.7,0.3-9.1,3.2-8.1,13.7v11.9h0.9c0.3,0.2,0.7,0.4,1,0.6l2.2,20.3h7.2l-0.1,1h28.1c2.3,0.2,4.6,0.3,6.4,0.3
		c1.2,0.1,2.3,0,3.5-0.3c3.1-1,3.1-7,3.1-7l1-14.9C416.9,345.9,417,345.3,416.9,344.7z M376.3,348.4h0.1v0.2l-0.1-0.1V348.4z
		 M403.3,350.9l0.5,7.5h-0.5V350.9z M374.6,357.4l1.7-8.8h0.1l0,0l-0.8,8.9L374.6,357.4z"/>
	<path fill="#965D7B" d="M386.7,289.3h5.3c8.1,0,14.6,6.6,14.6,14.6v16.9c0,8.1-6.6,14.6-14.6,14.6h-5.3c-8.1,0-14.6-6.6-14.6-14.6
		v-16.9C372,295.8,378.6,289.3,386.7,289.3z"/>
	<path fill="#FC6681" d="M381.2,322.7c0,0-18.8-9-16.8,11.7v11.8h12.8l-2,21.7h27.5v-21.7c0,0,10.8,1,12.8-1c0,0,2-18.7,0-22.6
		s-8.9-1.8-15.8,0.1C392.8,324.6,381.2,322.7,381.2,322.7z"/>
	<path fill="#F7C4A7" d="M366.1,346.1l2.2,20.7h21.6c0,0,8.9-5.9,3.9-7.9c-4.9-2-7.9-1-7.9-1l-10.8-1l2-10.8H366.1z"/>
	<path opacity="0.1" enable-background="new    " d="M415,345.1l-1,15.8c0,0,0,5.9-3,6.9c-3,1-18.7-1-18.7-1s-5.9,0-4.9-4.9
		c1-4.9,5.9-5.9,7.9-5.9s4.9,2,4.9,2h3l-0.8-11.8L415,345.1z"/>
	<path fill="#F7C4A7" d="M415.5,345.1l-1,15.8c0,0,0,5.9-3,6.9c-3,1-18.7-1-18.7-1s-5.9,0-4.9-4.9c1-4.9,5.9-5.9,7.9-5.9
		s4.9,2,4.9,2h3l-0.8-11.8L415.5,345.1z"/>
	<path opacity="0.1" enable-background="new    " d="M364.6,345.6c0,0,4,4,12.3,2.6C377.8,348.1,366.1,343.9,364.6,345.6z"/>
	<path opacity="0.1" enable-background="new    " d="M401.7,349.6c0,0,15.3-0.3,14.1-5.2s-13.1-2.2-13.1-2.2L401.7,349.6z"/>
	<path fill="#FC6681" d="M364.6,345.4c0,0,4.9,4.9,15.1,2S366.1,343.7,364.6,345.4z"/>
	<path fill="#FC6681" d="M401.4,349.3c0,0,15.3-0.3,14.1-5.2s-13.1-2.2-13.1-2.2L401.4,349.3z"/>
	<path fill="#F7C4A7" d="M380.1,309c0,0,3,10.8,1,13.8c-2,3,6.2,9.1,9.8,9c2.1,0,9.6-5.3,9-9c-0.5-3.1-4.9-11.8-3.9-15.7L380.1,309z
		"/>
	<path opacity="0.1" enable-background="new    " d="M389.4,322.5c3.3,0,6.5-1.2,9-3.4c-1.4-3.9-3.3-8.9-2.6-11.6l-15.7,2
		c0,0,1.8,6.4,1.7,10.7C384,321.7,386.7,322.5,389.4,322.5z"/>
	<circle fill="#F7C4A7" cx="389.4" cy="308.3" r="13.8"/>
	<path opacity="0.1" enable-background="new    " d="M381,314.3c-0.3-1.3-0.9-2.5-1.1-3.9c-0.9-5,1.8-9.9,6.5-11.8
		c0.7-0.3,1.4-0.4,2.1-0.3c2.9,0.5,3.4,5,6.1,6.1c0.5,0.2,1.1,0.3,1.7,0.4c1.5,0.7,2.6,2,3,3.5c0.6,1.7,0.8,3.4,0.6,5.2
		c-0.1,1.7-0.6,3.3-0.8,5c-0.2,1.7,0.2,3.4,1.3,4.7c0.6,0.6,1.3,1,2,1.4c0.5,0.3,1.1,0.6,1.6,0.2c0.2-0.2,0.4-0.4,0.5-0.7
		c0.7-1.8,0.4-3.8,0.2-5.7c-0.2-2.9-0.2-5.8,0.1-8.8c0.1-2.4,0.3-4.8-0.6-7c-0.6-1.5-1.5-2.8-2.6-4c-0.9-1.2-1.9-2.3-3.1-3.2
		c-2.2-1.5-4.9-2.3-7.6-2.3c-2.7,0.1-5.3,0.4-7.9,1c-1.9,0.4-4,0.9-5.1,2.4c-0.6,0.9-1,1.8-1.2,2.8l-0.8,2.9c-1,3-1.6,6.2-1.8,9.4
		c0,2.3,0.4,7.4,3,8.4C380.8,321.7,381.6,316.6,381,314.3z"/>
	<path fill="#965D7B" d="M381,313.8c-0.3-1.3-0.9-2.5-1.1-3.9c-0.9-5,1.8-9.9,6.5-11.8c0.7-0.3,1.4-0.4,2.1-0.3
		c2.9,0.5,3.4,5,6.1,6.1c0.5,0.2,1.1,0.3,1.7,0.4c1.5,0.7,2.6,2,3,3.5c0.6,1.7,0.8,3.4,0.6,5.2c-0.1,1.7-0.6,3.3-0.8,5
		c-0.2,1.7,0.2,3.4,1.3,4.7c0.6,0.6,1.3,1,2,1.4c0.5,0.3,1.1,0.6,1.6,0.2c0.2-0.2,0.4-0.4,0.5-0.7c0.7-1.8,0.4-3.8,0.2-5.7
		c-0.2-2.9-0.2-5.8,0.1-8.8c0.1-2.4,0.3-4.8-0.6-7c-0.6-1.5-1.5-2.8-2.6-4c-0.9-1.2-1.9-2.3-3.1-3.2c-2.2-1.5-4.9-2.3-7.6-2.3
		c-2.7,0.1-5.3,0.4-7.9,1c-1.9,0.4-4,0.9-5.1,2.4c-0.6,0.9-1,1.8-1.2,2.8l-0.8,2.9c-1,3-1.6,6.2-1.8,9.4c0,2.3,0.4,7.4,3,8.4
		C380.8,321.1,381.6,316.1,381,313.8z"/>
</g>
<g id="boy">
	
		<linearGradient id="SVGID_2_" gradientUnits="userSpaceOnUse" x1="-133.8745" y1="-27.5103" x2="-133.8745" y2="285.1094" gradientTransform="matrix(-1 0 0 -1 141.62 597.33)">
		<stop  offset="0" style="stop-color:#808080;stop-opacity:0.25"/>
		<stop  offset="0.54" style="stop-color:#808080;stop-opacity:0.12"/>
		<stop  offset="1" style="stop-color:#808080;stop-opacity:0.1"/>
	</linearGradient>
	<path fill="url(#SVGID_2_)" d="M198.8,432.5c0,0-0.6,5.4,2.7,8.1c0,0,10.2,13.4,15.3,21c-0.3,2.1-0.5,3.3-0.5,3.3l0,0v0.3h0.1
		l-0.1,0.8h0.1c-2.9,10.3-4,25.4-4,25.4v0.6c0,0.3,0,0.5,0,0.5s1.2,17.3,1.2,30.6c0,6.5-0.3,11.9-1.2,13.7
		c-1.1,2.2-1.5,13.1-1.5,25.5c0,17.9,0.8,39.5,1.5,42.1c0.1,0.5,0.4,0.9,0.8,1.3c-1,4-2.9,9.6-5.7,10.6c-2,0.7-3.3,2.5-3.5,4.6
		c0,0,0,0,0,0.1s0,0.2,0,0.3v0.1c0,0.1,0,0.2,0,0.3v0.1c0,0.1,0,0.2,0.1,0.3v0.1c0,0.1,0.1,0.2,0.1,0.3v0.1c0,0.1,0.1,0.2,0.1,0.3
		v0.1c0.1,0.2,0.3,0.5,0.5,0.7l0,0l0.3,0.2l0.1,0.1l0.3,0.2l0.1,0.1l0.3,0.1l0.2,0.1l0.3,0.1l0.2,0.1l0.3,0.1l0.2,0.1l0.3,0.1h0.2
		h0.4h0.2h0.7c7.1,0,11-1.6,13.1-4.9l4.4-1.1v-0.1l0,0v-0.1v-0.1v-0.1v-0.1v-0.2V618v-0.1v-0.2l0,0l0.1-0.5v0l0.1-0.3l0,0
		c0-0.3,0.1-0.6,0.2-1v-0.1c0.1-0.4,0.1-0.7,0.2-1.1l0,0c0.1-0.4,0.1-0.8,0.2-1.2v0c0-0.4,0.1-0.8,0.1-1.3V612v-0.4v0
		c0-0.3,0-0.6,0.1-0.8v-0.1c0-0.1,0-0.3,0-0.4v-0.1c0-0.3,0-0.5,0-0.8h0.4l3.8-60.5l13.7-54l6.6,45.3c0,1.5,0,4.5,0,8.3
		c0,12.9,0.3,36.7,2.2,39.8c0.9,1.3,1.2,3.9,1.2,6.8c-0.1,4.4-0.5,8.8-1.2,13.2h0.2c-0.1,0.7-0.2,1.1-0.2,1.1h0.5
		c-0.4,3.5-0.5,7.4-0.5,9.2l0,0v0.3c0,0.5,0,0.8,0,0.8s9.3,1.1,11,1.1c9.2,0,20.8,4.3,24.6,1.6l0.3-0.3l0.1-0.1l0.2-0.2l0-0.1
		l0.1-0.2v0c0-0.1,0.1-0.1,0.1-0.2l0,0c0-0.1,0-0.1,0.1-0.2l0,0c0-0.1,0-0.1,0-0.2l0,0c0-0.1,0-0.2,0-0.2l0,0
		c-0.5-1.9-6-3.6-9.8-5.3c-3.3-1.4-6.1-7-7.6-10.5c0.5-0.6,0.7-1.4,0.5-2.2c0.1-0.5,0.1-1-0.1-1.4c-2-6-2.6-56.6-2.7-64.4l4.9-35.1
		c0.5-2.1,0.7-4.2,0.6-6.4c0.1-8-1.5-21.7-2.5-29.3h1.4l-0.2-1.1h0.2l-2.2-13v-17l2.7-29.7l3.3,2.2c0.3,0,0.7-0.4,1.3-1
		c7,3.1,16,7,21.1,9.1c9.3,3.8,9.9,0,9.9,0l18.1-35.1c0,0,31.8-13,21.4-18.4s-25.2,5.4-27.4,10.8c-2.2,5.4-14.8,22.7-17.5,25.9
		c-2.7,3.2-4.4,1.1-7.1-1.6c-2.3-2-4.8-3.9-7.3-5.7l0.2-0.3c-1.1-0.5-2.1-1.2-2.9-2.2c-4.3-4.9-13.7-14.7-19-15.1
		c-6.6-0.5-15.1-7.1-16.3-8c-0.1-1.6-0.1-3.2,0.1-4.8h0.1c0-0.2,0-0.4,0.1-0.5c7.8-1.6,13.3-8.4,13.4-16.4c0-0.4,0-0.8-0.1-1.3
		c0.1,0,0.2,0,0.3,0c0.7-0.2,1.1-6.8,1.1-7.8c0-0.6,0.2-1.2,0.4-1.8c0.2-0.5,0.6-0.9,0.8-1.4c0.2-0.4,0.2-0.9,0.2-1.4
		c0-1.1-0.3-2.1-0.8-3.1c-1.5-3.8-3.5-7.5-5.9-10.8c-0.3-0.5-0.8-0.9-1.3-1.2c-0.6-0.2-1.3-0.3-1.9-0.2c-3,0-5.8-1.4-8.6-2.4
		c-2.9-1-6.2-1.4-8.7,0.3c-2.5,1.7-3.4,5.1-6,6.4c-0.7,0.4-1.5,0.5-2.2,0.9c-0.8,0.7-1.4,1.5-1.9,2.4c-1.5,1.7-2.7,3.6-3.5,5.8
		c-0.4,1.5-0.5,3-0.5,4.5c0,0.5,0,1,0,1.5c0,3,0.3,6.4,2.8,8.2c0.6,0.4,1,0.9,1.4,1.5c0.4,0.7,0.7,1.6,0.7,2.4
		c0.1,1.7,0.8,3.3,0.9,5c0,0.6,0.2,1.3,0.5,1.8c0.4,0.5,1.1,0.7,1.7,0.3c0,0,0,0,0,0l0.1-0.4c0.2,0.3,0.4,0.5,0.5,0.8
		c-0.6,3.6-1.6,7.5-3.2,10h-0.4c-2.6,0-5.1,0.9-7.3,2.4c-6.1,4.4-18.8,7.9-18.8,7.9c-0.9,0.9-1.6,2.1-1.7,3.4
		c-2.3,5.4-4.2,10.9-5.6,16.6l0,0c-1.1,4.1-1.7,7.5-1.6,8.7v0.2h0.1l0,0l-0.1,0.5l1.9,0.5C199,412.7,196.8,427.2,198.8,432.5z
		 M210.8,429.8c1.4-3.6,2.7-7.2,3.7-10.9c1.2,3.7,2.4,6.5,3.4,7.7s1.3,4,1.4,7.9s-0.4,8.5-0.8,12.9
		C215.4,441.8,212.9,435.9,210.8,429.8L210.8,429.8z"/>
	<path fill="#59495D" d="M272.8,599.6c0,0,3.7,11.2,8.5,13.3s12.3,4.3,8.5,6.9c-3.7,2.7-15-1.6-24-1.6c-1.6,0-10.6-1.1-10.6-1.1
		s0-14.4,2.1-17S272.8,599.6,272.8,599.6z"/>
	<path fill="#59495D" d="M215.8,599.6c0,0-2.1,12.8-6.4,14.4c-4.3,1.6-5.3,8.5,1.6,8.5s10.6-1.6,12.8-4.8l4.3-1.1
		c0,0,2.7-12.3,0-15.5L215.8,599.6z"/>
	<path fill="#59495D" d="M272.8,599.6c0,0,3.7,11.2,8.5,13.3s12.3,4.3,8.5,6.9c-3.7,2.7-15-1.6-24-1.6c-1.6,0-10.6-1.1-10.6-1.1
		s0-14.4,2.1-17S272.8,599.6,272.8,599.6z"/>
	<path fill="#59495D" d="M215.8,599.6c0,0-2.1,12.8-6.4,14.4c-4.3,1.6-5.3,8.5,1.6,8.5s10.6-1.6,12.8-4.8l4.3-1.1
		c0,0,2.7-12.3,0-15.5L215.8,599.6z"/>
	<path fill="#F0B9BB" d="M286.1,388.7c0,0,10.1,6.9,12.8,9.6s4.3,4.8,6.9,1.6s14.9-20.2,17-25.6s16.5-16,26.6-10.7
		c10.1,5.4-20.8,18.1-20.8,18.1l-17.5,34.6c0,0-0.5,3.7-9.6,0c-9.1-3.7-30.4-13.3-30.4-13.3L286.1,388.7z"/>
	<path opacity="0.1" enable-background="new    " d="M273.8,461.7c0,0,4.8,33,2.7,39.4l-4.8,34.6c0,0,0.5,58.1,2.7,64.5
		s-19.2,6.9-19.2,6.9s2.7-16.5,0-20.8s-2.1-47.4-2.1-47.4l-6.4-44.8l-13.3,53.3l-3.7,59.7c0,0-14.4-0.5-15.4-4.8
		c-1.1-4.3-2.7-60.2,0-65.5s0-44.7,0-44.7s2.1-30.4,8.5-34.1C229.1,454.2,273.8,461.7,273.8,461.7z"/>
	<path fill="#524D64" d="M273.8,460.6c0,0,4.8,33,2.7,39.4l-4.8,34.6c0,0,0.5,58.1,2.7,64.5s-19.2,6.9-19.2,6.9s2.7-16.5,0-20.8
		s-2.1-47.4-2.1-47.4l-6.4-44.7l-13.3,53.3l-3.7,59.7c0,0-14.4-0.5-15.4-4.8c-1.1-4.3-2.7-60.2,0-65.5s0-44.7,0-44.7
		s2.1-30.4,8.5-34.1C229.1,453.2,273.8,460.6,273.8,460.6z"/>
	<path fill="#F0B9BB" d="M239.2,347.2c0,0-1.1,25.6-10.1,20.8l8,24l18.1-1.1l10.6-14.4l-8-4.8c0,0-5.9,2.1-1.6-17.6L239.2,347.2z"/>
	<path opacity="0.1" enable-background="new    " d="M254.6,368.5c0,0,9.1,7.5,16,8c5.2,0.4,14.3,10.1,18.5,14.9
		c0.8,0.9,1.7,1.6,2.8,2.1c0,0-10.6,14.9-12.3,14.9l-3.2-2.1l-2.7,29.3v17.6l2.1,12.8c0,0-33.6,0.5-36.8-2.1s-21.3,2.1-21.3,2.1
		s5.3-34.6,1.6-38.9S209.4,393,209.4,393s-4.3-12.3,0-16c0,0,12.3-3.5,18.3-7.8c2-1.5,4.5-2.3,7.1-2.3h0.4c0,0,0.4,8,8.4,9.6
		C251.4,378,256.5,375.1,254.6,368.5z"/>
	<path fill="#E2E8F0" d="M254.6,367.4c0,0,9.1,7.5,16,8c5.2,0.4,14.3,10.1,18.5,14.9c0.8,0.9,1.7,1.6,2.8,2.1
		c0,0-10.6,14.9-12.3,14.9l-3.2-2.1l-2.7,29.3v17.6l2.1,12.8c0,0-33.6,0.5-36.8-2.1s-21.3,2.1-21.3,2.1s5.3-34.6,1.6-38.9
		s-10.1-34.1-10.1-34.1s-4.3-12.3,0-16c0,0,12.3-3.5,18.3-7.8c2-1.5,4.5-2.3,7.1-2.3h0.4c0,0,0.4,8,8.4,9.6
		C251.4,377,256.5,374.1,254.6,367.4z"/>
	<path fill="#E2E8F0" d="M218.4,406.8c0,0-16-2.1-17.6-2.1c-1.6,0,5.3-26.1,9.1-28.8c3.7-2.7,8.5,9.6,8.5,9.6L218.4,406.8z"/>
	<g opacity="0.1">
		<path d="M256.5,369.1c0.6,4.8-2.7,7.2-8.3,7c5.1-0.3,7.8-3.2,6.4-8.4C254.6,367.7,255.4,368.3,256.5,369.1z"/>
		<path d="M278.1,405.5l2.4,1.6c-0.2,0.2-0.5,0.4-0.8,0.5l-1.7-1.1L278.1,405.5z"/>
		<path d="M209.4,392.2c0,0,8,29.8,11.7,34.1c3.5,4-0.9,34.5-1.5,38.5l-1.7,0.4c0,0,5.3-34.6,1.6-38.9S209.4,392.2,209.4,392.2z"/>
		<path d="M240.8,463c2.2,1.9,19.2,2.2,29.3,2.2c-9.8,0-28.5-0.2-30.9-2.2c-0.9-0.6-2-0.8-3.1-0.8C238.3,462.1,240,462.3,240.8,463z
			"/>
	</g>
	<path fill="#F0B9BB" d="M203.5,399.9c0,0-5.3,25.6-2.7,33c0,0-0.5,5.3,2.7,8c0,0,17.6,23.4,17.6,25.6s5.3,12.3,14.4,3.7
		c0,0,4.3-5.9-5.3-10.7s-17.6-29.3-17.6-29.3s8-19.7,4.8-26.1S203.5,399.9,203.5,399.9z"/>
	<polygon opacity="0.1" enable-background="new    " points="220.3,409.8 200.6,405 202.2,396.2 210.7,394.8 221.9,398.6 	"/>
	<polygon fill="#E2E8F0" points="220.3,409.2 200.6,404.4 202.2,395.6 210.7,394.3 221.9,398 	"/>
	<path opacity="0.1" enable-background="new    " d="M239.2,347.7l17,6.9c-0.6,2.7-1.1,5.4-1.4,8.2c-6.3,1.3-12.8-1.1-16.7-6.3
		C238.7,353.6,239,350.7,239.2,347.7z"/>
	<circle fill="#F0B9BB" cx="251.4" cy="346.1" r="16.5"/>
	<path opacity="0.1" enable-background="new    " d="M269.3,337.2c0-0.6,0.2-1.2,0.4-1.8c0.2-0.5,0.6-0.9,0.8-1.4
		c0.5-1.2,0-2.6-0.6-3.9c-1.5-3.8-3.4-7.3-5.7-10.7c-0.3-0.5-0.8-0.9-1.3-1.2c-0.6-0.2-1.2-0.3-1.9-0.2c-2.9,0-5.6-1.4-8.4-2.3
		c-2.8-0.9-6-1.4-8.5,0.3c-2.4,1.7-3.3,5-5.9,6.3c-0.7,0.4-1.5,0.5-2.2,0.9c-0.9,0.6-1.7,1.4-2.3,2.3c-2.9,2.9-4.4,7-3.9,11.1
		c0,3,0.3,6.3,2.7,8.1c0.5,0.4,1,0.9,1.4,1.5c0.4,0.7,0.7,1.5,0.6,2.4c0.1,1.7,0.8,3.3,0.9,4.9c0,0.6,0.1,1.2,0.5,1.8
		c0.4,0.5,1.1,0.7,1.6,0.3c0,0,0,0,0,0l1.7-6.9c0.2-1.4,0.8-2.7,1.5-3.8c1.2-1.5,3.5-2.3,4.1-4.1c0.5-1.3,0.1-3,1.1-4
		c0.4-0.3,1-0.6,1.5-0.7c4.8-1.1,9.8-1.3,14.6-0.5c0.5,0.1,1,0.2,1.5,0.5c0.8,0.6,1.3,1.5,1.6,2.5c0.4,1,1.6,6.6,3,6.2
		C268.9,344.7,269.3,338.1,269.3,337.2z"/>
	<path fill="#575168" d="M269.3,336.7c0-0.6,0.2-1.2,0.4-1.8c0.2-0.5,0.6-0.9,0.8-1.4c0.5-1.2,0-2.6-0.6-3.9
		c-1.5-3.8-3.4-7.3-5.7-10.7c-0.3-0.5-0.8-0.9-1.3-1.2c-0.6-0.2-1.2-0.3-1.9-0.2c-2.9,0-5.6-1.4-8.4-2.4c-2.8-0.9-6-1.4-8.5,0.3
		c-2.4,1.7-3.3,5-5.9,6.3c-0.7,0.4-1.5,0.5-2.2,0.9c-0.9,0.6-1.7,1.4-2.3,2.3c-2.9,2.9-4.3,6.9-3.9,11c0,3,0.3,6.3,2.7,8.1
		c0.5,0.4,1,0.9,1.4,1.5c0.5,0.7,0.7,1.6,0.7,2.5c0.1,1.7,0.8,3.3,0.9,4.9c0,0.6,0.1,1.2,0.5,1.8c0.4,0.5,1.1,0.7,1.6,0.3
		c0,0,0,0,0,0l1.7-6.9c0.2-1.4,0.8-2.7,1.5-3.8c1.2-1.5,3.5-2.3,4.1-4.1c0.5-1.3,0.1-3,1.1-4c0.4-0.3,1-0.6,1.5-0.7
		c4.8-1.1,9.8-1.3,14.6-0.5c0.5,0.1,1,0.2,1.5,0.5c0.8,0.6,1.3,1.5,1.6,2.5c0.4,1,1.6,6.6,3,6.2
		C268.9,344.1,269.3,337.6,269.3,336.7z"/>
	<ellipse fill="#F0B9BB" cx="240.5" cy="345.3" rx="1.6" ry="3.7"/>
	<path opacity="0.1" enable-background="new    " d="M265.8,617.2c8.9,0,20.2,4.3,24,1.6c0.4-0.2,0.7-0.5,0.9-0.9
		c0.3,0.6,0.1,1.3-0.9,2c-3.7,2.7-15-1.6-24-1.6c-1.6,0-10.6-1.1-10.6-1.1s0-0.4,0-1.1C255.4,616.2,264.3,617.2,265.8,617.2z"/>
	<path opacity="0.1" enable-background="new    " d="M211,621.5c6.9,0,10.7-1.6,12.8-4.8l4.3-1.1c0.7-3.1,1-6.3,1.2-9.5
		c0,3.6-0.4,7.1-1.2,10.6l-4.3,1.1c-2.1,3.2-5.9,4.8-12.8,4.8c-3.9,0-5.2-2.2-5-4.3C206.3,620,207.7,621.5,211,621.5z"/>
	
		<rect x="220.8" y="466.7" transform="matrix(0.9451 -0.3269 0.3269 0.9451 -141.1271 101.1641)" fill="#524D64" width="19.2" height="7.5"/>
	
		<rect x="220.8" y="466.7" transform="matrix(0.9451 -0.3269 0.3269 0.9451 -141.1271 101.1641)" opacity="0.1" enable-background="new    " width="19.2" height="7.5"/>
</g>
</svg>
